<svg width="109" height="109" xmlns="http://www.w3.org/2000/svg" xmlns:xlink="http://www.w3.org/1999/xlink"><defs><path id="a" d="M0 .516h108.484v108.483H0z"/></defs><g fill="none" fill-rule="evenodd"><g><mask id="b" fill="#fff"><use xlink:href="#a"/></mask><path d="M108.484 54.757c0 29.959-24.285 54.242-54.24 54.242C24.284 109 0 84.716 0 54.757 0 24.799 24.285.516 54.244.516c29.955 0 54.24 24.283 54.24 54.24" fill="#8BE3E3" mask="url(#b)"/></g><path d="M76 46.354c0 12.148-9.849 21.999-22.003 21.999-12.148 0-21.997-9.851-21.997-22 0-12.15 9.849-22 21.997-22 12.154 0 22.003 9.85 22.003 22z" stroke="#FFF" stroke-width="5" stroke-linecap="round" stroke-linejoin="round"/><path stroke="#FFF" stroke-width="4" stroke-linecap="round" stroke-linejoin="round" d="M54.375 86.353l-.25-18M65.472 85.546C59.944 88.877 54 86.581 54 86.581s1.438-5.847 6.965-9.176C66.495 74.075 72 75.798 72 75.798s-1 6.419-6.528 9.748zM47.472 77.159C41.944 73.828 36 76.124 36 76.124s1.438 5.847 6.965 9.176C48.495 88.63 54 86.907 54 86.907s-1-6.419-6.528-9.748z"/><text font-family="Poppins-SemiBold, Poppins" font-size="35" font-weight="500" letter-spacing="-.525" fill="#FFF"><tspan x="44" y="59">₹</tspan></text></g></svg>