<svg width="60" height="58" xmlns="http://www.w3.org/2000/svg"><defs><path id="a" d="M0 0h25v24.857H0z"/></defs><g fill="none" fill-rule="evenodd"><rect width="60" height="58" rx="29" fill="#FFA192"/><path d="m21.115 20.971 7.911 19.075 1.286-8.238c.158-1.01.91-1.81 1.918-2.038l8.062-1.815-19.177-6.984Zm5.664 20.578L18.526 21.65a2.428 2.428 0 0 1 .513-2.66 2.49 2.49 0 0 1 2.666-.605l19.99 7.28a2.46 2.46 0 0 1 1.633 2.483 2.468 2.468 0 0 1-1.942 2.256l-8.465 1.907-1.354 8.675a2.467 2.467 0 0 1-2.178 2.082 2.574 2.574 0 0 1-.306.018c-1.01 0-1.912-.59-2.304-1.537Z" fill="#FFF"/></g></svg>