<svg width="275" height="200" xmlns="http://www.w3.org/2000/svg" xmlns:xlink="http://www.w3.org/1999/xlink"><defs><path id="a" d="M0 0h275v185.321H0z"/><path id="b" d="M0 0h54.083v57.798H0z"/><path id="d" d="M0 0h53.167v57.798H0z"/><path id="f" d="M0 0h54.083v57.798H0z"/><path id="h" d="M0 0h53.167v57.798H0z"/></defs><g fill="none" fill-rule="evenodd"><ellipse fill="#D8D8D8" cx="143.304" cy="190.041" rx="101.16" ry="9.959"/><path d="M95.333 30.275s11.817 5.428 18.05 10.572c6.232 5.145 21.367 6.688 21.367 6.688l-1.145 4.759s-19.84-2.958-22.894-3.087c-3.052-.129-15.378 1.234-15.378 1.234V30.275ZM222.7 91.702l.186 3.767s22.78 19.405 22.78 42.954c0 0-24.46 13-71.143-.565l-5.602-5.463-13.817-42.577-.187-3.58 67.782 5.464Z" fill="#2EBCD2"/><path d="M119.167 132.382s29.557 2.268 37.088-3.024l28.992 10.773 10.92 2.08-4.519 5.481s-52.29 6.712-57.961 3.923l-14.52-19.233Z" fill="#2EBCD2"/><path d="m134.802 47.706 13.252 2.852s1.473 3.04-.937 4.488l-13.284-2.654.969-4.686Z" fill="#341E61"/><g transform="translate(186.083 129.358)"><mask id="c" fill="#fff"><use xlink:href="#b"/></mask><path d="M54.083 28.9c0 15.96-12.107 28.898-27.042 28.898C12.107 57.798 0 44.86 0 28.9 0 12.94 12.107 0 27.041 0c14.935 0 27.042 12.939 27.042 28.9" fill="#031047" mask="url(#c)"/></g><g transform="translate(190.667 129.358)"><mask id="e" fill="#fff"><use xlink:href="#d"/></mask><path d="M53.167 28.9c0 15.96-11.902 28.898-26.583 28.898C11.902 57.798 0 44.86 0 28.9 0 12.94 11.902 0 26.584 0c14.681 0 26.583 12.939 26.583 28.9" fill="#341E61" mask="url(#e)"/></g><path d="M232.833 159.174c0 8.36-6.36 15.138-14.208 15.138-7.847 0-14.208-6.778-14.208-15.138s6.36-15.137 14.208-15.137c7.847 0 14.208 6.777 14.208 15.137" fill="#CCFFFC"/><path d="M222.75 159.174c0 4.307-3.283 7.798-7.333 7.798-4.05 0-7.334-3.49-7.334-7.798 0-4.307 3.284-7.798 7.334-7.798s7.333 3.491 7.333 7.798M101.75 40.367c0 5.574-3.078 10.092-6.875 10.092S88 45.94 88 40.367c0-5.574 3.078-10.092 6.875-10.092s6.875 4.518 6.875 10.092" fill="#341E61"/><path d="M98.083 40.367c0 4.054-1.846 7.34-4.125 7.34-2.278 0-4.125-3.286-4.125-7.34s1.847-7.34 4.125-7.34c2.279 0 4.125 3.286 4.125 7.34" fill="#FCB66D"/><path d="M93.958 33.028c-.098 0-.196.014-.292.026 1.816.266 3.246 2.969 3.246 6.27 0 3.478-1.585 6.298-3.54 6.298-1.855 0-3.375-2.543-3.524-5.776-.007.173-.015.345-.015.521 0 4.054 1.847 7.34 4.125 7.34s4.125-3.286 4.125-7.34-1.847-7.34-4.125-7.34" fill="#E08331"/><path d="M147.583 86.239s13.7 26.54 8.906 43.021l25.011 9.272s-11.3-45.445-21.41-50.86l-12.507-1.433ZM135.676 151.64c2.248.43 5.11.972 7.324.42-1.09-1.317-2.258-2.596-3.283-3.987-8.149-11.058-14.045-23.738-17.284-37.055-3.5-14.387-3.903-34.949-5.565-49.61-.66-5.812-5.3 4.372-5.83 5.989-4.195 12.823-6.62 32.675-5.227 46.133 1.034 9.99 4.498 19.958 11.21 27.47 4.956 5.549 11.501 9.274 18.655 10.64" fill="#2FA7BA"/><path d="M75.167 110.199s5.686-55.244 21.71-54.222c16.022 1.023 18.348.256 19.382 5.627 1.034 5.371-13.44 68.8 17.574 89.772 0 0-33.597-4.348-44.71-11.509-11.114-7.161-13.956-29.668-13.956-29.668" fill="#2EBCD2"/><path d="M210.528 91.743s10.103-21.43-13.604-24.938c-23.708-3.506-47.805 5.57-52.09 21.158l65.694 3.78Z" fill="#C0546C"/><path d="M227.028 92.66s10.103-21.43-13.604-24.937c-23.708-3.507-47.805 5.57-52.09 21.158l65.694 3.78Z" fill="#E86D89"/><g transform="translate(39.417 129.358)"><mask id="g" fill="#fff"><use xlink:href="#f"/></mask><path d="M54.083 28.9c0 15.96-12.107 28.898-27.042 28.898C12.107 57.798 0 44.86 0 28.9 0 12.94 12.107 0 27.041 0c14.935 0 27.042 12.939 27.042 28.9" fill="#031047" mask="url(#g)"/></g><g transform="translate(44.917 129.358)"><mask id="i" fill="#fff"><use xlink:href="#h"/></mask><path d="M53.167 28.9c0 15.96-11.902 28.898-26.583 28.898C11.902 57.798 0 44.86 0 28.9 0 12.94 11.902 0 26.584 0c14.681 0 26.583 12.939 26.583 28.9" fill="#341E61" mask="url(#i)"/></g><path d="M86.167 159.174c0 8.36-6.362 15.138-14.208 15.138-7.848 0-14.209-6.778-14.209-15.138s6.361-15.137 14.209-15.137c7.846 0 14.208 6.777 14.208 15.137" fill="#CCFFFC"/><path d="M76.083 159.174c0 4.307-3.283 7.798-7.333 7.798-4.05 0-7.333-3.49-7.333-7.798 0-4.307 3.283-7.798 7.333-7.798 4.05 0 7.333 3.491 7.333 7.798" fill="#341E61"/><path d="M181.291 138.548s-13.808-35.143 22.951-39.42c0 0 35.08-2.975 41.425 39.233 0 0-24.63 12.645-64.376.187" fill="#8EE4E3"/><path d="M113.667 49.049s-2.243 6.562-1.632 8.75l-14.868-2.122s1.821-5.236 1.006-5.833c-.816-.596 13.87-1.888 15.494-.795M193.417 119.266H225.5v-3.67h-32.083zM193.417 127.523H225.5v-3.67h-32.083z" fill="#2EBCD2"/><path d="M36.153 130.919s12.064-25.143 39.293-21.356c27.23 3.787 33.637 36.309 33.637 36.309l-14.098-.188s-7.574-12.896-23.592-11.774c-16.018 1.12-23.557 2.99-31.66 2.242 0 0-3.957-.934-4.9-1.308l1.32-3.925Z" fill="#8EE4E3"/></g></svg>