<svg width="56" height="39" viewBox="0 0 56 39" fill="none" xmlns="http://www.w3.org/2000/svg">
<path fill-rule="evenodd" clip-rule="evenodd" d="M36.6376 36.0566H18.1116C16.3043 36.0566 14.8403 34.5918 14.8403 32.7853V6.2722C14.8403 4.46481 16.3043 3 18.1116 3H36.6376C38.445 3 39.9089 4.46481 39.9089 6.2722V32.7853C39.9089 34.5918 38.445 36.0566 36.6376 36.0566Z" stroke="url(#paint0_linear_2759_877)" stroke-width="4.13185" stroke-linecap="round" stroke-linejoin="round"/>
<path fill-rule="evenodd" clip-rule="evenodd" d="M40.1387 29.6879H50.9115C52.0664 29.6879 53.0014 28.7511 53.0014 27.598V10.8582C53.0014 9.70423 52.0664 8.76831 50.9115 8.76831H40.1387V29.6879Z" stroke="url(#paint1_linear_2759_877)" stroke-width="4.13185" stroke-linecap="round" stroke-linejoin="round"/>
<path fill-rule="evenodd" clip-rule="evenodd" d="M14.8627 8.76807H4.08993C2.93504 8.76807 2 9.70487 2 10.858V27.5978C2 28.7518 2.93504 29.6877 4.08993 29.6877H14.8627V8.76807Z" stroke="url(#paint2_linear_2759_877)" stroke-width="4.13185" stroke-linecap="round" stroke-linejoin="round"/>
<defs>
<linearGradient id="paint0_linear_2759_877" x1="39.9089" y1="36.0566" x2="39.9089" y2="3" gradientUnits="userSpaceOnUse">
<stop stop-color="#79459A"/>
<stop offset="1" stop-color="#A76AC9"/>
</linearGradient>
<linearGradient id="paint1_linear_2759_877" x1="40.1387" y1="8.76831" x2="40.1387" y2="29.6879" gradientUnits="userSpaceOnUse">
<stop stop-color="#A669C8"/>
<stop offset="1" stop-color="#7B469C"/>
</linearGradient>
<linearGradient id="paint2_linear_2759_877" x1="19.8654" y1="29.6877" x2="19.8654" y2="8.76807" gradientUnits="userSpaceOnUse">
<stop stop-color="#7A459B"/>
<stop offset="1" stop-color="#A669C8"/>
</linearGradient>
</defs>
</svg>
