<svg width="112" height="112" xmlns="http://www.w3.org/2000/svg" xmlns:xlink="http://www.w3.org/1999/xlink"><defs><path id="a" d="M0 .53h111.47V112H0z"/></defs><g fill="none" fill-rule="evenodd"><g><mask id="b" fill="#fff"><use xlink:href="#a"/></mask><path d="M111.472 56.264c0 30.783-24.954 55.735-55.736 55.735C24.953 112 .001 87.047.001 56.264 0 25.482 24.953.53 55.736.53c30.782 0 55.736 24.952 55.736 55.734" fill="#FFB3A7" mask="url(#b)"/></g><path d="M78.086 79.5h-44.17C31.2 79.5 29 77.519 29 75.074V45.927c0-2.444 2.201-4.427 4.916-4.427h44.17C80.8 41.5 83 43.483 83 45.927v29.147c0 2.445-2.2 4.426-4.914 4.426zM68 41.5H44v-7.547c0-2.458 1.849-4.453 4.127-4.453H63.87c2.282 0 4.129 1.995 4.129 4.453V41.5z" stroke="#FFF" stroke-width="5" stroke-linecap="round" stroke-linejoin="round"/></g></svg>