<svg width="60" height="60" viewBox="0 0 60 60" fill="none" xmlns="http://www.w3.org/2000/svg">
<circle opacity="0.12" cx="30" cy="30" r="30" fill="white"/>
<rect width="60" height="60" rx="8" fill="white"/>
<path d="M42.0006 30.0006C42.0006 30.2658 41.8952 30.5201 41.7077 30.7077C41.5201 30.8952 41.2658 31.0006 41.0006 31.0006H30.0006C29.7353 31.0006 29.481 30.8952 29.2934 30.7077C29.1059 30.5201 29.0006 30.2658 29.0006 30.0006C29.0006 29.7353 29.1059 29.481 29.2934 29.2934C29.481 29.1059 29.7353 29.0006 30.0006 29.0006H41.0006C41.2658 29.0006 41.5201 29.1059 41.7077 29.2934C41.8952 29.481 42.0006 29.7353 42.0006 30.0006ZM30.0006 23.0006H41.0006C41.2658 23.0006 41.5201 22.8952 41.7077 22.7077C41.8952 22.5201 42.0006 22.2658 42.0006 22.0006C42.0006 21.7353 41.8952 21.481 41.7077 21.2934C41.5201 21.1059 41.2658 21.0006 41.0006 21.0006H30.0006C29.7353 21.0006 29.481 21.1059 29.2934 21.2934C29.1059 21.481 29.0006 21.7353 29.0006 22.0006C29.0006 22.2658 29.1059 22.5201 29.2934 22.7077C29.481 22.8952 29.7353 23.0006 30.0006 23.0006ZM41.0006 37.0006H30.0006C29.7353 37.0006 29.481 37.1059 29.2934 37.2934C29.1059 37.481 29.0006 37.7353 29.0006 38.0006C29.0006 38.2658 29.1059 38.5201 29.2934 38.7077C29.481 38.8952 29.7353 39.0006 30.0006 39.0006H41.0006C41.2658 39.0006 41.5201 38.8952 41.7077 38.7077C41.8952 38.5201 42.0006 38.2658 42.0006 38.0006C42.0006 37.7353 41.8952 37.481 41.7077 37.2934C41.5201 37.1059 41.2658 37.0006 41.0006 37.0006ZM24.2931 19.2931L21.0006 22.5868L19.7081 21.2931C19.5204 21.1054 19.2659 21 19.0006 21C18.7352 21 18.4807 21.1054 18.2931 21.2931C18.1054 21.4807 18 21.7352 18 22.0006C18 22.2659 18.1054 22.5204 18.2931 22.7081L20.2931 24.7081C20.3859 24.801 20.4962 24.8748 20.6176 24.9251C20.739 24.9754 20.8691 25.0013 21.0006 25.0013C21.132 25.0013 21.2621 24.9754 21.3835 24.9251C21.5049 24.8748 21.6152 24.801 21.7081 24.7081L25.7081 20.7081C25.8957 20.5204 26.0011 20.2659 26.0011 20.0006C26.0011 19.7352 25.8957 19.4807 25.7081 19.2931C25.5204 19.1054 25.2659 19 25.0006 19C24.7352 19 24.4807 19.1054 24.2931 19.2931ZM24.2931 27.2931L21.0006 30.5868L19.7081 29.2931C19.5204 29.1054 19.2659 29 19.0006 29C18.7352 29 18.4807 29.1054 18.2931 29.2931C18.1054 29.4807 18 29.7352 18 30.0006C18 30.132 18.0259 30.2621 18.0762 30.3835C18.1264 30.5048 18.2001 30.6151 18.2931 30.7081L20.2931 32.7081C20.3859 32.801 20.4962 32.8748 20.6176 32.9251C20.739 32.9754 20.8691 33.0013 21.0006 33.0013C21.132 33.0013 21.2621 32.9754 21.3835 32.9251C21.5049 32.8748 21.6152 32.801 21.7081 32.7081L25.7081 28.7081C25.8957 28.5204 26.0011 28.2659 26.0011 28.0006C26.0011 27.7352 25.8957 27.4807 25.7081 27.2931C25.5204 27.1054 25.2659 27 25.0006 27C24.7352 27 24.4807 27.1054 24.2931 27.2931ZM24.2931 35.2931L21.0006 38.5868L19.7081 37.2931C19.6151 37.2001 19.5048 37.1264 19.3835 37.0762C19.2621 37.0259 19.132 37 19.0006 37C18.8692 37 18.7391 37.0259 18.6177 37.0762C18.4963 37.1264 18.386 37.2001 18.2931 37.2931C18.2001 37.386 18.1264 37.4963 18.0762 37.6177C18.0259 37.7391 18 37.8692 18 38.0006C18 38.132 18.0259 38.2621 18.0762 38.3835C18.1264 38.5048 18.2001 38.6151 18.2931 38.7081L20.2931 40.7081C20.3859 40.801 20.4962 40.8748 20.6176 40.9251C20.739 40.9754 20.8691 41.0013 21.0006 41.0013C21.132 41.0013 21.2621 40.9754 21.3835 40.9251C21.5049 40.8748 21.6152 40.801 21.7081 40.7081L25.7081 36.7081C25.8957 36.5204 26.0011 36.2659 26.0011 36.0006C26.0011 35.7352 25.8957 35.4807 25.7081 35.2931C25.5204 35.1054 25.2659 35 25.0006 35C24.7352 35 24.4807 35.1054 24.2931 35.2931Z" fill="#00843D"/>
</svg>
