<svg width="112" height="110" viewBox="0 0 112 110" fill="none" xmlns="http://www.w3.org/2000/svg"><g clip-path="url(#a)"><path d="M-.254 22.28C-.254 10.002 9.698.05 21.976.05h67.541c12.277 0 22.229 9.953 22.229 22.23v65.83c0 12.277-9.952 22.229-22.229 22.229H21.975c-12.277 0-22.229-9.952-22.229-22.229z" fill="url(#b)"/><path fill="#fff" d="M52.754 59.042h35.908v26.504H52.754z"/><path d="M87.762 14.09a24.11 24.11 0 0 1-27.12 35.342 24.1 24.1 0 0 1-14.638-11.233l20.879-12.055z" fill="#FFDE9F"/><circle cx="28.391" cy="69.73" r="15.817" fill="#fff"/></g><defs><linearGradient id="b" x1="55.746" y1=".05" x2="55.746" y2="110.34" gradientUnits="userSpaceOnUse"><stop stop-color="#672BD1"/><stop offset="1" stop-color="#EC896C"/></linearGradient><clipPath id="a"><path fill="#fff" d="M0 0h112v110H0z"/></clipPath></defs></svg>
