<svg width="149" height="57" xmlns="http://www.w3.org/2000/svg" xmlns:xlink="http://www.w3.org/1999/xlink"><defs><path id="a" d="M0 0h126v11H0z"/><path id="c" d="M0 0h24.09v23.797H0z"/><path id="e" d="M0 0h24.09v23.797H0z"/></defs><g fill="none" fill-rule="evenodd"><g transform="translate(11 46)"><mask id="b" fill="#fff"><use xlink:href="#a"/></mask><path d="M126 5.5c0 3.037-28.206 5.5-63 5.5S0 8.537 0 5.5 28.206 0 63 0s63 2.463 63 5.5" fill="#D8D8D8" mask="url(#b)"/></g><path d="M145.997 38.313s3.12-2.015 3-4.622c-.12-2.608-.24-16.474-.24-16.474s-.72-3.436-4.32-3.674c-3.6-.237-11.28.356-27.36-7.94 0 0-8.52-5.451-16.92-5.57-8.4-.118-28.32.119-28.32.119s-9.12 1.422-17.64 8.058l-12.72 8.297s-32.399.355-39.479 9.243c0 0-1.44 2.015-1.8 6.281-.36 4.267-.12 8.889-.12 8.889s.48 3.792 4.8 4.03h121.68l19.439-6.637z" fill="#F5B66D"/><path d="M86.099 18.508c16.662-.07 27.7-.143 27.907-.143 1.178 0 .427-2.098.178-2.663-.552-1.254-1.553-2.1-2.716-2.843l-.197-.125c-4.577-2.845-10.782-5.879-16.372-5.954-2.304-.031-2.198-.1-8.516-.17m-4.745-.695c-8.354-.094-10.94-.186-10.94-.186s-5.856.9-11.326 5.094l-6.736 5.527s-2.36 2.295 3.835 2.152c0 0 9.175-.065 24.877-.134" fill="#DB9D55"/><path d="M3.946 36.576H0v-3.525h3.946c1.024 0 1.853.67 1.853 1.498v.53c0 .826-.83 1.497-1.853 1.497" fill="#F48DAB"/><path d="M144.432 13.661s.119 17.33-.305 17.955-.742 4.272-4.874 3.96c-4.132-.313-5.616-5.523-6.463-5.94-.848-.417-2.755-6.043-13.456-5.73-10.701.312-14.198 9.169-15.575 13.128 0 0-2.755 4.48-23.734 3.021 0 0-34.116 3.126-36.66-2.292-2.542-5.418-4.238-11.982-12.078-13.441-7.84-1.459-15.893.626-19.39 8.023-3.496 7.398-2.648 7.71-5.297 8.128-2.649.416-6.6.462-6.6.462s.675 3.698 4.803 4.014h104.254s25.322-.725 35.176-6.04c0 0 4.966-1.81 4.76-5.177-.204-3.367-.24-16.41-.24-16.41s-.494-1.96-1.341-2.482c-.848-.52-2.98-1.179-2.98-1.179" fill="#DB9D55"/><g transform="matrix(-1 0 0 1 131.602 28.203)"><mask id="d" fill="#fff"><use xlink:href="#c"/></mask><path d="M24.09 11.898c0 6.572-5.393 11.899-12.045 11.899S0 18.47 0 11.898C0 5.327 5.393 0 12.045 0S24.09 5.327 24.09 11.898" fill="#69459F" mask="url(#d)"/></g><path d="M112.865 40.322c0 4.016 3.296 7.271 7.36 7.271 4.066 0 7.362-3.255 7.362-7.271s-3.296-7.271-7.361-7.271c-4.065 0-7.36 3.255-7.36 7.271" fill="#DAD8DB"/><path d="M118.219 40.322c0 1.096.899 1.983 2.007 1.983 1.11 0 2.008-.887 2.008-1.983 0-1.095-.899-1.983-2.008-1.983-1.108 0-2.007.888-2.007 1.983" fill="#ECEAEC"/><g transform="matrix(-1 0 0 1 37.92 28.203)"><mask id="f" fill="#fff"><use xlink:href="#e"/></mask><path d="M24.09 11.898c0 6.572-5.393 11.899-12.045 11.899S0 18.47 0 11.898C0 5.327 5.393 0 12.045 0S24.09 5.327 24.09 11.898" fill="#69459F" mask="url(#f)"/></g><path d="M18.29 40.322c0 4.016 3.296 7.271 7.36 7.271 4.066 0 7.362-3.255 7.362-7.271s-3.296-7.271-7.361-7.271c-4.065 0-7.36 3.255-7.36 7.271" fill="#DAD8DB"/><path d="M23.644 40.322c0 1.096.899 1.983 2.007 1.983 1.11 0 2.008-.887 2.008-1.983 0-1.095-.899-1.983-2.008-1.983-1.108 0-2.007.888-2.007 1.983" fill="#ECEAEC"/><path d="M144.18 26H149v-7.05h-4.82c-1.526 0-2.764 1.175-2.764 2.625v1.798c0 1.451 1.238 2.627 2.765 2.627" fill="#FC789E"/><path d="M80.3 5.908c-7.848-.09-10.277-.18-10.277-.18s-5.5.869-10.64 4.92l-6.327 5.336s-2.218 2.216 3.602 2.078c0 0 8.618-.063 23.37-.13m6.071-.305c16.141-.07 26.835-.143 27.035-.143 1.141 0 .414-2.099.172-2.664-.535-1.253-1.504-2.099-2.63-2.843a21.63 21.63 0 0 0-.191-.124c-4.435-2.846-10.446-5.88-15.862-5.954-2.231-.032-2.128-.102-8.249-.17" fill="#B5F4FC"/><path fill="#DB9D55" d="M86.991 18.068h-1.338V5.833h1.338z"/></g></svg>