<svg width="80" height="80" xmlns="http://www.w3.org/2000/svg"><defs><linearGradient x1="20.096%" y1="8.708%" x2="72.671%" y2="93.715%" id="a"><stop stop-color="#F6CC6E" offset="0%"/><stop stop-color="#FDE3A8" offset="51.843%"/><stop stop-color="#F6CC6E" offset="100%"/></linearGradient></defs><g fill="none" fill-rule="evenodd"><circle fill="#C3AA7E" opacity=".1" cx="39" cy="39" r="39"/><path d="M44.102 31.626v2.402H47v2.263h-2.983c-.227 1.676-.942 2.943-2.146 3.799-1.202.856-3.034 1.284-5.496 1.284v1.76c0 1.937.815 2.906 2.443 2.906.795 0 1.388-.243 1.776-.727.388-.484.582-1.21.582-2.18h3.722c-.077 1.845-.616 3.284-1.62 4.317C42.275 48.483 40.846 49 38.99 49c-2.065 0-3.642-.535-4.73-1.605-1.09-1.071-1.634-2.678-1.634-4.82v-3.77c2.064 0 3.608-.06 4.631-.183 1.022-.12 1.757-.357 2.202-.71.444-.354.724-.895.837-1.621H32v-2.263h8.352v-2.402H32V29h15v2.626h-2.898Z" fill="#F6CD70"/><path d="M38 19c0 10.494-8.506 19-19 19S0 29.494 0 19 8.506 0 19 0s19 8.506 19 19Z" stroke="url(#a)" stroke-width="3" stroke-linecap="round" stroke-linejoin="round" transform="translate(20 20)"/><circle stroke="#F6CC6E" cx="40" cy="40" r="39"/></g></svg>