<svg width="39" height="39" xmlns="http://www.w3.org/2000/svg" xmlns:xlink="http://www.w3.org/1999/xlink"><defs><linearGradient x1="27.129%" y1="0%" x2="50%" y2="92.226%" id="b"><stop stop-color="#77CEE2" offset="0%"/><stop stop-color="#7057A0" offset="100%"/></linearGradient><path id="a" d="M0 0h39v39H0z"/></defs><g fill="none" fill-rule="evenodd"><mask id="c" fill="#fff"><use xlink:href="#a"/></mask><path d="M4.34 4.303L16.68 34.231l2.006-12.926a3.875 3.875 0 012.992-3.196l12.577-2.85L4.339 4.304zm8.835 32.286L.3 5.369a3.825 3.825 0 01.802-4.173A3.868 3.868 0 015.26.246l31.184 11.42a3.86 3.86 0 012.548 3.898 3.866 3.866 0 01-3.03 3.54l-13.205 2.99-2.113 13.612c-.27 1.745-1.636 3.058-3.398 3.266-.16.02-.319.028-.477.028a3.862 3.862 0 01-3.594-2.411z" fill="url(#b)" mask="url(#c)"/></g></svg>