<svg width="60" height="60" viewBox="0 0 60 60" fill="none" xmlns="http://www.w3.org/2000/svg">
<circle opacity="0.2" cx="30" cy="30" r="30" fill="#5F259F"/>
<rect width="60" height="60" rx="8" fill="#5F259F"/>
<path d="M28.6588 33.7401C29.999 32.8479 31.0165 31.548 31.5609 30.0327C32.1052 28.5174 32.1475 26.8671 31.6814 25.326C31.2153 23.7848 30.2656 22.4346 28.9728 21.4749C27.68 20.5152 26.1126 19.9971 24.5025 19.9971C22.8924 19.9971 21.3251 20.5152 20.0322 21.4749C18.7394 22.4346 17.7897 23.7848 17.3236 25.326C16.8575 26.8671 16.8998 28.5174 17.4441 30.0327C17.9885 31.548 19.006 32.8479 20.3463 33.7401C17.9219 34.6337 15.8514 36.2872 14.4438 38.4539C14.3698 38.5638 14.3184 38.6874 14.2926 38.8174C14.2668 38.9474 14.2671 39.0812 14.2934 39.2111C14.3198 39.3409 14.3717 39.4643 14.4462 39.5739C14.5206 39.6835 14.6161 39.7773 14.7271 39.8497C14.8381 39.9221 14.9624 39.9717 15.0928 39.9956C15.2231 40.0196 15.3569 40.0174 15.4864 39.9892C15.6159 39.9609 15.7385 39.9073 15.847 39.8312C15.9556 39.7552 16.0479 39.6584 16.1188 39.5464C17.0267 38.1498 18.2692 37.0023 19.7333 36.2078C21.1974 35.4134 22.8368 34.9973 24.5025 34.9973C26.1682 34.9973 27.8076 35.4134 29.2717 36.2078C30.7358 37.0023 31.9783 38.1498 32.8863 39.5464C33.0329 39.7644 33.2595 39.9159 33.517 39.9681C33.7745 40.0204 34.0422 39.9692 34.2622 39.8257C34.4823 39.6822 34.637 39.4578 34.693 39.2011C34.749 38.9444 34.7016 38.676 34.5613 38.4539C33.1536 36.2872 31.0831 34.6337 28.6588 33.7401ZM19.0025 27.5001C19.0025 26.4123 19.3251 25.3489 19.9294 24.4445C20.5338 23.54 21.3928 22.8351 22.3977 22.4188C23.4027 22.0025 24.5086 21.8936 25.5755 22.1058C26.6424 22.318 27.6224 22.8418 28.3916 23.611C29.1608 24.3802 29.6846 25.3602 29.8968 26.4271C30.109 27.494 30.0001 28.5999 29.5838 29.6049C29.1676 30.6099 28.4626 31.4688 27.5581 32.0732C26.6537 32.6775 25.5903 33.0001 24.5025 33.0001C23.0443 32.9985 21.6463 32.4185 20.6152 31.3874C19.5842 30.3563 19.0042 28.9583 19.0025 27.5001ZM45.27 39.8376C45.0479 39.9825 44.7773 40.0331 44.5178 39.9785C44.2583 39.9239 44.0311 39.7685 43.8863 39.5464C42.9794 38.149 41.7371 37.0009 40.2727 36.2068C38.8083 35.4127 37.1684 34.9979 35.5025 35.0001C35.2373 35.0001 34.9829 34.8948 34.7954 34.7072C34.6079 34.5197 34.5025 34.2653 34.5025 34.0001C34.5025 33.7349 34.6079 33.4805 34.7954 33.293C34.9829 33.1055 35.2373 33.0001 35.5025 33.0001C36.3125 32.9993 37.1123 32.8197 37.8447 32.474C38.5772 32.1283 39.2243 31.6251 39.7398 31.0003C40.2552 30.3756 40.6264 29.6447 40.8266 28.8598C41.0268 28.075 41.0513 27.2557 40.8981 26.4603C40.745 25.6649 40.4181 24.9132 39.9408 24.2589C39.4634 23.6045 38.8475 23.0636 38.1369 22.6749C37.4263 22.2862 36.6386 22.0592 35.8302 22.0102C35.0217 21.9612 34.2123 22.0913 33.46 22.3914C33.3373 22.4444 33.2053 22.4723 33.0717 22.4734C32.938 22.4746 32.8055 22.4489 32.682 22.3979C32.5584 22.347 32.4463 22.2718 32.3523 22.1768C32.2584 22.0818 32.1844 21.9689 32.1347 21.8449C32.0851 21.7208 32.0608 21.588 32.0634 21.4544C32.0659 21.3208 32.0952 21.189 32.1496 21.0669C32.2039 20.9448 32.2821 20.8349 32.3797 20.7435C32.4772 20.6522 32.5921 20.5813 32.7175 20.5351C34.4393 19.8484 36.3545 19.8237 38.0934 20.4657C39.8324 21.1078 41.272 22.3711 42.1345 24.0119C42.997 25.6527 43.2213 27.5548 42.7641 29.3513C42.3069 31.1477 41.2007 32.7112 39.6588 33.7401C42.0831 34.6337 44.1536 36.2872 45.5613 38.4539C45.7061 38.676 45.7568 38.9466 45.7022 39.2061C45.6476 39.4655 45.4921 39.6927 45.27 39.8376Z" fill="white"/>
</svg>
