<svg width="193" height="87" xmlns="http://www.w3.org/2000/svg"><defs><linearGradient x1="100%" y1="24.286%" x2="50%" y2="69.358%" id="a"><stop stop-color="#F6CC6E" offset="0%"/><stop stop-color="#FFECBB" offset="45.489%"/><stop stop-color="#F6CC6E" offset="100%"/></linearGradient><linearGradient x1="100%" y1="23.602%" x2="50%" y2="69.872%" id="b"><stop stop-color="#F6CC6E" offset="0%"/><stop stop-color="#FFECBB" offset="45.489%"/><stop stop-color="#F6CC6E" offset="100%"/></linearGradient></defs><g fill="none" fill-rule="evenodd"><path fill="#C4A154" d="M108.619 31 43 28.978 63.683 0 124 .933z"/><path fill="#B49246" d="M87.619 60 22 57.978 42.683 29l60.317.933z"/><path fill="#C4A154" d="M65.619 87 0 84.978 20.683 56 81 56.933z"/><path fill="url(#a)" d="M108 30h45L139.5 2h-15zM86 58h45l-13.5-28h-15z"/><path fill="url(#a)" d="M127 58h45l-13.5-28h-15z"/><path fill="url(#b)" d="M65 87h46L97.2 58H81.867z"/><path fill="url(#b)" d="M107 87h46l-13.8-29h-15.333z"/><path fill="url(#b)" d="M147 87h46l-13.8-29h-15.333z"/></g></svg>