<svg width="72" height="72" viewBox="0 0 72 72" fill="none" xmlns="http://www.w3.org/2000/svg">
<rect width="72" height="72" rx="8.64" fill="#FF6900"/>
<path d="M45 15H27C25.8065 15 24.6619 15.4741 23.818 16.318C22.9741 17.1619 22.5 18.3065 22.5 19.5V52.5C22.5 53.6935 22.9741 54.8381 23.818 55.682C24.6619 56.5259 25.8065 57 27 57H45C46.1935 57 47.3381 56.5259 48.182 55.682C49.0259 54.8381 49.5 53.6935 49.5 52.5V19.5C49.5 18.3065 49.0259 17.1619 48.182 16.318C47.3381 15.4741 46.1935 15 45 15ZM25.5 24H46.5V48H25.5V24ZM27 18H45C45.3978 18 45.7794 18.158 46.0607 18.4393C46.342 18.7206 46.5 19.1022 46.5 19.5V21H25.5V19.5C25.5 19.1022 25.658 18.7206 25.9393 18.4393C26.2206 18.158 26.6022 18 27 18ZM45 54H27C26.6022 54 26.2206 53.842 25.9393 53.5607C25.658 53.2794 25.5 52.8978 25.5 52.5V51H46.5V52.5C46.5 52.8978 46.342 53.2794 46.0607 53.5607C45.7794 53.842 45.3978 54 45 54Z" fill="white"/>
</svg>
