<svg width="60" height="60" viewBox="0 0 60 60" fill="none" xmlns="http://www.w3.org/2000/svg">
<circle opacity="0.12" cx="30" cy="30" r="30" fill="white"/>
<rect width="60" height="60" rx="8" fill="white"/>
<path d="M31.0007 23.9998V29.4335L35.5157 32.1423C35.7432 32.2789 35.907 32.5002 35.9713 32.7576C36.0355 33.015 35.9948 33.2874 35.8582 33.5148C35.7217 33.7422 35.5003 33.9061 35.2429 33.9703C34.9855 34.0345 34.7132 33.9939 34.4857 33.8573L29.4857 30.8573C29.3378 30.7684 29.2153 30.6427 29.1303 30.4924C29.0453 30.3421 29.0007 30.1724 29.0007 29.9998V23.9998C29.0007 23.7346 29.1061 23.4802 29.2936 23.2927C29.4812 23.1052 29.7355 22.9998 30.0007 22.9998C30.266 22.9998 30.5203 23.1052 30.7079 23.2927C30.8954 23.4802 31.0007 23.7346 31.0007 23.9998ZM42.0007 20.9998C41.7355 20.9998 41.4812 21.1052 41.2936 21.2927C41.1061 21.4802 41.0007 21.7346 41.0007 21.9998V24.2498C40.207 23.3298 39.397 22.4435 38.4857 21.521C36.8181 19.8532 34.6959 18.7137 32.3843 18.2451C30.0727 17.7765 27.6743 17.9994 25.4887 18.8861C23.3032 19.7728 21.4273 21.2839 20.0957 23.2306C18.764 25.1773 18.0355 27.4732 18.0013 29.8316C17.967 32.1899 18.6285 34.5061 19.9031 36.4906C21.1776 38.4752 23.0088 40.0401 25.1677 40.9899C27.3266 41.9397 29.7175 42.2322 32.0417 41.8309C34.3659 41.4296 36.5203 40.3523 38.2357 38.7335C38.3313 38.6433 38.4081 38.535 38.4618 38.4151C38.5155 38.2951 38.5451 38.1657 38.5488 38.0343C38.5525 37.9029 38.5303 37.7721 38.4835 37.6493C38.4366 37.5265 38.366 37.4141 38.2757 37.3185C38.1855 37.223 38.0772 37.1462 37.9573 37.0925C37.8373 37.0388 37.7079 37.0092 37.5765 37.0055C37.4451 37.0018 37.3143 37.024 37.1915 37.0708C37.0687 37.1177 36.9563 37.1883 36.8607 37.2785C35.4308 38.6261 33.6355 39.5226 31.6992 39.856C29.7628 40.1894 27.7711 39.945 25.9728 39.1532C24.1745 38.3614 22.6493 37.0574 21.5876 35.4041C20.526 33.7507 19.975 31.8212 20.0034 29.8565C20.0318 27.8918 20.6384 25.979 21.7473 24.357C22.8563 22.735 24.4186 21.4756 26.239 20.7362C28.0594 19.9967 30.0574 19.81 31.9833 20.1992C33.9093 20.5884 35.6779 21.5364 37.0682 22.9248C38.0857 23.9548 38.977 24.9473 39.8757 25.9998H37.0007C36.7355 25.9998 36.4812 26.1052 36.2936 26.2927C36.1061 26.4802 36.0007 26.7346 36.0007 26.9998C36.0007 27.265 36.1061 27.5194 36.2936 27.7069C36.4812 27.8944 36.7355 27.9998 37.0007 27.9998H42.0007C42.266 27.9998 42.5203 27.8944 42.7079 27.7069C42.8954 27.5194 43.0007 27.265 43.0007 26.9998V21.9998C43.0007 21.7346 42.8954 21.4802 42.7079 21.2927C42.5203 21.1052 42.266 20.9998 42.0007 20.9998Z" fill="#FF6900"/>
</svg>
