<svg width="134" height="371" viewBox="0 0 134 371" fill="none" xmlns="http://www.w3.org/2000/svg">
<path d="M120.387 307.618C120.387 315.811 118.836 323.924 115.823 331.493C112.809 339.063 108.393 345.94 102.825 351.734C97.2577 357.527 90.648 362.122 83.3736 365.258C76.0991 368.393 68.3025 370.007 60.4287 370.007C52.5549 370.007 44.7582 368.393 37.4837 365.258C30.2093 362.122 23.5996 357.527 18.032 351.734C12.4644 345.94 8.0479 339.063 5.03473 331.493C2.02156 323.924 0.470702 315.811 0.470703 307.618L60.4287 307.618H120.387Z" fill="#D6B9A6"/>
<path d="M121.36 302.569C121.36 310.117 119.873 317.59 116.985 324.563C114.097 331.536 109.863 337.871 104.526 343.208C99.1897 348.545 92.8541 352.778 85.8813 355.666C78.9085 358.555 71.4351 360.041 63.8878 360.041C56.3405 360.041 48.8671 358.555 41.8943 355.666C34.9215 352.778 28.5859 348.545 23.2491 343.208C17.9124 337.871 13.679 331.536 10.7908 324.563C7.90257 317.59 6.41601 310.117 6.41602 302.569L63.8878 302.569H121.36Z" fill="#F06B55"/>
<mask id="mask0_401_16198" style="mask-type:alpha" maskUnits="userSpaceOnUse" x="6" y="302" width="116" height="59">
<path d="M121.36 302.569C121.36 310.117 119.873 317.59 116.985 324.563C114.097 331.536 109.863 337.871 104.526 343.208C99.1897 348.545 92.8541 352.778 85.8813 355.666C78.9085 358.555 71.4351 360.041 63.8878 360.041C56.3405 360.041 48.8671 358.555 41.8943 355.666C34.9215 352.778 28.5859 348.545 23.2491 343.208C17.9124 337.871 13.679 331.536 10.7908 324.563C7.90257 317.59 6.41601 310.117 6.41602 302.569L63.8878 302.569H121.36Z" fill="#F06B55"/>
</mask>
<g mask="url(#mask0_401_16198)">
<circle cx="13.4124" cy="307.747" r="2.67416" fill="#33265D"/>
<circle cx="25.8265" cy="307.747" r="2.67416" fill="#33265D"/>
<circle cx="38.2406" cy="307.747" r="2.67416" fill="#695E98"/>
<circle cx="50.6546" cy="307.747" r="2.67416" fill="#695E98"/>
<circle cx="63.0677" cy="307.747" r="2.67416" fill="white"/>
<circle cx="75.4818" cy="307.747" r="2.67416" fill="#33265D"/>
<circle cx="87.8958" cy="307.747" r="2.67416" fill="#33265D"/>
<circle cx="100.31" cy="307.747" r="2.67416" fill="white"/>
<circle cx="112.724" cy="307.747" r="2.67416" fill="#695E98"/>
<rect x="5.79297" y="313.272" width="114.551" height="1.31863" fill="#40336C"/>
<rect x="5.79297" y="330.225" width="114.551" height="6.59287" fill="#40336C"/>
</g>
<path d="M7.44824 303.996L62.6397 201.789M62.6397 201.789V0.442871M62.6397 201.789L120.386 303.996" stroke="#2A1D57" stroke-width="2.16477"/>
<circle cx="34.2228" cy="175.561" r="5.48842" fill="#695E98"/>
<circle cx="34.2228" cy="217.559" r="5.48842" fill="#695E98"/>
<circle cx="34.2228" cy="266.473" r="5.48842" fill="#695E98"/>
<path d="M95.9704 194.352C95.9788 194.706 95.9959 195.032 96.0198 195.324C95.8144 195.151 95.7604 194.834 95.9704 194.352C95.8753 190.349 96.8912 182.704 101.755 177.678C108.372 170.84 123.592 167.973 133.077 147.9C133.886 155.253 131.268 172.252 114.328 181.428C101.028 188.632 96.7375 192.592 95.9704 194.352Z" fill="#2A1D57"/>
<path d="M95.9704 223.024C95.9788 223.378 95.9959 223.704 96.0198 223.997C95.8144 223.823 95.7604 223.506 95.9704 223.024C95.8753 219.021 96.8912 211.376 101.755 206.351C108.372 199.513 123.592 196.645 133.077 176.572C133.886 183.925 131.268 200.924 114.328 210.1C101.028 217.305 96.7375 221.264 95.9704 223.024Z" fill="#2A1D57"/>
<path d="M95.9704 303.024C95.9788 303.378 95.9959 303.704 96.0198 303.996C95.8144 303.823 95.7604 303.506 95.9704 303.024C95.8753 299.02 96.8912 291.376 101.755 286.35C108.372 279.512 123.592 276.645 133.077 256.572C133.886 263.924 131.268 280.924 114.328 290.1C101.028 297.304 96.7375 301.263 95.9704 303.024Z" fill="#2A1D57"/>
<path d="M95.9704 257.083C95.9788 257.437 95.9959 257.763 96.0198 258.056C95.8144 257.882 95.7604 257.565 95.9704 257.083C95.8753 253.08 96.8912 245.435 101.755 240.41C108.372 233.572 123.592 230.704 133.077 210.631C133.886 217.984 131.268 234.983 114.328 244.16C101.028 251.364 96.7375 255.323 95.9704 257.083Z" fill="#53C1C0"/>
<path d="M89.6361 232.588C89.6277 232.942 89.6106 233.268 89.5867 233.561C89.7921 233.387 89.8461 233.07 89.6361 232.588C89.7311 228.585 88.7152 220.94 83.8516 215.914C77.2342 209.077 62.0142 206.209 52.5293 186.136C51.7205 193.489 54.338 210.488 71.2786 219.664C84.5788 226.869 88.869 230.828 89.6361 232.588Z" fill="#2A1D57"/>
<path d="M89.6361 293.835C89.6277 294.189 89.6106 294.515 89.5867 294.807C89.7921 294.634 89.8461 294.317 89.6361 293.835C89.7311 289.831 88.7152 282.187 83.8516 277.161C77.2342 270.323 62.0142 267.456 52.5293 247.383C51.7205 254.735 54.338 271.735 71.2786 280.911C84.5788 288.115 88.869 292.074 89.6361 293.835Z" fill="#2A1D57"/>
<path d="M89.6361 260.197C89.6277 260.551 89.6106 260.876 89.5867 261.169C89.7921 260.995 89.8461 260.678 89.6361 260.197C89.7311 256.193 88.7152 248.549 83.8516 243.523C77.2342 236.685 62.0142 233.817 52.5293 213.745C51.7205 221.097 54.338 238.097 71.2786 247.273C84.5788 254.477 88.869 258.436 89.6361 260.197Z" fill="#53C1C0"/>
<path d="M92.3506 151.755V303.198" stroke="#2A1D57" stroke-width="2.16477"/>
<circle cx="92.3501" cy="147.9" r="6.17826" fill="#2A1D57"/>
<circle cx="74.6079" cy="181.009" r="6.17826" fill="#2A1D57"/>
<circle cx="109.465" cy="267.347" r="6.17826" fill="#2A1D57"/>
<circle cx="92.3505" cy="131.694" r="4.53698" fill="#2A1D57"/>
<circle cx="92.3501" cy="119.813" r="3.1108" fill="#2A1D57"/>
<circle cx="92.3499" cy="108.566" r="2.3187" fill="#2A1D57"/>
</svg>
