<svg width="510" height="604" viewBox="0 0 510 604" fill="none" xmlns="http://www.w3.org/2000/svg">
<g clip-path="url(#clip0_1924_4026)">
<path d="M129.35 173.126C110.865 157.55 101.983 156.179 85.3412 156.826L58.4468 156.795L-244.533 503.821V581.43L293.917 571.714L397.106 369.248L455.422 341.952L410.518 352.625L373.833 341.952L455.422 257.348L451.809 236.694H424.709L451.809 213.194L404.385 210.032L424.709 196.934L455.422 175.008L410.518 171.496L386.021 154.654L351.518 171.496L282.931 154.654L260.418 175.008L240.989 154.654L213.234 170.999L149.088 156.795L129.35 173.126Z" fill="#F06B55"/>
<path d="M97.4337 155.652C104.732 155.652 111.291 156.945 117.112 159.532C122.932 162.119 127.505 165.999 130.831 171.173C134.157 176.254 135.819 182.49 135.819 189.88C135.819 197.179 134.11 203.415 130.692 208.588C127.366 213.762 122.793 217.688 116.973 220.367C111.245 222.954 104.732 224.247 97.4337 224.247H81.2202V256.813H58.3551V155.652H97.4337ZM96.0479 203.461C100.852 203.461 104.732 202.352 107.688 200.135C110.737 197.918 112.261 194.5 112.261 189.88C112.261 185.446 110.737 182.12 107.688 179.903C104.732 177.686 100.852 176.577 96.0479 176.577H81.2202V203.461H96.0479ZM204.024 256.813L183.238 220.922H172.567V256.813H149.702V155.652H190.166C197.465 155.652 204.024 156.899 209.844 159.394C215.664 161.796 220.238 165.445 223.563 170.341C226.889 175.238 228.552 181.196 228.552 188.218C228.552 195.885 226.566 202.306 222.593 207.48C218.713 212.561 213.355 216.21 206.518 218.427L229.384 256.813H204.024ZM172.567 175.884V200.828H190.166C194.508 200.828 198.065 199.766 200.837 197.641C203.608 195.516 204.994 192.375 204.994 188.218C204.994 184.06 203.608 180.965 200.837 178.933C198.065 176.9 194.508 175.884 190.166 175.884H172.567ZM241.184 155.652H264.049V256.813H241.184V155.652ZM319.021 155.652C328.629 155.652 337.359 157.869 345.212 162.304C353.065 166.738 359.254 172.836 363.781 180.596C368.4 188.264 370.71 196.855 370.71 206.371C370.71 215.887 368.4 224.478 363.781 232.146C359.254 239.814 353.065 245.865 345.212 250.3C337.359 254.642 328.629 256.813 319.021 256.813H283.407V155.652H319.021ZM319.021 236.026C324.195 236.026 328.814 234.825 332.879 232.423C336.944 230.022 340.131 226.603 342.44 222.169C344.75 217.734 345.905 212.468 345.905 206.371C345.905 200.274 344.75 195.008 342.44 190.573C340.131 186.047 336.944 182.582 332.879 180.18C328.814 177.778 324.195 176.577 319.021 176.577H306.272V236.026H319.021ZM455.967 155.652V176.577H408.851V194.592H451.948V215.379H408.851V236.026H455.967V256.813H385.986V155.652H455.967Z" fill="white"/>
<path d="M-203.99 515.216L25.5067 258.619L316.19 258.615L106.923 515.216L7.55029 480.609L-146.436 649.319L-203.99 515.216Z" fill="url(#paint0_linear_1924_4026)"/>
<path d="M161.131 348.365L245.848 277.93C265.634 270.336 276.735 268.077 296.653 283.879L291.3 316.757L280.098 326.121V331.829L257.265 362.655L156.797 384.917L161.131 348.365Z" fill="#B23E2A"/>
<path d="M404.271 348.299L369.99 340.191L361.361 351.005V339.772L326.109 340.191L309.405 351.005L304.089 340.191L288.767 351.005L273.42 340.173L259.528 352.531L239.788 339.772L233.131 340.173L230.424 340.986L206.507 353.909L195.834 340.173L177.375 352.531V340.986L166.234 340.173L153.637 351.005L144.061 340.986L117.913 339.772L-129.201 620.94L-140.696 703.203C-143.573 723.79 -127.584 742.169 -106.796 742.169H144.061L451.705 390.04L428.682 382.631L449.629 370.505L431.35 361.29L451.705 350.785L416.234 340.242L404.271 348.299Z" fill="#FCB66E"/>
<path d="M119.774 391.76L-141.818 694.258L150.087 698.572L424.201 394.468L357.372 390.321H250.202L238.975 392.373L194.824 391.5H176.638V366.114L171.15 391.5L166.106 340.188L155.519 349.8L150.087 361.78L131.839 371.392L131.077 391.451L119.774 391.76Z" fill="url(#paint1_linear_1924_4026)"/>
<path d="M139.47 340.183C143.184 340.183 146.521 340.842 149.483 342.158C152.445 343.474 154.772 345.448 156.464 348.081C158.156 350.667 159.002 353.84 159.002 357.601C159.002 361.314 158.133 364.487 156.393 367.12C154.701 369.753 152.374 371.751 149.412 373.114C146.498 374.43 143.184 375.088 139.47 375.088H131.22V391.659H119.585V340.183H139.47ZM138.765 364.511C141.209 364.511 143.184 363.947 144.688 362.819C146.239 361.69 147.015 359.951 147.015 357.601C147.015 355.344 146.239 353.652 144.688 352.523C143.184 351.395 141.209 350.831 138.765 350.831H131.22V364.511H138.765ZM195.471 359.293V340.183H207.106V391.659H195.471V369.941H177.702V391.659H166.067V340.183H177.702V359.293H195.471ZM252.989 388.98C249.134 391.236 244.856 392.364 240.155 392.364C235.454 392.364 231.176 391.236 227.321 388.98C223.467 386.676 220.411 383.503 218.154 379.46C215.945 375.417 214.84 370.904 214.84 365.921C214.84 360.938 215.945 356.449 218.154 352.453C220.411 348.41 223.467 345.237 227.321 342.933C231.176 340.63 235.454 339.478 240.155 339.478C244.856 339.478 249.134 340.63 252.989 342.933C256.844 345.237 259.876 348.41 262.085 352.453C264.342 356.449 265.47 360.938 265.47 365.921C265.47 370.904 264.342 375.417 262.085 379.46C259.876 383.503 256.844 386.676 252.989 388.98ZM233.597 379.813C235.525 381.082 237.711 381.717 240.155 381.717C242.6 381.717 244.762 381.082 246.642 379.813C248.57 378.543 250.074 376.734 251.155 374.383C252.237 371.986 252.777 369.165 252.777 365.921C252.777 362.678 252.237 359.881 251.155 357.53C250.074 355.133 248.57 353.299 246.642 352.03C244.762 350.714 242.6 350.055 240.155 350.055C237.711 350.055 235.525 350.69 233.597 351.959C231.67 353.229 230.165 355.062 229.084 357.46C228.003 359.857 227.462 362.678 227.462 365.921C227.462 369.165 228.003 371.986 229.084 374.383C230.165 376.734 231.67 378.543 233.597 379.813ZM273.216 340.183H284.146L297.191 359.928C300.247 364.534 302.738 368.624 304.666 372.197C304.195 367.59 303.96 363.5 303.96 359.928V340.183H315.595V391.659H304.666L292.467 373.184C288.565 367.12 285.744 362.678 284.005 359.857C284.569 364.793 284.851 369.165 284.851 372.973V391.659H273.216V340.183ZM361.092 340.183V350.831H337.117V359.998H359.047V370.575H337.117V381.082H361.092V391.659H325.482V340.183H361.092ZM389.439 340.183C393.153 340.183 396.491 340.842 399.452 342.158C402.414 343.474 404.741 345.448 406.433 348.081C408.126 350.667 408.972 353.84 408.972 357.601C408.972 361.314 408.102 364.487 406.363 367.12C404.67 369.753 402.343 371.751 399.382 373.114C396.467 374.43 393.153 375.088 389.439 375.088H381.189V391.659H369.554V340.183H389.439ZM388.734 364.511C391.179 364.511 393.153 363.947 394.657 362.819C396.209 361.69 396.984 359.951 396.984 357.601C396.984 355.344 396.209 353.652 394.657 352.523C393.153 351.395 391.179 350.831 388.734 350.831H381.189V364.511H388.734ZM451.646 340.183V350.831H427.671V359.998H449.601V370.575H427.671V381.082H451.646V391.659H416.036V340.183H451.646Z" fill="white"/>
<path d="M232.488 309.204L255.129 289.032L249.945 308.113L261.554 314.369L271.279 309.62L291.104 316.857L282.511 324.245C274.791 327.105 271.559 329.226 258.295 329.226C245.032 329.226 232.488 309.204 232.488 309.204Z" fill="#822516"/>
<path d="M280.087 308.502C279.926 309.145 279.846 309.761 279.846 310.35C279.846 311.903 280.595 312.68 282.095 312.68C283.541 312.68 285.095 312.037 286.755 310.752C288.469 309.466 289.888 307.619 291.013 305.208C292.191 302.744 292.781 299.933 292.781 296.772C292.781 292.916 291.87 289.542 290.049 286.649C288.281 283.703 285.737 281.427 282.417 279.82C279.096 278.16 275.159 277.33 270.606 277.33C265.089 277.33 259.894 278.588 255.02 281.106C250.199 283.57 246.316 287.078 243.37 291.63C240.478 296.183 239.032 301.379 239.032 307.217C239.032 311.341 239.996 315.01 241.924 318.224C243.852 321.384 246.584 323.821 250.119 325.535C253.654 327.302 257.752 328.186 262.411 328.186C265.679 328.186 268.839 327.892 271.892 327.302C274.945 326.767 277.623 325.937 279.926 324.812V332.123C274.356 334.265 268.223 335.337 261.528 335.337C255.475 335.337 250.092 334.185 245.379 331.882C240.719 329.579 237.104 326.365 234.533 322.241C231.962 318.063 230.676 313.296 230.676 307.94C230.676 300.334 232.551 293.693 236.3 288.015C240.103 282.284 245.111 277.892 251.324 274.839C257.591 271.786 264.313 270.26 271.49 270.26C277.489 270.26 282.711 271.358 287.157 273.554C291.656 275.696 295.111 278.749 297.521 282.713C299.931 286.623 301.136 291.122 301.136 296.21C301.136 301.405 300.011 305.878 297.762 309.627C295.512 313.376 292.7 316.215 289.326 318.143C285.952 320.018 282.604 320.955 279.283 320.955C276.444 320.955 274.168 320.393 272.454 319.268C270.794 318.09 269.749 316.403 269.321 314.207C267.607 315.76 265.652 317.072 263.456 318.143C261.313 319.215 259.251 319.75 257.269 319.75C254.109 319.75 251.565 318.679 249.637 316.537C247.709 314.34 246.745 311.395 246.745 307.699C246.745 302.396 247.896 297.951 250.199 294.362C252.503 290.72 255.502 288.015 259.198 286.248C262.893 284.48 266.857 283.596 271.088 283.596C273.284 283.596 275.614 283.891 278.078 284.48C280.542 285.016 282.765 285.766 284.746 286.73L280.087 308.502ZM257.993 305.69C257.993 307.458 258.314 308.797 258.957 309.707C259.653 310.564 260.51 310.993 261.528 310.993C262.706 310.993 263.911 310.672 265.143 310.029C266.375 309.386 267.848 308.422 269.562 307.136L272.775 292.595C271.919 292.434 271.008 292.354 270.044 292.354C267.58 292.354 265.438 292.996 263.617 294.282C261.795 295.514 260.403 297.174 259.439 299.263C258.475 301.298 257.993 303.441 257.993 305.69Z" fill="white"/>
</g>
<defs>
<linearGradient id="paint0_linear_1924_4026" x1="73.871" y1="254.374" x2="73.871" y2="511.538" gradientUnits="userSpaceOnUse">
<stop stop-color="#F06B55"/>
<stop offset="1" stop-color="#60251B"/>
</linearGradient>
<linearGradient id="paint1_linear_1924_4026" x1="216.932" y1="353.784" x2="326.255" y2="412.58" gradientUnits="userSpaceOnUse">
<stop stop-color="#D38F49"/>
<stop offset="1" stop-color="#FCB66E"/>
</linearGradient>
<clipPath id="clip0_1924_4026">
<rect width="509.474" height="602.745" fill="white" transform="translate(0 0.469238)"/>
</clipPath>
</defs>
</svg>
