<svg width="140" height="139" viewBox="0 0 140 139" fill="none" xmlns="http://www.w3.org/2000/svg">
<rect width="93.0781" height="67.7611" rx="3.26486" transform="matrix(0.866025 -0.5 0.866025 0.5 0.134766 104.735)" fill="#BAB7F1"/>
<rect width="80.5906" height="62.123" transform="matrix(-0.866025 0.5 2.20305e-08 1 78.2988 1.8335)" fill="black"/>
<rect width="31.0838" height="62.123" transform="matrix(0.866025 0.5 -2.20305e-08 1 78.2988 1.8125)" fill="black"/>
<path d="M7.33984 42.7882L36.1216 58.6982L36.1216 121.143L7.33984 104.911L7.33984 42.7882Z" fill="#F4CC7C"/>
<path d="M78.6035 40.2623C77.9186 31.043 76.0043 12.9968 65.5292 21.2272C55.0542 29.4576 57.1246 45.2777 57.1246 54.8979" stroke="white" stroke-width="2.24391"/>
<path d="M56.9492 22.943C56.2643 13.7236 54.35 -4.32254 43.8749 3.90788C33.3999 12.1383 35.4703 27.9583 35.4703 37.5785" stroke="black" stroke-width="2.24391"/>
<rect width="81.9704" height="62.123" transform="matrix(-0.866025 0.5 2.20305e-08 1 105.238 17.356)" fill="#FFDE9F"/>
</svg>
