<svg width="60" height="60" viewBox="0 0 60 60" fill="none" xmlns="http://www.w3.org/2000/svg">
<circle opacity="0.12" cx="30" cy="30" r="30" fill="#FF6900"/>
<rect width="60" height="60" rx="8" fill="#747474"/>
<path d="M23 27C23 26.7348 23.1054 26.4804 23.2929 26.2929C23.4804 26.1054 23.7348 26 24 26H36C36.2652 26 36.5196 26.1054 36.7071 26.2929C36.8946 26.4804 37 26.7348 37 27C37 27.2652 36.8946 27.5196 36.7071 27.7071C36.5196 27.8946 36.2652 28 36 28H24C23.7348 28 23.4804 27.8946 23.2929 27.7071C23.1054 27.5196 23 27.2652 23 27ZM24 32H36C36.2652 32 36.5196 31.8946 36.7071 31.7071C36.8946 31.5196 37 31.2652 37 31C37 30.7348 36.8946 30.4804 36.7071 30.2929C36.5196 30.1054 36.2652 30 36 30H24C23.7348 30 23.4804 30.1054 23.2929 30.2929C23.1054 30.4804 23 30.7348 23 31C23 31.2652 23.1054 31.5196 23.2929 31.7071C23.4804 31.8946 23.7348 32 24 32ZM43 21V40C42.9999 40.1704 42.9563 40.338 42.8732 40.4869C42.7901 40.6357 42.6704 40.7608 42.5254 40.8503C42.3803 40.9399 42.2148 40.9909 42.0446 40.9985C41.8743 41.0061 41.7049 40.97 41.5525 40.8937L38 39.1175L34.4475 40.8937C34.3086 40.9633 34.1554 40.9995 34 40.9995C33.8446 40.9995 33.6914 40.9633 33.5525 40.8937L30 39.1175L26.4475 40.8937C26.3086 40.9633 26.1554 40.9995 26 40.9995C25.8446 40.9995 25.6914 40.9633 25.5525 40.8937L22 39.1175L18.4475 40.8937C18.2951 40.97 18.1257 41.0061 17.9554 40.9985C17.7852 40.9909 17.6197 40.9399 17.4746 40.8503C17.3296 40.7608 17.2099 40.6357 17.1268 40.4869C17.0437 40.338 17.0001 40.1704 17 40V21C17 20.4696 17.2107 19.9609 17.5858 19.5858C17.9609 19.2107 18.4696 19 19 19H41C41.5304 19 42.0391 19.2107 42.4142 19.5858C42.7893 19.9609 43 20.4696 43 21ZM41 21H19V38.3825L21.5525 37.105C21.6914 37.0355 21.8446 36.9993 22 36.9993C22.1554 36.9993 22.3086 37.0355 22.4475 37.105L26 38.8825L29.5525 37.105C29.6914 37.0355 29.8446 36.9993 30 36.9993C30.1554 36.9993 30.3086 37.0355 30.4475 37.105L34 38.8825L37.5525 37.105C37.6914 37.0355 37.8446 36.9993 38 36.9993C38.1554 36.9993 38.3086 37.0355 38.4475 37.105L41 38.3825V21Z" fill="white"/>
</svg>
