<svg width="388" height="405" viewBox="0 0 388 405" fill="none" xmlns="http://www.w3.org/2000/svg">
<g opacity="0.3">
<path fill-rule="evenodd" clip-rule="evenodd" d="M366.911 78.1823C366.746 83.7963 362.37 88.2039 357.136 88.0293C351.901 87.8534 347.79 83.1601 347.954 77.5461C348.118 71.9333 352.495 67.5245 357.728 67.7004C362.963 67.8763 367.074 72.5696 366.911 78.1823Z" stroke="white" stroke-width="4"/>
<path fill-rule="evenodd" clip-rule="evenodd" d="M385.872 222.811C385.707 228.424 381.331 232.833 376.097 232.658C370.862 232.482 366.752 227.788 366.915 222.175C367.079 216.561 371.455 212.153 376.689 212.329C381.924 212.504 386.036 217.197 385.872 222.811Z" stroke="white" stroke-width="4"/>
<path fill-rule="evenodd" clip-rule="evenodd" d="M118.239 12.6427C118.076 18.257 113.699 22.6649 108.464 22.4902C103.229 22.3143 99.119 17.6207 99.282 12.0064C99.4462 6.39335 103.823 1.98424 109.056 2.16141C114.291 2.33607 118.403 7.02964 118.239 12.6427Z" stroke="white" stroke-width="4"/>
<path fill-rule="evenodd" clip-rule="evenodd" d="M21.3012 152.757C21.1371 158.371 16.7606 162.778 11.5267 162.603C6.2918 162.428 2.18149 157.734 2.34453 152.12C2.50868 146.506 6.88517 142.099 12.119 142.275C17.3539 142.449 21.4653 147.143 21.3012 152.757Z" stroke="white" stroke-width="4"/>
<path fill-rule="evenodd" clip-rule="evenodd" d="M170.926 392.307C170.762 397.92 166.386 402.329 161.152 402.154C155.917 401.978 151.806 397.284 151.97 391.671C152.134 386.057 156.51 381.649 161.744 381.825C166.979 382 171.09 386.693 170.926 392.307Z" stroke="white" stroke-width="4"/>
<path d="M223.605 162.558C223.605 162.558 266.219 62.2389 366.905 153.459C366.905 153.459 329.919 278.729 237.044 222.806" stroke="white" stroke-width="4"/>
<path d="M245.499 192.551C245.499 192.551 349.711 162.625 360.592 297.601C360.592 297.601 245.378 364.604 217.293 244.812" stroke="white" stroke-width="4"/>
<path d="M155.435 176.168C155.435 176.168 69.1865 128.229 159.384 27.0156C159.384 27.0156 283.827 59.3466 228.319 152.901" stroke="white" stroke-width="4"/>
<path d="M189.334 147.526C189.334 147.526 166.103 44.0673 299.584 33.793C299.584 33.793 362.643 161.623 244.051 189.725" stroke="white" stroke-width="4"/>
<path d="M237.674 223.625C237.674 223.625 328.19 275.559 239.342 377.297C239.342 377.297 113.036 345.458 171.733 243.166" stroke="white" stroke-width="4"/>
<path d="M215.229 244.116C215.229 244.116 241.357 344.305 107.727 352.441C107.727 352.441 44.6485 239.775 148.472 212.328" stroke="white" stroke-width="4"/>
<path d="M166.713 242.663C166.713 242.663 112.517 335.139 10.7695 245.586C10.7695 245.586 46.9468 110.292 150.352 176.179" stroke="white" stroke-width="4"/>
<path d="M148.348 209.255C148.348 209.255 49.5487 240.537 42.3789 103.466C42.3789 103.466 160.898 31.4066 189.893 146.868" stroke="white" stroke-width="4"/>
<path fill-rule="evenodd" clip-rule="evenodd" d="M235.993 224.581C222.689 247.689 193.623 255.371 171.073 241.737C148.522 228.104 141.026 198.32 154.33 175.212C167.634 152.103 196.699 144.422 219.25 158.055C241.801 171.688 249.297 201.472 235.993 224.581Z" stroke="white" stroke-width="4"/>
</g>
</svg>
