<svg width="46" height="45" xmlns="http://www.w3.org/2000/svg"><defs><linearGradient x1="50%" y1="0%" x2="50%" y2="100%" id="a"><stop stop-color="#7D6BC5" offset="0%"/><stop stop-color="#7886DD" offset="100%"/></linearGradient></defs><g fill="none" fill-rule="evenodd"><path d="M37.477 20.5c0 8.49-6.943 15.375-15.507 15.375-8.566 0-15.508-6.884-15.508-15.375 0-8.492 6.942-15.375 15.508-15.375 8.564 0 15.507 6.883 15.507 15.375z" stroke="url(#a)" stroke-width="3.844" transform="rotate(-180 22.97 21.5)"/><path d="M29.138 21.86c0 2.83-2.313 5.124-5.168 5.124S18.8 24.69 18.8 21.86c0-2.83 2.315-5.125 5.17-5.125s5.168 2.294 5.168 5.125" fill="#7C69C4"/><path stroke="#7888DE" stroke-width="3.844" stroke-linecap="round" stroke-linejoin="round" d="M24.292 7.125V2"/><path stroke="#7A7ED6" stroke-width="3.844" stroke-linecap="round" stroke-linejoin="round" d="M39.477 21.219H44M2 21.219h5.815"/><path stroke="#7D6CC6" stroke-width="3.844" stroke-linecap="round" stroke-linejoin="round" d="M23 43v-5.125"/></g></svg>