<svg width="60" height="60" viewBox="0 0 60 60" fill="none" xmlns="http://www.w3.org/2000/svg">
<circle opacity="0.12" cx="30" cy="30" r="30" fill="white"/>
<rect width="60" height="60" rx="8" fill="white"/>
<path d="M28.972 41.2421C28.9179 41.4585 28.7931 41.6505 28.6173 41.7878C28.4416 41.925 28.225 41.9996 28.002 41.9996C27.9177 42.0001 27.8337 41.99 27.752 41.9696L23.752 40.9696C23.6406 40.9417 23.5349 40.8947 23.4395 40.8309L20.4395 38.8309C20.2188 38.6837 20.0657 38.4549 20.0138 38.1948C19.9619 37.9347 20.0154 37.6646 20.1626 37.444C20.3098 37.2234 20.5386 37.0703 20.7987 37.0184C21.0588 36.9664 21.3288 37.02 21.5495 37.1671L24.4045 39.0709L28.237 40.0296C28.365 40.0607 28.4857 40.1167 28.592 40.1946C28.6983 40.2724 28.7882 40.3704 28.8565 40.4831C28.9248 40.5958 28.9702 40.7208 28.99 40.8511C29.0098 40.9814 29.0037 41.1143 28.972 41.2421ZM45.5582 29.1847C45.4762 29.4339 45.3456 29.6644 45.1739 29.8628C45.0023 30.0613 44.793 30.2238 44.5582 30.3409L41.5982 31.8209L34.7132 38.7071C34.591 38.8292 34.4393 38.9176 34.2728 38.9636C34.1063 39.0096 33.9308 39.0117 33.7632 38.9696L25.7632 36.9696C25.6416 36.9391 25.5267 36.8861 25.4245 36.8134L18.4845 31.8584L15.4495 30.3409C14.9751 30.1038 14.6144 29.688 14.4466 29.185C14.2787 28.6819 14.3175 28.1328 14.5545 27.6584L17.6607 21.4471C17.8978 20.9728 18.3136 20.6121 18.8167 20.4442C19.3197 20.2764 19.8688 20.3152 20.3432 20.5521L23.1007 21.9271L29.7257 20.0346C29.9054 19.9832 30.096 19.9832 30.2757 20.0346L36.9007 21.9271L39.6582 20.5521C40.1326 20.3152 40.6817 20.2764 41.1848 20.4442C41.6878 20.6121 42.1036 20.9728 42.3407 21.4471L45.447 27.6584C45.5654 27.8928 45.6363 28.1484 45.6554 28.4104C45.6745 28.6724 45.6415 28.9355 45.5582 29.1847ZM39.7857 30.8021L36.3845 23.9996H32.407L27.002 29.2497C28.5845 30.2609 31.0657 30.5396 33.292 28.2959C33.4658 28.1206 33.6984 28.0159 33.9449 28.0018C34.1913 27.9877 34.4343 28.0653 34.627 28.2197L38.9282 31.6659L39.7857 30.8021ZM16.3432 28.5521L18.5545 29.6584L21.6607 23.4471L19.4495 22.3409L16.3432 28.5521ZM37.502 33.0822L34.0382 30.3084C31.5957 32.3084 28.4945 32.5722 25.9245 30.9334C25.6717 30.7726 25.4582 30.557 25.2999 30.3027C25.1416 30.0483 25.0425 29.7616 25.0098 29.4638C24.9772 29.1659 25.0119 28.8646 25.1113 28.5819C25.2108 28.2993 25.3725 28.0426 25.5845 27.8309C25.5875 27.8273 25.5908 27.8239 25.5945 27.8209L31.202 22.3821L30.002 22.0396L23.6995 23.8409L20.2782 30.6822L26.4282 35.0759L33.6957 36.8921L37.502 33.0822ZM43.657 28.5521L40.5545 22.3409L38.3432 23.4471L41.4495 29.6584L43.657 28.5521Z" fill="#0047BB"/>
</svg>
