<svg width="68" height="68" viewBox="0 0 68 68" fill="none" xmlns="http://www.w3.org/2000/svg">
<rect width="68" height="68" rx="8.16" fill="#7F44B1"/>
<path d="M49.9891 36.0406C49.5239 35.6827 48.9825 35.4369 48.4069 35.3223C47.8313 35.2077 47.2371 35.2273 46.6703 35.3797L40.1328 36.8828C40.2849 36.2403 40.2896 35.5717 40.1466 34.9271C40.0035 34.2825 39.7164 33.6787 39.3068 33.1608C38.8972 32.643 38.3756 32.2246 37.7813 31.9369C37.187 31.6493 36.5353 31.4999 35.875 31.5H28.0531C27.3962 31.4984 26.7456 31.6269 26.1386 31.8782C25.5317 32.1295 24.9806 32.4985 24.5172 32.9641L20.9828 36.5H16.5C15.837 36.5 15.2011 36.7634 14.7322 37.2322C14.2634 37.7011 14 38.337 14 39V45.25C14 45.913 14.2634 46.5489 14.7322 47.0178C15.2011 47.4866 15.837 47.75 16.5 47.75H32.75C32.8522 47.7501 32.954 47.7375 33.0531 47.7125L43.0531 45.2125C43.1169 45.1973 43.1791 45.1764 43.2391 45.15L49.3125 42.5656L49.3812 42.5344C49.965 42.2427 50.4648 41.8072 50.8337 41.269C51.2026 40.7308 51.4284 40.1075 51.4898 39.4579C51.5512 38.8082 51.4463 38.1537 51.1848 37.5558C50.9233 36.958 50.514 36.4365 49.9953 36.0406H49.9891ZM16.5 39H20.25V45.25H16.5V39ZM48.2859 40.2828L42.3484 42.8109L32.5938 45.25H22.75V38.2672L26.2859 34.7328C26.5172 34.4997 26.7926 34.3148 27.096 34.189C27.3993 34.0632 27.7247 33.999 28.0531 34H35.875C36.3723 34 36.8492 34.1975 37.2008 34.5492C37.5525 34.9008 37.75 35.3777 37.75 35.875C37.75 36.3723 37.5525 36.8492 37.2008 37.2008C36.8492 37.5525 36.3723 37.75 35.875 37.75H31.5C31.1685 37.75 30.8505 37.8817 30.6161 38.1161C30.3817 38.3505 30.25 38.6685 30.25 39C30.25 39.3315 30.3817 39.6495 30.6161 39.8839C30.8505 40.1183 31.1685 40.25 31.5 40.25H36.5C36.5941 40.2497 36.6879 40.2393 36.7797 40.2188L47.2484 37.8109L47.2969 37.7984C47.6165 37.7097 47.9576 37.7423 48.2545 37.89C48.5515 38.0376 48.7834 38.2899 48.9056 38.5982C49.0278 38.9066 49.0316 39.2492 48.9163 39.5602C48.8011 39.8712 48.5749 40.1286 48.2812 40.2828H48.2859ZM39.625 29C39.9338 29.0004 40.2422 28.9753 40.5469 28.925C40.8896 29.943 41.5167 30.8417 42.3539 31.5146C43.1912 32.1876 44.2037 32.6067 45.2716 32.7225C46.3395 32.8382 47.4183 32.6458 48.3803 32.1679C49.3423 31.6901 50.1474 30.9467 50.7004 30.0258C51.2533 29.1049 51.531 28.0448 51.5006 26.9711C51.4702 25.8973 51.133 24.8547 50.5289 23.9666C49.9247 23.0784 49.0789 22.3818 48.0913 21.9591C47.1038 21.5364 46.0159 21.4053 44.9562 21.5813C44.6262 20.6004 44.032 19.7296 43.239 19.0647C42.446 18.3997 41.4849 17.9665 40.4615 17.8126C39.4381 17.6586 38.3921 17.79 37.4386 18.1923C36.485 18.5945 35.661 19.252 35.057 20.0924C34.4531 20.9328 34.0927 21.9236 34.0156 22.9556C33.9384 23.9876 34.1475 25.0209 34.6197 25.9418C35.0919 26.8626 35.8091 27.6354 36.6922 28.175C37.5753 28.7145 38.5901 29 39.625 29ZM49 27.125C49 27.7431 48.8167 28.3473 48.4733 28.8612C48.13 29.3751 47.6419 29.7756 47.0709 30.0121C46.4999 30.2486 45.8715 30.3105 45.2653 30.19C44.6592 30.0694 44.1023 29.7718 43.6653 29.3347C43.2283 28.8977 42.9306 28.3409 42.81 27.7347C42.6895 27.1285 42.7514 26.5001 42.9879 25.9291C43.2244 25.3581 43.6249 24.87 44.1388 24.5267C44.6527 24.1833 45.2569 24 45.875 24C46.7038 24 47.4987 24.3292 48.0847 24.9153C48.6708 25.5013 49 26.2962 49 27.125ZM39.625 20.25C40.3067 20.2503 40.9696 20.4736 41.5127 20.8857C42.0557 21.2979 42.4491 21.8763 42.6328 22.5328C41.9926 22.9833 41.4535 23.5624 41.0499 24.2332C40.6463 24.9039 40.3872 25.6515 40.2891 26.4281C40.0708 26.4753 39.8483 26.4993 39.625 26.5C38.7962 26.5 38.0013 26.1708 37.4153 25.5847C36.8292 24.9987 36.5 24.2038 36.5 23.375C36.5 22.5462 36.8292 21.7513 37.4153 21.1653C38.0013 20.5792 38.7962 20.25 39.625 20.25Z" fill="white"/>
</svg>
