<svg width="175" height="156" xmlns="http://www.w3.org/2000/svg"><g fill="none" fill-rule="evenodd"><ellipse fill="#D8D8D8" cx="101.519" cy="147.815" rx="73.481" ry="8.185"/><path d="M133.04 0C165.674 0 175 30.852 175 45.448c0 14.217-4.844 27.963-13.46 39.34-9.462 12.488-21.758 23.509-33.95 33.377-6.215 5.03-12.65 9.8-19.242 14.347-1.651 1.136-6.054 3.814-10.466 6.478l-.945.57c-3.906 2.358-7.665 4.617-9.356 5.69-.025.122-.052.172-.081.154a48.049 48.049 0 0 0-.078-.05l-.06.035c-.026.017-.05-.023-.075-.117-3.715-2.365-17.398-10.532-20.635-12.76-6.593-4.548-13.027-9.317-19.242-14.347-12.192-9.868-24.488-20.89-33.95-33.377C4.843 73.41 0 59.665 0 45.448 0 30.852 9.326 0 41.96 0c31.986 0 45.016 25.886 45.524 26.922l.016.03.016-.03C88.024 25.886 101.054 0 133.04 0Z" fill="#FC789E"/><ellipse fill="#5F3EA5" cx="135.359" cy="123.259" rx="27.072" ry="26.963"/><path stroke="#FFF" stroke-width="5.255" stroke-linecap="round" stroke-linejoin="round" d="m123.757 124.848 6.976 7.078 15.261-15.407"/><path fill="#FFF5F8" d="M78.315 93.407h15.47V52h-15.47z"/><path fill="#FFF5F8" d="M65.746 79.926h41.574V64.519H65.746z"/></g></svg>