<svg width="48" height="49" viewBox="0 0 48 49" fill="none" xmlns="http://www.w3.org/2000/svg">
<path d="M21.7579 15.9672C22.9287 15.7331 23.8653 14.3281 23.397 13.1573C23.1628 11.9865 21.7579 11.0499 20.5871 11.5182C14.2647 12.9231 10.0498 18.543 10.0498 25.0995C10.0498 32.8268 16.3722 39.1492 24.0995 39.1492C31.3585 39.1492 37.4467 33.5293 38.1492 26.2703C38.3833 25.0995 37.2125 23.9287 36.0417 23.6946C34.8709 23.4604 33.7001 24.6312 33.4659 25.802C32.9976 30.4852 28.7827 34.466 24.0995 34.466C18.9479 34.466 14.733 30.2511 14.733 25.0995C14.733 20.6505 17.543 16.9039 21.7579 15.9672Z" fill="url(#paint0_linear_2759_886)"/>
<path d="M45.1742 22.7583C43.7693 22.7583 42.8326 23.695 42.8326 25.0999C42.8326 35.403 34.4028 43.8328 24.0997 43.8328C13.7966 43.8328 5.36682 35.403 5.36682 25.0999C5.36682 15.2652 13.0941 7.06952 22.9289 6.36703C24.3339 6.36703 25.2705 5.19623 25.0364 3.79126C25.0364 2.38629 23.8656 1.44965 22.4606 1.68381C10.2842 2.62045 0.683594 12.6894 0.683594 25.0999C0.683594 37.9788 11.2208 48.5161 24.0997 48.5161C36.9786 48.5161 47.5158 37.9788 47.5158 25.0999C47.5158 23.695 46.345 22.7583 45.1742 22.7583Z" fill="url(#paint1_linear_2759_886)"/>
<path d="M28.5495 17.3722L22.4613 23.4604C21.5246 24.397 21.5246 25.802 22.4613 26.7386C22.9296 27.2069 23.6321 27.4411 24.1004 27.4411C24.5687 27.4411 25.2712 27.2069 25.7395 26.7386L31.8277 20.6504L35.8085 21.8212C36.0426 21.8212 36.2768 21.8212 36.5109 21.8212C37.2134 21.8212 37.6818 21.5871 38.1501 21.1187L47.2824 11.7523C47.7507 11.284 47.9848 10.3473 47.9848 9.64484C47.9848 8.94236 47.2824 8.23987 46.5799 8.00571L42.365 6.60074L40.96 2.38584C40.7258 1.68336 40.0234 0.980877 39.3209 0.980877C38.6184 0.746716 37.6818 0.980877 37.2134 1.68336L28.0811 11.0498C27.3787 11.7523 27.1445 12.6889 27.6128 13.3914L28.5495 17.3722ZM37.6817 7.77155L38.3842 9.41068C38.6184 10.1132 39.0867 10.5815 39.7892 10.8156L41.4283 11.5181L35.8085 17.138L32.9985 16.2014L32.0619 13.3914L37.6817 7.77155Z" fill="url(#paint2_linear_2759_886)"/>
<defs>
<linearGradient id="paint0_linear_2759_886" x1="15.5335" y1="8.45446" x2="9.72589" y2="40.5628" gradientUnits="userSpaceOnUse">
<stop stop-color="#7888DE"/>
<stop offset="1" stop-color="#7D66C1"/>
</linearGradient>
<linearGradient id="paint1_linear_2759_886" x1="9.81337" y1="-3.31773" x2="-0.125096" y2="50.8537" gradientUnits="userSpaceOnUse">
<stop stop-color="#7888DE"/>
<stop offset="1" stop-color="#7D66C1"/>
</linearGradient>
<linearGradient id="paint2_linear_2759_886" x1="26.8715" y1="-1.9197" x2="21.1814" y2="28.7421" gradientUnits="userSpaceOnUse">
<stop stop-color="#7888DE"/>
<stop offset="1" stop-color="#7D66C1"/>
</linearGradient>
</defs>
</svg>
