<svg width="68" height="68" viewBox="0 0 68 68" fill="none" xmlns="http://www.w3.org/2000/svg">
<rect width="68" height="68" rx="8" fill="#0047BB"/>
<path d="M40.25 37.7498C40.25 38.0813 40.1183 38.3992 39.8839 38.6337C39.6495 38.8681 39.3315 38.9998 39 38.9998H29C28.6685 38.9998 28.3505 38.8681 28.1161 38.6337C27.8817 38.3992 27.75 38.0813 27.75 37.7498C27.75 37.4183 27.8817 37.1003 28.1161 36.8659C28.3505 36.6315 28.6685 36.4998 29 36.4998H39C39.3315 36.4998 39.6495 36.6315 39.8839 36.8659C40.1183 37.1003 40.25 37.4183 40.25 37.7498ZM39 31.4998H29C28.6685 31.4998 28.3505 31.6315 28.1161 31.8659C27.8817 32.1003 27.75 32.4183 27.75 32.7498C27.75 33.0813 27.8817 33.3992 28.1161 33.6337C28.3505 33.8681 28.6685 33.9998 29 33.9998H39C39.3315 33.9998 39.6495 33.8681 39.8839 33.6337C40.1183 33.3992 40.25 33.0813 40.25 32.7498C40.25 32.4183 40.1183 32.1003 39.8839 31.8659C39.6495 31.6315 39.3315 31.4998 39 31.4998ZM47.75 21.4998V47.7498C47.75 48.4128 47.4866 49.0487 47.0178 49.5175C46.5489 49.9864 45.913 50.2498 45.25 50.2498H22.75C22.087 50.2498 21.4511 49.9864 20.9822 49.5175C20.5134 49.0487 20.25 48.4128 20.25 47.7498V21.4998C20.25 20.8367 20.5134 20.2008 20.9822 19.732C21.4511 19.2632 22.087 18.9998 22.75 18.9998H28.4156C29.118 18.2134 29.9785 17.5842 30.9408 17.1535C31.9032 16.7227 32.9456 16.5 34 16.5C35.0544 16.5 36.0968 16.7227 37.0592 17.1535C38.0215 17.5842 38.882 18.2134 39.5844 18.9998H45.25C45.913 18.9998 46.5489 19.2632 47.0178 19.732C47.4866 20.2008 47.75 20.8367 47.75 21.4998ZM29 23.9998H39C39 22.6737 38.4732 21.4019 37.5355 20.4642C36.5979 19.5266 35.3261 18.9998 34 18.9998C32.6739 18.9998 31.4021 19.5266 30.4645 20.4642C29.5268 21.4019 29 22.6737 29 23.9998ZM45.25 21.4998H41.0703C41.3547 22.3026 41.5 23.1481 41.5 23.9998V25.2498C41.5 25.5813 41.3683 25.8992 41.1339 26.1337C40.8995 26.3681 40.5815 26.4998 40.25 26.4998H27.75C27.4185 26.4998 27.1005 26.3681 26.8661 26.1337C26.6317 25.8992 26.5 25.5813 26.5 25.2498V23.9998C26.5 23.1481 26.6453 22.3026 26.9297 21.4998H22.75V47.7498H45.25V21.4998Z" fill="white"/>
</svg>
