<svg width="108" height="109" viewBox="0 0 108 109" fill="none" xmlns="http://www.w3.org/2000/svg">
<g clip-path="url(#clip0_4301_6143)">
<rect y="0.65625" width="108" height="108" rx="13.7907" fill="#FDCC9A"/>
<path d="M62.4287 30.1862C62.4287 29.06 61.585 26.6562 59.0218 26.6562C57.5287 26.6562 56.1521 27.6589 55.7227 29.218L42.0524 78.7298C41.9626 79.0542 41.9198 79.381 41.9198 79.7025C41.827 80.8429 42.7775 83.2411 45.3407 83.2411C46.8274 83.2411 48.1955 82.2291 48.6248 80.6749L62.2952 31.1631C62.386 30.8349 62.4287 30.5078 62.4287 30.1862ZM36.7968 42.4713C36.7968 40.451 35.2001 38.9347 33.3792 38.9347C32.5047 38.9347 31.6298 39.2801 30.9634 39.9709L19.0018 52.3489C18.3337 53.1362 18 54.0425 18 54.8492C18 55.656 18.3337 56.7612 19.0012 57.4464L30.9628 69.8243C31.6276 70.5206 32.5034 70.7637 33.3792 70.7637C35.2001 70.7637 36.7968 69.2463 36.7968 67.2272C36.7968 66.3223 36.463 65.4169 35.7955 64.7262L26.2503 54.8492L35.796 44.9712C36.4657 44.3722 36.7968 43.477 36.7968 42.4713ZM86.3518 54.8492C86.3518 53.9443 86.0181 53.039 85.3506 52.3482L73.389 39.9703C72.7242 39.3768 71.8484 38.9347 70.9727 38.9347C69.1517 38.9347 67.5551 40.4521 67.5551 42.4713C67.5551 43.3762 67.8888 44.2816 68.5563 44.9723L78.1021 54.8503L68.5563 64.7284C67.8861 65.5142 67.5551 66.4204 67.5551 67.2272C67.5551 69.2474 69.1517 70.7637 70.9727 70.7637C71.8471 70.7637 72.722 70.4184 73.3885 69.7275L85.35 57.3496C86.0207 56.7612 86.3518 55.8549 86.3518 54.8492Z" fill="white"/>
</g>
<defs>
<clipPath id="clip0_4301_6143">
<rect width="108" height="108" fill="white" transform="translate(0 0.65625)"/>
</clipPath>
</defs>
</svg>
