<svg width="60" height="60" viewBox="0 0 60 60" fill="none" xmlns="http://www.w3.org/2000/svg">
<rect width="60" height="60" rx="8" fill="#D90E4F"/>
<path d="M39.7078 21.7047L21.7078 39.7047C21.5202 39.8924 21.2657 39.9978 21.0003 39.9978C20.7349 39.9978 20.4804 39.8924 20.2928 39.7047C20.1052 39.5171 19.9997 39.2626 19.9997 38.9972C19.9997 38.7319 20.1052 38.4774 20.2928 38.2897L38.2928 20.2897C38.4803 20.1021 38.7346 19.9966 38.9999 19.9965C39.2651 19.9964 39.5195 20.1016 39.7072 20.2891C39.8948 20.4766 40.0003 20.7309 40.0004 20.9962C40.0005 21.2614 39.8953 21.5158 39.7078 21.7035V21.7047ZM20.3178 26.6797C19.4739 25.8357 18.9999 24.691 19 23.4974C19.0001 22.3039 19.4744 21.1592 20.3184 20.3154C21.1625 19.4715 22.3072 18.9974 23.5007 18.9976C24.6943 18.9977 25.8389 19.4719 26.6828 20.316C27.5267 21.16 28.0007 22.3047 28.0006 23.4983C28.0005 24.6918 27.5262 25.8365 26.6822 26.6804C25.8381 27.5242 24.6934 27.9983 23.4999 27.9981C22.3063 27.998 21.1617 27.5238 20.3178 26.6797ZM21.0003 23.4997C21.0006 23.9108 21.1023 24.3154 21.2963 24.6778C21.4904 25.0402 21.7707 25.3491 22.1127 25.5773C22.4546 25.8055 22.8475 25.9458 23.2566 25.9859C23.6657 26.0259 24.0784 25.9645 24.4581 25.807C24.8378 25.6495 25.1728 25.4008 25.4334 25.083C25.6941 24.7651 25.8723 24.3879 25.9524 23.9847C26.0325 23.5815 26.0119 23.1648 25.8925 22.7715C25.7731 22.3782 25.5585 22.0203 25.2678 21.7297C24.918 21.3801 24.4724 21.142 23.9873 21.0456C23.5021 20.9493 22.9994 20.999 22.5425 21.1885C22.0857 21.378 21.6953 21.6987 21.4207 22.1101C21.1462 22.5215 20.9999 23.0051 21.0003 23.4997ZM41.0003 36.4997C41.0001 37.5408 40.6388 38.5496 39.9782 39.3542C39.3176 40.1589 38.3984 40.7095 37.3773 40.9124C36.3561 41.1153 35.2962 40.9579 34.3782 40.4669C33.4601 39.9759 32.7407 39.1819 32.3425 38.2199C31.9443 37.258 31.8919 36.1878 32.1943 35.1916C32.4967 34.1954 33.1352 33.3349 34.0009 32.7566C34.8666 32.1784 35.9061 31.9182 36.9421 32.0204C37.9782 32.1227 38.9468 32.5809 39.6828 33.3172C40.102 33.7342 40.4342 34.2302 40.6604 34.7765C40.8865 35.3228 41.0021 35.9085 41.0003 36.4997ZM39.0003 36.4997C39.0004 35.9213 38.8 35.3608 38.4331 34.9136C38.0663 34.4664 37.5558 34.1603 36.9885 34.0473C36.4212 33.9344 35.8324 34.0216 35.3222 34.2942C34.8121 34.5667 34.4122 35.0077 34.1908 35.5421C33.9693 36.0764 33.94 36.671 34.1078 37.2245C34.2756 37.778 34.6302 38.2562 35.111 38.5776C35.5919 38.8991 36.1693 39.0438 36.7449 38.9872C37.3206 38.9306 37.8587 38.6762 38.2678 38.2672C38.5007 38.0357 38.6853 37.7602 38.8111 37.4568C38.9368 37.1535 39.0011 36.8281 39.0003 36.4997Z" fill="white"/>
</svg>
