<svg width="29" height="34" xmlns="http://www.w3.org/2000/svg"><defs><linearGradient x1="50%" y1="0%" x2="50%" y2="100%" id="a"><stop stop-color="#38BDE2" offset="0%"/><stop stop-color="#7BA1FA" offset="100%"/></linearGradient></defs><g fill="none" fill-rule="evenodd"><path d="M7 12V9.25C7 5.245 10.358 2 14.5 2 18.642 2 22 5.246 22 9.25v2.62" stroke="#79A2F9" stroke-width="3.871" stroke-linecap="round" stroke-linejoin="round"/><path d="M17 22a2.5 2.5 0 1 1-4.999 0A2.5 2.5 0 0 1 17 22" fill="#55B0EC"/><path d="M20.976 30H4.025C1.802 30 0 28.182 0 25.939V14.062C0 11.818 1.802 10 4.025 10h16.95C23.199 10 25 11.818 25 14.062v11.877C25 28.182 23.198 30 20.976 30Z" stroke="url(#a)" stroke-width="3.871" stroke-linecap="round" stroke-linejoin="round" transform="translate(2 2)"/></g></svg>