<svg width="60" height="60" viewBox="0 0 60 60" fill="none" xmlns="http://www.w3.org/2000/svg">
<circle opacity="0.12" cx="30" cy="30" r="30" fill="white"/>
<rect width="60" height="60" rx="8" fill="white"/>
<path d="M43 40C43 40.2652 42.8946 40.5196 42.7071 40.7071C42.5196 40.8946 42.2652 41 42 41H18C17.7348 41 17.4804 40.8946 17.2929 40.7071C17.1054 40.5196 17 40.2652 17 40V20C17 19.7348 17.1054 19.4804 17.2929 19.2929C17.4804 19.1054 17.7348 19 18 19C18.2652 19 18.5196 19.1054 18.7071 19.2929C18.8946 19.4804 19 19.7348 19 20V33.5863L25.2925 27.2925C25.3854 27.1995 25.4957 27.1258 25.6171 27.0754C25.7385 27.0251 25.8686 26.9992 26 26.9992C26.1314 26.9992 26.2615 27.0251 26.3829 27.0754C26.5043 27.1258 26.6146 27.1995 26.7075 27.2925L30 30.5863L36.5863 24H34C33.7348 24 33.4804 23.8946 33.2929 23.7071C33.1054 23.5196 33 23.2652 33 23C33 22.7348 33.1054 22.4804 33.2929 22.2929C33.4804 22.1054 33.7348 22 34 22H39C39.2652 22 39.5196 22.1054 39.7071 22.2929C39.8946 22.4804 40 22.7348 40 23V28C40 28.2652 39.8946 28.5196 39.7071 28.7071C39.5196 28.8946 39.2652 29 39 29C38.7348 29 38.4804 28.8946 38.2929 28.7071C38.1054 28.5196 38 28.2652 38 28V25.4137L30.7075 32.7075C30.6146 32.8005 30.5043 32.8742 30.3829 32.9246C30.2615 32.9749 30.1314 33.0008 30 33.0008C29.8686 33.0008 29.7385 32.9749 29.6171 32.9246C29.4957 32.8742 29.3854 32.8005 29.2925 32.7075L26 29.4137L19 36.4137V39H42C42.2652 39 42.5196 39.1054 42.7071 39.2929C42.8946 39.4804 43 39.7348 43 40Z" fill="#00843D"/>
</svg>
