<svg width="154" height="161" viewBox="0 0 154 161" fill="none" xmlns="http://www.w3.org/2000/svg">
<g clip-path="url(#clip0_4315_8715)">
<circle cx="70.2866" cy="70.7719" r="69.9604" fill="#F4CC7C"/>
<circle cx="69.5762" cy="70.0488" r="47.8301" fill="#FFDE9F"/>
<path fill-rule="evenodd" clip-rule="evenodd" d="M79.9292 54.782V59.7555H85.9967V64.4391H79.7508C79.2752 67.9092 77.7777 70.5317 75.2591 72.3039C72.7405 74.0779 68.9028 74.964 63.7477 74.964V78.6075C63.7477 82.6178 65.4528 84.6221 68.8641 84.6221C70.5296 84.6221 71.7686 84.1212 72.582 83.1177C73.3945 82.1161 73.8021 80.6126 73.8021 78.6075H81.5947C81.4361 82.4243 80.3057 85.4027 78.2042 87.5418C76.1018 89.6818 73.1076 90.7513 69.2208 90.7513C64.898 90.7513 61.5962 89.6433 59.3154 87.4262C57.0347 85.21 55.8948 81.8849 55.8948 77.4508V69.6438C60.2176 69.6438 63.4504 69.519 65.5916 69.2677C67.7336 69.0182 69.2699 68.5265 70.2022 67.7936C71.1335 67.0616 71.7195 65.9426 71.9573 64.4391H54.5859V59.7555H72.0762V54.782H54.5859V49.3462H85.9967V54.782H79.9292Z" fill="#2C1645"/>
<circle cx="114.661" cy="121.908" r="36.7489" fill="#895AE8" stroke="white" stroke-width="3.45748"/>
<path d="M111.73 123.373C112.36 124.215 113.163 124.911 114.085 125.415C115.007 125.919 116.027 126.219 117.076 126.294C118.124 126.369 119.176 126.217 120.16 125.85C121.145 125.483 122.039 124.908 122.782 124.165L127.179 119.768C128.514 118.385 129.253 116.534 129.236 114.613C129.22 112.691 128.449 110.853 127.09 109.494C125.731 108.135 123.893 107.365 121.972 107.348C120.05 107.331 118.199 108.07 116.817 109.405L114.296 111.911" stroke="white" stroke-width="2.93148" stroke-linecap="round" stroke-linejoin="round"/>
<path d="M117.592 120.454C116.963 119.612 116.16 118.916 115.237 118.412C114.315 117.908 113.295 117.608 112.247 117.533C111.199 117.458 110.147 117.61 109.162 117.977C108.177 118.344 107.283 118.919 106.54 119.662L102.143 124.059C100.808 125.442 100.07 127.293 100.086 129.214C100.103 131.136 100.874 132.974 102.232 134.333C103.591 135.692 105.429 136.462 107.351 136.479C109.273 136.496 111.124 135.757 112.506 134.422L115.012 131.916" stroke="white" stroke-width="2.93148" stroke-linecap="round" stroke-linejoin="round"/>
</g>
<defs>
<clipPath id="clip0_4315_8715">
<rect width="152.813" height="159.574" fill="white" transform="translate(0.326172 0.811523)"/>
</clipPath>
</defs>
</svg>
