<svg width="59" height="58" xmlns="http://www.w3.org/2000/svg"><g fill="none" fill-rule="evenodd"><rect width="59" height="58" rx="29" fill="#49C8DB"/><path d="M36.32 41.14H22.68c-1.788 0-3.238-1.472-3.238-3.287V28.24c0-1.816 1.45-3.288 3.238-3.288H36.32c1.788 0 3.238 1.472 3.238 3.288v9.612c0 1.815-1.45 3.287-3.238 3.287Z" stroke="#FFF" stroke-width="2.699" stroke-linecap="round" stroke-linejoin="round"/><path d="M23.466 24.953v-2.226c0-3.24 2.702-5.867 6.034-5.867 3.333 0 6.034 2.627 6.034 5.867v2.122" stroke="#FFF" stroke-width="2.699" stroke-linecap="round" stroke-linejoin="round"/><path d="M31.511 33.047c0 1.117-.9 2.023-2.01 2.023a2.017 2.017 0 0 1-2.012-2.023c0-1.118.9-2.024 2.011-2.024 1.111 0 2.011.906 2.011 2.024" fill="#FFF"/></g></svg>