<svg width="80" height="80" xmlns="http://www.w3.org/2000/svg"><defs><linearGradient x1="15.874%" y1="19.853%" x2="71.991%" y2="86.829%" id="a"><stop stop-color="#F6CC6E" offset="0%"/><stop stop-color="#FFE7B3" offset="53.904%"/><stop stop-color="#F6CC6E" offset="100%"/></linearGradient></defs><g transform="translate(1 1)" fill="none" fill-rule="evenodd"><circle fill="#C3AA7E" opacity=".1" cx="39" cy="39" r="39"/><g stroke-linecap="round" stroke-linejoin="round" stroke-width="3"><path d="M37 21c0 9.39-7.611 17-17 17S3 30.39 3 21 10.611 4 20 4s17 7.61 17 17Z" stroke="url(#a)" transform="translate(19 20)"/><path d="m33 37 6.032 7L45 37.077M28 20.765c-2.081-1.12-4.812-1.03-6.81.406-2 1.44-2.662 3.791-1.855 5.829M50 20.765c2.081-1.12 4.812-1.03 6.81.406 2 1.44 2.662 3.791 1.855 5.829" stroke="#F6CC6E"/></g><circle stroke="#F6CC6E" cx="39" cy="39" r="39"/></g></svg>