<svg width="53" height="54" viewBox="0 0 53 54" fill="none" xmlns="http://www.w3.org/2000/svg">
<path fill-rule="evenodd" clip-rule="evenodd" d="M31.1804 19.9441V22.307H34.1048V24.534H31.0947C30.8649 26.1834 30.1433 27.4299 28.9288 28.2723C27.7155 29.1147 25.8664 29.5359 23.3814 29.5359V31.2675C23.3814 33.1737 24.2042 34.1269 25.8473 34.1269C26.6499 34.1269 27.2476 33.8883 27.6393 33.4123C28.0311 32.9352 28.2275 32.2206 28.2275 31.2675H31.983C31.9056 33.0824 31.3614 34.4978 30.3493 35.5149C29.3349 36.5308 27.8929 37.0399 26.02 37.0399C23.9363 37.0399 22.3443 36.5137 21.2453 35.4601C20.1463 34.4065 19.5974 32.8256 19.5974 30.7173V27.0075C21.6799 27.0075 23.2385 26.9493 24.2708 26.8283C25.302 26.7108 26.0438 26.4768 26.4927 26.1286C26.9416 25.7805 27.2238 25.2485 27.3381 24.534H18.9663V22.307H27.3952V19.9441H18.9663V17.3599H34.1048V19.9441H31.1804Z" fill="#F49299"/>
<path fill-rule="evenodd" clip-rule="evenodd" d="M50.0001 27.2C50.0001 40.1594 39.4956 50.6646 26.5359 50.6646C13.5753 50.6646 3.0708 40.1594 3.0708 27.2C3.0708 14.2406 13.5753 3.73535 26.5359 3.73535C39.4956 3.73535 50.0001 14.2406 50.0001 27.2Z" stroke="url(#paint0_linear_2759_892)" stroke-width="5.50409" stroke-linecap="round" stroke-linejoin="round"/>
<defs>
<linearGradient id="paint0_linear_2759_892" x1="12.2195" y1="-1.23681" x2="2.27517" y2="53.008" gradientUnits="userSpaceOnUse">
<stop stop-color="#FCAB79"/>
<stop offset="1" stop-color="#F49299"/>
</linearGradient>
</defs>
</svg>
