<svg width="60" height="60" viewBox="0 0 60 60" fill="none" xmlns="http://www.w3.org/2000/svg">
<circle opacity="0.2" cx="30" cy="30" r="30" fill="#FF6900"/>
<rect width="60" height="60" rx="8" fill="#FF6900"/>
<path d="M43 26C43.0005 25.907 42.9879 25.8144 42.9625 25.725L41.1688 19.45C41.0482 19.0336 40.7962 18.6675 40.4504 18.4061C40.1045 18.1448 39.6835 18.0023 39.25 18H20.75C20.3165 18.0023 19.8955 18.1448 19.5496 18.4061C19.2038 18.6675 18.9518 19.0336 18.8313 19.45L17.0388 25.725C17.0129 25.8144 16.9999 25.907 17 26V28C17 28.7762 17.1807 29.5418 17.5279 30.2361C17.875 30.9303 18.379 31.5343 19 32V40C19 40.5304 19.2107 41.0391 19.5858 41.4142C19.9609 41.7893 20.4696 42 21 42H39C39.5304 42 40.0391 41.7893 40.4142 41.4142C40.7893 41.0391 41 40.5304 41 40V32C41.621 31.5343 42.125 30.9303 42.4721 30.2361C42.8193 29.5418 43 28.7762 43 28V26ZM20.75 20H39.25L40.6775 25H19.3263L20.75 20ZM27 27H33V28C33 28.7956 32.6839 29.5587 32.1213 30.1213C31.5587 30.6839 30.7957 31 30 31C29.2044 31 28.4413 30.6839 27.8787 30.1213C27.3161 29.5587 27 28.7956 27 28V27ZM25 27V28C25 28.7956 24.6839 29.5587 24.1213 30.1213C23.5587 30.6839 22.7957 31 22 31C21.2044 31 20.4413 30.6839 19.8787 30.1213C19.3161 29.5587 19 28.7956 19 28V27H25ZM39 40H21V32.9C21.3292 32.9664 21.6642 32.9999 22 33C22.7762 33 23.5418 32.8193 24.2361 32.4721C24.9303 32.125 25.5343 31.621 26 31C26.4657 31.621 27.0697 32.125 27.7639 32.4721C28.4582 32.8193 29.2238 33 30 33C30.7762 33 31.5418 32.8193 32.2361 32.4721C32.9303 32.125 33.5343 31.621 34 31C34.4657 31.621 35.0697 32.125 35.7639 32.4721C36.4582 32.8193 37.2238 33 38 33C38.3358 32.9999 38.6708 32.9664 39 32.9V40ZM38 31C37.2044 31 36.4413 30.6839 35.8787 30.1213C35.3161 29.5587 35 28.7956 35 28V27H41V28C41 28.7956 40.6839 29.5587 40.1213 30.1213C39.5587 30.6839 38.7956 31 38 31Z" fill="white"/>
</svg>
