<svg width="60" height="60" viewBox="0 0 60 60" fill="none" xmlns="http://www.w3.org/2000/svg">
<circle opacity="0.12" cx="30" cy="30" r="30" fill="#5F259F"/>
<rect width="60" height="60" rx="8" fill="#0073D8"/>
<path d="M42.0006 30.0001C42.0006 30.2653 41.8952 30.5196 41.7077 30.7072C41.5201 30.8947 41.2658 31.0001 41.0006 31.0001H30.0006C29.7353 31.0001 29.481 30.8947 29.2935 30.7072C29.1059 30.5196 29.0006 30.2653 29.0006 30.0001C29.0006 29.7349 29.1059 29.4805 29.2935 29.293C29.481 29.1054 29.7353 29.0001 30.0006 29.0001H41.0006C41.2658 29.0001 41.5201 29.1054 41.7077 29.293C41.8952 29.4805 42.0006 29.7349 42.0006 30.0001ZM30.0006 23.0001H41.0006C41.2658 23.0001 41.5201 22.8947 41.7077 22.7072C41.8952 22.5196 42.0006 22.2653 42.0006 22.0001C42.0006 21.7349 41.8952 21.4805 41.7077 21.293C41.5201 21.1054 41.2658 21.0001 41.0006 21.0001H30.0006C29.7353 21.0001 29.481 21.1054 29.2935 21.293C29.1059 21.4805 29.0006 21.7349 29.0006 22.0001C29.0006 22.2653 29.1059 22.5196 29.2935 22.7072C29.481 22.8947 29.7353 23.0001 30.0006 23.0001ZM41.0006 37.0001H30.0006C29.7353 37.0001 29.481 37.1054 29.2935 37.293C29.1059 37.4805 29.0006 37.7349 29.0006 38.0001C29.0006 38.2653 29.1059 38.5196 29.2935 38.7072C29.481 38.8947 29.7353 39.0001 30.0006 39.0001H41.0006C41.2658 39.0001 41.5201 38.8947 41.7077 38.7072C41.8952 38.5196 42.0006 38.2653 42.0006 38.0001C42.0006 37.7349 41.8952 37.4805 41.7077 37.293C41.5201 37.1054 41.2658 37.0001 41.0006 37.0001ZM24.2931 19.2926L21.0006 22.5863L19.7081 21.2926C19.5204 21.1049 19.2659 20.9995 19.0006 20.9995C18.7352 20.9995 18.4807 21.1049 18.2931 21.2926C18.1054 21.4802 18 21.7347 18 22.0001C18 22.2654 18.1054 22.5199 18.2931 22.7076L20.2931 24.7076C20.3859 24.8005 20.4962 24.8743 20.6176 24.9246C20.739 24.975 20.8691 25.0009 21.0006 25.0009C21.132 25.0009 21.2621 24.975 21.3835 24.9246C21.5049 24.8743 21.6152 24.8005 21.7081 24.7076L25.7081 20.7076C25.8957 20.5199 26.0011 20.2654 26.0011 20.0001C26.0011 19.7347 25.8957 19.4802 25.7081 19.2926C25.5204 19.1049 25.2659 18.9995 25.0006 18.9995C24.7352 18.9995 24.4807 19.1049 24.2931 19.2926ZM24.2931 27.2926L21.0006 30.5863L19.7081 29.2926C19.5204 29.1049 19.2659 28.9995 19.0006 28.9995C18.7352 28.9995 18.4807 29.1049 18.2931 29.2926C18.1054 29.4802 18 29.7347 18 30.0001C18 30.1315 18.0259 30.2616 18.0762 30.383C18.1264 30.5044 18.2001 30.6147 18.2931 30.7076L20.2931 32.7076C20.3859 32.8005 20.4962 32.8743 20.6176 32.9246C20.739 32.975 20.8691 33.0009 21.0006 33.0009C21.132 33.0009 21.2621 32.975 21.3835 32.9246C21.5049 32.8743 21.6152 32.8005 21.7081 32.7076L25.7081 28.7076C25.8957 28.5199 26.0011 28.2654 26.0011 28.0001C26.0011 27.7347 25.8957 27.4802 25.7081 27.2926C25.5204 27.1049 25.2659 26.9995 25.0006 26.9995C24.7352 26.9995 24.4807 27.1049 24.2931 27.2926ZM24.2931 35.2926L21.0006 38.5863L19.7081 37.2926C19.6151 37.1997 19.5048 37.126 19.3835 37.0757C19.2621 37.0254 19.132 36.9995 19.0006 36.9995C18.8692 36.9995 18.7391 37.0254 18.6177 37.0757C18.4963 37.126 18.386 37.1997 18.2931 37.2926C18.2001 37.3855 18.1264 37.4958 18.0762 37.6172C18.0259 37.7386 18 37.8687 18 38.0001C18 38.1315 18.0259 38.2616 18.0762 38.383C18.1264 38.5044 18.2001 38.6147 18.2931 38.7076L20.2931 40.7076C20.3859 40.8005 20.4962 40.8743 20.6176 40.9246C20.739 40.975 20.8691 41.0009 21.0006 41.0009C21.132 41.0009 21.2621 40.975 21.3835 40.9246C21.5049 40.8743 21.6152 40.8005 21.7081 40.7076L25.7081 36.7076C25.8957 36.5199 26.0011 36.2654 26.0011 36.0001C26.0011 35.7347 25.8957 35.4802 25.7081 35.2926C25.5204 35.1049 25.2659 34.9995 25.0006 34.9995C24.7352 34.9995 24.4807 35.1049 24.2931 35.2926Z" fill="white"/>
</svg>
