<svg width="72" height="72" viewBox="0 0 72 72" fill="none" xmlns="http://www.w3.org/2000/svg">
<rect width="72" height="72" rx="8.64" fill="#00843D"/>
<path d="M22.113 18.4909C21.9813 18.3424 21.8214 18.2215 21.6426 18.1353C21.4639 18.0491 21.2697 17.9992 21.0715 17.9885C20.8733 17.9778 20.675 18.0066 20.488 18.0732C20.3009 18.1397 20.129 18.2427 19.9821 18.3762C19.8352 18.5097 19.7163 18.6711 19.6322 18.8509C19.5481 19.0307 19.5005 19.2254 19.4922 19.4237C19.484 19.622 19.5151 19.82 19.5839 20.0062C19.6527 20.1924 19.7578 20.3631 19.893 20.5084L25.0662 26.2009C21.8928 27.5338 19.0097 29.4724 16.578 31.9084C12.828 35.6584 12.468 41.1821 15.6987 45.3465C16.0951 45.8538 16.6441 46.22 17.2647 46.3912C17.8853 46.5624 18.5445 46.5294 19.1449 46.2971L28.3324 43.0403L28.3868 43.0196C28.8503 42.8343 29.2602 42.5363 29.5794 42.1526C29.8986 41.7689 30.1171 41.3116 30.2149 40.8221L31.3212 35.289C31.8469 35.1078 32.3828 34.9575 32.9262 34.839L49.8968 53.5084C50.0285 53.6569 50.1884 53.7777 50.3672 53.864C50.546 53.9502 50.7401 54.0001 50.9383 54.0108C51.1365 54.0214 51.3349 53.9927 51.5219 53.9261C51.7089 53.8595 51.8808 53.7565 52.0277 53.623C52.1746 53.4895 52.2935 53.3282 52.3776 53.1484C52.4617 52.9686 52.5093 52.7739 52.5176 52.5756C52.5259 52.3772 52.4947 52.1792 52.4259 51.9931C52.3571 51.8069 52.252 51.6362 52.1168 51.4909L22.113 18.4909ZM30.3068 32.4634C29.8183 32.6375 29.3832 32.9352 29.0441 33.3276C28.7049 33.72 28.4733 34.1935 28.3718 34.7021L27.2655 40.2334L18.1193 43.4771C18.1005 43.4771 18.0874 43.5015 18.0687 43.509C15.7568 40.5278 16.0062 36.7178 18.6987 34.029C21.1122 31.6147 24.021 29.7531 27.2243 28.5728L30.6555 32.349C30.5393 32.3865 30.423 32.4221 30.3068 32.4634ZM56.3037 45.3465C55.9072 45.8538 55.3582 46.22 54.7376 46.3912C54.117 46.5624 53.4578 46.5294 52.8574 46.2971L51.123 45.6821C50.9374 45.6163 50.7665 45.5145 50.6202 45.3826C50.4739 45.2507 50.355 45.0913 50.2703 44.9134C50.0992 44.5542 50.0778 44.1418 50.2108 43.7668C50.2767 43.5812 50.3785 43.4103 50.5104 43.264C50.6423 43.1177 50.8017 42.9988 50.9796 42.9141C51.3388 42.743 51.7512 42.7216 52.1262 42.8546L53.883 43.4771L53.9393 43.4996C56.2455 40.5278 56.0018 36.7178 53.3037 34.029C48.4924 29.2178 41.7012 26.6659 34.6755 27.0334C34.4786 27.0436 34.2815 27.0149 34.0956 26.949C33.9097 26.883 33.7386 26.7811 33.5921 26.6491C33.4456 26.517 33.3265 26.3574 33.2417 26.1793C33.1569 26.0012 33.1079 25.8082 33.0977 25.6112C33.0875 25.4142 33.1162 25.2172 33.1821 25.0313C33.2481 24.8454 33.35 24.6743 33.482 24.5277C33.6141 24.3812 33.7737 24.2622 33.9518 24.1773C34.1299 24.0925 34.3229 24.0436 34.5199 24.0334C42.3949 23.6228 50.013 26.4896 55.4243 31.9084C59.1724 35.6565 59.5343 41.1821 56.3037 45.3465Z" fill="white"/>
</svg>
