<svg width="186" height="278" viewBox="0 0 186 278" fill="none" xmlns="http://www.w3.org/2000/svg">
<g opacity="0.3">
<circle cx="178.876" cy="6.12201" r="5.33295" transform="rotate(90 178.876 6.12201)" fill="#989898"/>
<circle cx="178.876" cy="38.122" r="5.33295" transform="rotate(90 178.876 38.122)" fill="#989898"/>
<circle cx="178.876" cy="71.1845" r="5.33295" transform="rotate(90 178.876 71.1845)" fill="#989898"/>
<circle cx="178.876" cy="104.247" r="5.33295" transform="rotate(90 178.876 104.247)" fill="#989898"/>
<circle cx="155.407" cy="6.12201" r="5.33295" transform="rotate(90 155.407 6.12201)" fill="#989898"/>
<circle cx="155.407" cy="38.122" r="5.33295" transform="rotate(90 155.407 38.122)" fill="#989898"/>
<circle cx="155.407" cy="71.1845" r="5.33295" transform="rotate(90 155.407 71.1845)" fill="#989898"/>
<circle cx="155.407" cy="104.247" r="5.33295" transform="rotate(90 155.407 104.247)" fill="#989898"/>
<circle cx="130.876" cy="6.12201" r="5.33295" transform="rotate(90 130.876 6.12201)" fill="#989898"/>
<circle cx="130.876" cy="38.1181" r="5.33295" transform="rotate(90 130.876 38.1181)" fill="#989898"/>
<circle cx="130.884" cy="71.1845" r="5.33295" transform="rotate(90 130.884 71.1845)" fill="#989898"/>
<circle cx="130.876" cy="104.247" r="5.33295" transform="rotate(90 130.876 104.247)" fill="#989898"/>
<circle cx="107.415" cy="6.12201" r="5.33295" transform="rotate(90 107.415 6.12201)" fill="#989898"/>
<circle cx="107.415" cy="38.122" r="5.33295" transform="rotate(90 107.415 38.122)" fill="#989898"/>
<circle cx="107.415" cy="71.1845" r="5.33295" transform="rotate(90 107.415 71.1845)" fill="#989898"/>
<circle cx="107.415" cy="104.247" r="5.33295" transform="rotate(90 107.415 104.247)" fill="#989898"/>
</g>
<rect width="111.431" height="86.8732" rx="18" transform="matrix(0.866025 -0.5 0.866025 0.5 7.58398 234.504)" fill="#857062" style="mix-blend-mode:multiply"/>
<path fill-rule="evenodd" clip-rule="evenodd" d="M72.0492 111.789C68.6777 111.789 65.3655 112.676 62.445 114.36L62.4365 114.365L9.71272 144.493L9.69667 144.502C6.77694 146.188 4.35183 148.611 2.66462 151.53C0.977414 154.449 0.0874423 157.76 0.0839844 161.132V221.414C0.0874423 224.786 0.977415 228.097 2.66462 231.016C4.35183 233.935 6.77694 236.359 9.69667 238.044L9.71272 238.054L62.4365 268.181L62.4457 268.187C65.1992 269.775 68.3008 270.653 71.4721 270.749C71.6624 270.775 71.8569 270.789 72.0546 270.789C72.2533 270.789 72.4487 270.775 72.64 270.748C75.81 270.651 78.91 269.77 81.6619 268.181L81.7056 268.156L81.7081 268.154L81.7155 268.15L84.0537 266.762C85.5522 265.873 87.6996 264.598 90.2948 263.059C95.4854 259.979 102.467 255.838 109.633 251.593C123.992 243.085 139.014 234.202 141.916 232.547C143.213 231.808 144.014 230.429 144.014 228.936V161.132C144.011 157.76 143.121 154.449 141.434 151.53C139.747 148.611 137.322 146.188 134.402 144.502L81.6619 114.365L81.6535 114.36C78.7329 112.676 75.4207 111.789 72.0492 111.789Z" fill="#EC896C"/>
<path d="M42.7678 179.097C42.8074 179.12 42.8567 179.118 42.8949 179.093L113.494 132.366L97.9231 123.414L27.0902 169.699C27.0655 169.715 27.0346 169.718 27.0069 169.708C26.9463 169.685 26.8816 169.73 26.8816 169.795L26.8809 211.111L34.4035 207.737L42.5868 218.585V179.201C42.5868 179.108 42.6875 179.05 42.7678 179.097Z" fill="#FDEDB9"/>
<circle cx="154.584" cy="158.289" r="29" fill="#1FBCD3" stroke="white" stroke-width="3"/>
<path d="M142.584 159.289L149.084 165.789L168.084 146.789" stroke="white" stroke-width="5" stroke-linecap="round"/>
</svg>
