<svg width="60" height="60" viewBox="0 0 60 60" fill="none" xmlns="http://www.w3.org/2000/svg">
<circle opacity="0.12" cx="30" cy="30" r="30" fill="white"/>
<rect width="60" height="60" rx="8" fill="white"/>
<path d="M39.7078 21.7052L21.7078 39.7052C21.5202 39.8929 21.2657 39.9983 21.0003 39.9983C20.7349 39.9983 20.4804 39.8929 20.2928 39.7052C20.1052 39.5176 19.9997 39.2631 19.9997 38.9977C19.9997 38.7324 20.1052 38.4779 20.2928 38.2902L38.2928 20.2902C38.4803 20.1026 38.7346 19.9971 38.9999 19.997C39.2651 19.9969 39.5195 20.1021 39.7072 20.2896C39.8948 20.4771 40.0003 20.7314 40.0004 20.9966C40.0005 21.2619 39.8953 21.5163 39.7078 21.704V21.7052ZM20.3178 26.6802C19.4739 25.8362 18.9999 24.6915 19 23.4979C19.0001 22.3043 19.4744 21.1597 20.3184 20.3158C21.1625 19.472 22.3072 18.9979 23.5007 18.998C24.6943 18.9982 25.8389 19.4724 26.6828 20.3165C27.5267 21.1605 28.0007 22.3052 28.0006 23.4988C28.0005 24.6923 27.5262 25.837 26.6822 26.6808C25.8381 27.5247 24.6934 27.9987 23.4999 27.9986C22.3063 27.9985 21.1617 27.5243 20.3178 26.6802ZM21.0003 23.5002C21.0006 23.9113 21.1023 24.3159 21.2963 24.6783C21.4904 25.0407 21.7707 25.3496 22.1127 25.5778C22.4546 25.806 22.8475 25.9463 23.2566 25.9863C23.6657 26.0264 24.0784 25.965 24.4581 25.8075C24.8378 25.65 25.1728 25.4013 25.4334 25.0835C25.6941 24.7656 25.8723 24.3884 25.9524 23.9852C26.0325 23.582 26.0119 23.1653 25.8925 22.772C25.7731 22.3787 25.5585 22.0208 25.2678 21.7302C24.918 21.3805 24.4724 21.1425 23.9873 21.0461C23.5021 20.9498 22.9994 20.9995 22.5425 21.189C22.0856 21.3785 21.6953 21.6992 21.4207 22.1106C21.1462 22.522 20.9999 23.0056 21.0003 23.5002ZM41.0003 36.5002C41.0001 37.5413 40.6388 38.5501 39.9782 39.3547C39.3176 40.1593 38.3984 40.71 37.3773 40.9129C36.3561 41.1158 35.2962 40.9583 34.3782 40.4674C33.4601 39.9764 32.7407 39.1823 32.3425 38.2204C31.9443 37.2585 31.8919 36.1883 32.1943 35.1921C32.4967 34.1959 33.1352 33.3354 34.0009 32.7571C34.8666 32.1789 35.9061 31.9187 36.9421 32.0209C37.9782 32.1231 38.9468 32.5814 39.6828 33.3177C40.102 33.7347 40.4342 34.2307 40.6604 34.777C40.8865 35.3233 41.0021 35.909 41.0003 36.5002ZM39.0003 36.5002C39.0004 35.9218 38.8 35.3613 38.4331 34.9141C38.0663 34.4669 37.5558 34.1608 36.9885 34.0478C36.4212 33.9349 35.8324 34.0221 35.3222 34.2947C34.8121 34.5672 34.4122 35.0082 34.1908 35.5426C33.9693 36.0769 33.94 36.6715 34.1078 37.225C34.2756 37.7785 34.6302 38.2567 35.111 38.5781C35.5919 38.8995 36.1693 39.0443 36.7449 38.9877C37.3206 38.9311 37.8587 38.6766 38.2678 38.2677C38.5007 38.0362 38.6853 37.7607 38.8111 37.4573C38.9368 37.1539 39.0011 36.8286 39.0003 36.5002Z" fill="#0047BB"/>
</svg>
