<svg width="315" height="304" viewBox="0 0 315 304" fill="none" xmlns="http://www.w3.org/2000/svg">
<ellipse cx="309.3" cy="61.4318" rx="4.95325" ry="5.47719" transform="rotate(90 309.3 61.4318)" fill="#E7E7E7"/>
<ellipse cx="309.3" cy="86.6482" rx="4.95325" ry="5.47719" transform="rotate(90 309.3 86.6482)" fill="#E7E7E7"/>
<ellipse cx="309.3" cy="113.666" rx="4.95325" ry="5.47719" transform="rotate(90 309.3 113.666)" fill="#E7E7E7"/>
<ellipse cx="309.3" cy="61.4318" rx="4.95325" ry="5.47719" transform="rotate(90 309.3 61.4318)" fill="#EAE7FC"/>
<ellipse cx="309.3" cy="86.6482" rx="4.95325" ry="5.47719" transform="rotate(90 309.3 86.6482)" fill="#EAE7FC"/>
<ellipse cx="309.3" cy="113.666" rx="4.95325" ry="5.47719" transform="rotate(90 309.3 113.666)" fill="#EAE7FC"/>
<ellipse cx="281.407" cy="61.4318" rx="4.95325" ry="5.47719" transform="rotate(90 281.407 61.4318)" fill="#E7E7E7"/>
<ellipse cx="281.407" cy="86.6482" rx="4.95325" ry="5.47719" transform="rotate(90 281.407 86.6482)" fill="#E7E7E7"/>
<ellipse cx="281.407" cy="113.666" rx="4.95325" ry="5.47719" transform="rotate(90 281.407 113.666)" fill="#E7E7E7"/>
<ellipse cx="281.407" cy="61.4318" rx="4.95325" ry="5.47719" transform="rotate(90 281.407 61.4318)" fill="#EAE7FC"/>
<ellipse cx="281.407" cy="86.6482" rx="4.95325" ry="5.47719" transform="rotate(90 281.407 86.6482)" fill="#EAE7FC"/>
<ellipse cx="281.407" cy="113.666" rx="4.95325" ry="5.47719" transform="rotate(90 281.407 113.666)" fill="#EAE7FC"/>
<ellipse cx="253.514" cy="61.4318" rx="4.95325" ry="5.47719" transform="rotate(90 253.514 61.4318)" fill="#E7E7E7"/>
<ellipse cx="253.514" cy="86.6482" rx="4.95325" ry="5.47719" transform="rotate(90 253.514 86.6482)" fill="#E7E7E7"/>
<ellipse cx="253.514" cy="113.666" rx="4.95325" ry="5.47719" transform="rotate(90 253.514 113.666)" fill="#E7E7E7"/>
<ellipse cx="253.514" cy="61.4318" rx="4.95325" ry="5.47719" transform="rotate(90 253.514 61.4318)" fill="#EAE7FC"/>
<ellipse cx="253.514" cy="86.6482" rx="4.95325" ry="5.47719" transform="rotate(90 253.514 86.6482)" fill="#EAE7FC"/>
<ellipse cx="253.514" cy="113.666" rx="4.95325" ry="5.47719" transform="rotate(90 253.514 113.666)" fill="#EAE7FC"/>
<path d="M96.3581 152.99H88.3666C79.2432 152.99 71.8459 145.767 71.8459 136.857V131.013" stroke="#341E61" stroke-width="1.56878"/>
<path d="M95.0685 42.2623L95.1117 251.883" stroke="#341E61" stroke-width="1.56878"/>
<path fill-rule="evenodd" clip-rule="evenodd" d="M91.2866 56.6316H114.828H115.079H138.62C125.695 63.8752 116.671 94.7242 115.079 100.496V101.43C115.079 101.43 115.036 101.263 114.954 100.957C114.871 101.263 114.828 101.43 114.828 101.43V100.496C113.236 94.7242 104.211 63.8752 91.2866 56.6316Z" fill="#CD89C5"/>
<path fill-rule="evenodd" clip-rule="evenodd" d="M91.2866 56.6316C104.211 63.8752 113.236 94.7242 114.828 100.496V101.43C114.828 101.43 114.871 101.263 114.954 100.957C115.036 101.263 115.079 101.43 115.079 101.43V100.496C116.671 94.7242 125.695 63.8752 138.62 56.6316C138.62 56.6316 122.479 66.7508 115.705 81.2917C115.705 81.2917 120.805 69.3923 114.769 58.4356C114.769 58.4356 109.453 68.1526 114.141 81.2917C114.141 81.2917 105.975 59.9471 91.2866 56.6316Z" fill="#9E55B8"/>
<path fill-rule="evenodd" clip-rule="evenodd" d="M120.87 85.3699C120.87 85.3699 116.549 96.7511 115.61 101.43C115.61 101.43 110.304 86.708 109.882 85.3699C109.882 85.3699 115.636 88.0499 115.636 92.1972C115.636 92.1972 117.066 85.6381 120.87 85.3699Z" fill="#46C2C3"/>
<path d="M96.3579 120.025H99.4693C108.488 120.025 115.799 112.802 115.799 103.893V98.0485" stroke="#341E61" stroke-width="1.56878"/>
<path fill-rule="evenodd" clip-rule="evenodd" d="M120.87 85.3699C120.87 85.3699 115.754 86.7589 115.754 94.1868C115.754 94.1868 117.035 103.247 114.953 111.573C114.953 111.573 117.091 108.694 117.035 100.472L120.87 85.3699Z" fill="#672EBB"/>
<path fill-rule="evenodd" clip-rule="evenodd" d="M95.5127 91.2865H71.9714H71.7195H48.179C61.1041 98.5302 70.1281 129.38 71.7195 135.152V136.085C71.7195 136.085 71.7629 135.919 71.8458 135.612C71.9288 135.919 71.9714 136.085 71.9714 136.085V135.152C73.5636 129.38 82.5875 98.5302 95.5127 91.2865Z" fill="#CD89C5"/>
<path fill-rule="evenodd" clip-rule="evenodd" d="M95.5127 91.2865C82.5875 98.5302 73.5636 129.38 71.9714 135.152V136.085C71.9714 136.085 71.9288 135.919 71.8458 135.612C71.7629 135.919 71.7195 136.085 71.7195 136.085V135.152C70.1281 129.38 61.1041 98.5302 48.179 91.2865C48.179 91.2865 64.3204 101.406 71.0939 115.947C71.0939 115.947 65.994 104.047 72.0293 93.0898C72.0293 93.0898 77.3468 102.808 72.6571 115.947C72.6571 115.947 80.8241 94.6021 95.5127 91.2865Z" fill="#9E55B8"/>
<path fill-rule="evenodd" clip-rule="evenodd" d="M66.3518 119.369C66.3518 119.369 70.6725 130.751 71.6111 135.429C71.6111 135.429 76.9175 120.707 77.34 119.369C77.34 119.369 71.5863 122.049 71.5863 126.197C71.5863 126.197 70.1556 119.637 66.3518 119.369Z" fill="#46C2C3"/>
<path fill-rule="evenodd" clip-rule="evenodd" d="M77.7627 118.924C77.7627 118.924 71.9552 120.534 71.9552 127.986C71.9552 127.986 71.0711 141.473 74.3321 144.281C74.3321 144.281 71.7346 136.354 73.3372 132.17L77.7627 118.924Z" fill="#672EBB"/>
<path fill-rule="evenodd" clip-rule="evenodd" d="M116.644 21.1312C116.644 32.8017 107.183 42.2623 95.5127 42.2623C83.8422 42.2623 74.3816 32.8017 74.3816 21.1312C74.3816 9.46061 83.8422 0 95.5127 0C107.183 0 116.644 9.46061 116.644 21.1312Z" fill="#CD89C5"/>
<path d="M92.2301 11.6707C93.0223 11.6707 93.7339 11.8519 94.3649 12.2144C94.996 12.5635 95.4927 13.0603 95.8552 13.7048C96.2312 14.3492 96.4191 15.1011 96.4191 15.9604C96.4191 16.8197 96.2312 17.5783 95.8552 18.2362C95.4927 18.8941 94.9892 19.411 94.3448 19.7869C93.7137 20.1494 93.0088 20.3307 92.2301 20.3307C91.4514 20.3307 90.7398 20.1494 90.0953 19.7869C89.4643 19.411 88.9675 18.8941 88.605 18.2362C88.2425 17.5783 88.0612 16.8197 88.0612 15.9604C88.0612 15.1011 88.2425 14.3492 88.605 13.7048C88.9675 13.0603 89.4643 12.5635 90.0953 12.2144C90.7398 11.8519 91.4514 11.6707 92.2301 11.6707ZM95.2108 26.574H92.2905L100.346 11.8721H103.267L95.2108 26.574ZM92.2301 14.1076C91.8542 14.1076 91.5521 14.2754 91.3238 14.6111C91.0956 14.9333 90.9815 15.3831 90.9815 15.9604C90.9815 16.5512 91.0956 17.0211 91.3238 17.3702C91.5655 17.7193 91.8676 17.8938 92.2301 17.8938C92.6061 17.8938 92.9081 17.7193 93.1364 17.3702C93.3781 17.0211 93.4989 16.5512 93.4989 15.9604C93.4989 15.3831 93.3781 14.9333 93.1364 14.6111C92.9081 14.2754 92.6061 14.1076 92.2301 14.1076ZM103.367 18.1153C104.159 18.1153 104.871 18.2966 105.502 18.6591C106.133 19.0082 106.63 19.505 106.992 20.1494C107.368 20.7939 107.556 21.5458 107.556 22.4051C107.556 23.2644 107.368 24.023 106.992 24.6809C106.63 25.3387 106.126 25.8557 105.482 26.2316C104.851 26.5941 104.146 26.7754 103.367 26.7754C102.589 26.7754 101.877 26.5941 101.233 26.2316C100.601 25.8557 100.105 25.3387 99.7422 24.6809C99.3797 24.023 99.1984 23.2644 99.1984 22.4051C99.1984 21.5458 99.3797 20.7939 99.7422 20.1494C100.105 19.505 100.601 19.0082 101.233 18.6591C101.877 18.2966 102.589 18.1153 103.367 18.1153ZM103.367 20.5522C102.991 20.5522 102.689 20.7201 102.461 21.0557C102.233 21.378 102.119 21.8277 102.119 22.4051C102.119 22.9958 102.233 23.4658 102.461 23.8149C102.703 24.1639 103.005 24.3385 103.367 24.3385C103.743 24.3385 104.045 24.1639 104.274 23.8149C104.515 23.4658 104.636 22.9958 104.636 22.4051C104.636 21.8277 104.515 21.378 104.274 21.0557C104.045 20.7201 103.743 20.5522 103.367 20.5522Z" fill="white"/>
<path fill-rule="evenodd" clip-rule="evenodd" d="M201.365 295.26C201.365 290.921 157.183 287.403 102.682 287.403C48.181 287.403 4 290.921 4 295.26C4 299.6 48.181 303.117 102.682 303.117C157.183 303.117 201.365 299.6 201.365 295.26Z" fill="#685A9B"/>
<path fill-rule="evenodd" clip-rule="evenodd" d="M42.2624 73.3835C42.2624 74.7832 41.1271 75.9189 39.7263 75.9189C38.3262 75.9189 37.1909 74.7832 37.1909 73.3835C37.1909 71.9831 38.3262 70.8474 39.7263 70.8474C41.1271 70.8474 42.2624 71.9831 42.2624 73.3835Z" fill="#7C7AC2"/>
<path fill-rule="evenodd" clip-rule="evenodd" d="M76.216 61.432C76.216 62.8316 75.0807 63.9674 73.6799 63.9674C72.2799 63.9674 71.1445 62.8316 71.1445 61.432C71.1445 60.0316 72.2799 58.8959 73.6799 58.8959C75.0807 58.8959 76.216 60.0316 76.216 61.432Z" fill="#46C2C3"/>
<path fill-rule="evenodd" clip-rule="evenodd" d="M213.037 158.843C213.037 160.243 211.901 161.379 210.5 161.379C209.1 161.379 207.965 160.243 207.965 158.843C207.965 157.443 209.1 156.307 210.5 156.307C211.901 156.307 213.037 157.443 213.037 158.843Z" fill="#46C2C3"/>
<path fill-rule="evenodd" clip-rule="evenodd" d="M48.1791 28.7387C48.1791 30.1384 47.0438 31.2741 45.643 31.2741C44.243 31.2741 43.1077 30.1384 43.1077 28.7387C43.1077 27.3384 44.243 26.2026 45.643 26.2026C47.0438 26.2026 48.1791 27.3384 48.1791 28.7387Z" fill="#5438A1"/>
<path fill-rule="evenodd" clip-rule="evenodd" d="M135.24 193.408H137.775V105.502H135.24V193.408Z" fill="#7C7AC2"/>
<path fill-rule="evenodd" clip-rule="evenodd" d="M18.3014 138.182C18.3014 138.182 12.2328 163.573 40.3685 165.229C40.3685 165.229 44.2304 140.942 18.3014 138.182Z" fill="#46C2C3"/>
<path fill-rule="evenodd" clip-rule="evenodd" d="M18.3014 192.277C18.3014 192.277 12.2328 217.669 40.3685 219.325C40.3685 219.325 44.2304 195.038 18.3014 192.277Z" fill="#46C2C3"/>
<path fill-rule="evenodd" clip-rule="evenodd" d="M113.814 169.741C113.814 169.741 107.745 195.133 135.881 196.789C135.881 196.789 139.742 172.502 113.814 169.741Z" fill="#7C7AC2"/>
<path fill-rule="evenodd" clip-rule="evenodd" d="M63.4764 136.499C63.4764 136.499 37.5322 135.244 41.1246 163.539C41.1246 163.539 65.5814 162.808 63.4764 136.499Z" fill="#46C2C3"/>
<path fill-rule="evenodd" clip-rule="evenodd" d="M159.623 169.75C159.623 169.75 133.679 168.494 137.271 196.789C137.271 196.789 161.727 196.058 159.623 169.75Z" fill="#7C7AC2"/>
<path fill-rule="evenodd" clip-rule="evenodd" d="M187.516 147.773C187.516 147.773 161.572 146.518 165.164 174.813C165.164 174.813 189.621 174.082 187.516 147.773Z" fill="#7C7AC2"/>
<path fill-rule="evenodd" clip-rule="evenodd" d="M188.361 113.118C188.361 113.118 162.417 111.863 166.01 140.158C166.01 140.158 190.466 139.427 188.361 113.118Z" fill="#7C7AC2"/>
<path fill-rule="evenodd" clip-rule="evenodd" d="M63.2649 192.592C63.2649 192.592 37.3207 191.336 40.9132 219.631C40.9132 219.631 65.37 218.901 63.2649 192.592Z" fill="#46C2C3"/>
<path fill-rule="evenodd" clip-rule="evenodd" d="M39.4041 106.062C39.4041 106.062 20.031 122.803 41.0963 140.717C41.0963 140.717 58.107 123.558 39.4041 106.062Z" fill="#46C2C3"/>
<path fill-rule="evenodd" clip-rule="evenodd" d="M114.237 137.622C114.237 137.622 108.169 163.014 136.304 164.67C136.304 164.67 140.166 140.382 114.237 137.622Z" fill="#7C7AC2"/>
<path fill-rule="evenodd" clip-rule="evenodd" d="M159.201 125.95C159.201 125.95 133.256 124.694 136.849 152.99C136.849 152.99 161.305 152.259 159.201 125.95Z" fill="#7C7AC2"/>
<path fill-rule="evenodd" clip-rule="evenodd" d="M134.917 97.8953C134.917 97.8953 115.544 114.636 136.609 132.55C136.609 132.55 153.619 115.391 134.917 97.8953Z" fill="#7C7AC2"/>
<path fill-rule="evenodd" clip-rule="evenodd" d="M143.398 86.0619C143.398 86.0619 137.329 111.454 165.465 113.11C165.465 113.11 169.327 88.8218 143.398 86.0619Z" fill="#7C7AC2"/>
<path fill-rule="evenodd" clip-rule="evenodd" d="M188.361 78.4629C188.361 78.4629 162.417 77.2066 166.01 105.502C166.01 105.502 190.466 104.772 188.361 78.4629Z" fill="#7C7AC2"/>
<path fill-rule="evenodd" clip-rule="evenodd" d="M164.823 193.408H166.513V79.2999H164.823V193.408Z" fill="#7C7AC2"/>
<path fill-rule="evenodd" clip-rule="evenodd" d="M39.7266 219.325H41.4171V133.955H39.7266V219.325Z" fill="#46C2C3"/>
<path fill-rule="evenodd" clip-rule="evenodd" d="M164.501 51.4067C164.501 51.4067 145.127 68.1478 166.193 86.0618C166.193 86.0618 183.203 68.9021 164.501 51.4067Z" fill="#7C7AC2"/>
<path fill-rule="evenodd" clip-rule="evenodd" d="M0 190.872L12.6318 218.382C17.3038 228.556 20.7159 239.237 23.2765 250.134C26.6179 264.353 36.0526 276.222 48.6751 282.866H48.3042V293.992H155.399V282.866H155.03C167.652 276.222 177.087 264.353 180.428 250.134C182.988 239.237 186.4 228.556 191.073 218.382L203.704 190.872H0Z" fill="#806ABF"/>
<path fill-rule="evenodd" clip-rule="evenodd" d="M184.384 228.865L163.729 221.631C160.729 220.58 159.139 217.267 160.176 214.231C161.214 211.194 164.488 209.584 167.488 210.635C168.194 210.882 168.838 211.27 169.373 211.737L185.889 226.227C186.529 226.788 186.599 227.767 186.044 228.416C185.622 228.908 184.958 229.065 184.384 228.865Z" fill="#D8C7E5"/>
<path fill-rule="evenodd" clip-rule="evenodd" d="M185.781 233.208L169.264 247.698C166.865 249.802 163.235 249.54 161.156 247.112C159.076 244.683 159.337 241.009 161.735 238.905C162.301 238.408 162.954 238.039 163.62 237.803L184.276 230.569C185.076 230.288 185.949 230.718 186.226 231.528C186.436 232.144 186.239 232.804 185.781 233.208Z" fill="#D8C7E5"/>
<path fill-rule="evenodd" clip-rule="evenodd" d="M98.8485 252.755L95.0662 232.895C94.5177 230.011 96.3815 227.221 99.2296 226.665C102.078 226.109 104.832 227.996 105.382 230.881C105.511 231.561 105.501 232.253 105.382 232.895L101.6 252.755C101.453 253.524 100.718 254.027 99.9592 253.879C99.381 253.766 98.955 253.305 98.8485 252.755Z" fill="#D8C7E5"/>
<path fill-rule="evenodd" clip-rule="evenodd" d="M96.0916 255.859L77.2166 249.245C74.4757 248.285 73.022 245.256 73.9706 242.48C74.9192 239.704 77.9104 238.232 80.6512 239.192C81.2979 239.419 81.8851 239.774 82.3743 240.2L97.4678 253.446C98.052 253.959 98.1151 254.855 97.6085 255.447C97.2228 255.898 96.6157 256.04 96.0916 255.859Z" fill="#D8C7E5"/>
<path fill-rule="evenodd" clip-rule="evenodd" d="M97.3679 259.828L82.2744 273.075C80.082 274.998 76.7653 274.759 74.8658 272.539C72.9662 270.319 73.2028 266.96 75.3945 265.036C75.9117 264.582 76.5089 264.244 77.1175 264.029L95.9918 257.415C96.7236 257.159 97.5216 257.552 97.7741 258.292C97.9666 258.855 97.7863 259.459 97.3679 259.828Z" fill="white"/>
<path fill-rule="evenodd" clip-rule="evenodd" d="M101.401 260.694L105.183 280.553C105.732 283.438 103.868 286.228 101.02 286.783C98.1718 287.339 95.4173 285.453 94.868 282.568C94.7387 281.888 94.7478 281.195 94.868 280.553L98.6496 260.694C98.7964 259.925 99.5305 259.421 100.29 259.57C100.869 259.683 101.295 260.143 101.401 260.694Z" fill="white"/>
<path fill-rule="evenodd" clip-rule="evenodd" d="M104.158 257.59L123.033 264.203C125.774 265.164 127.227 268.193 126.279 270.969C125.33 273.745 122.339 275.217 119.598 274.256C118.951 274.03 118.364 273.675 117.875 273.249L102.782 260.003C102.197 259.49 102.134 258.593 102.641 258.001C103.027 257.551 103.634 257.408 104.158 257.59Z" fill="white"/>
<path fill-rule="evenodd" clip-rule="evenodd" d="M102.882 253.621L117.975 240.374C120.167 238.45 123.483 238.69 125.384 240.91C127.283 243.13 127.047 246.489 124.855 248.412C124.338 248.866 123.741 249.204 123.132 249.42L104.257 256.033C103.526 256.289 102.728 255.897 102.475 255.156C102.282 254.594 102.463 253.99 102.882 253.621Z" fill="#D8C7E5"/>
<path fill-rule="evenodd" clip-rule="evenodd" d="M41.0616 193.409L25.9445 206.825C23.7486 208.773 20.4267 208.53 18.5235 206.282C16.621 204.034 16.8579 200.632 19.0537 198.683C19.5718 198.223 20.1692 197.881 20.7795 197.663L39.6833 190.964C40.4155 190.705 41.2147 191.103 41.4684 191.853C41.6612 192.423 41.4799 193.035 41.0616 193.409Z" fill="#D8C7E5"/>
<path fill-rule="evenodd" clip-rule="evenodd" d="M45.101 194.285L48.8884 214.399C49.4378 217.321 47.5711 220.146 44.7185 220.709C41.8659 221.273 39.1078 219.361 38.5577 216.44C38.4274 215.751 38.4373 215.049 38.5577 214.399L42.3451 194.285C42.4914 193.506 43.2274 192.996 43.9886 193.147C44.5676 193.261 44.9935 193.727 45.101 194.285Z" fill="#D8C7E5"/>
<path fill-rule="evenodd" clip-rule="evenodd" d="M47.8616 191.141L66.7661 197.839C69.5121 198.812 70.9673 201.88 70.018 204.692C69.0679 207.504 66.0713 208.994 63.3261 208.021C62.6785 207.792 62.0903 207.433 61.6004 207.001L46.4833 193.586C45.8981 193.066 45.8349 192.158 46.3423 191.558C46.7286 191.102 47.3366 190.957 47.8616 191.141Z" fill="#D8C7E5"/>
<path fill-rule="evenodd" clip-rule="evenodd" d="M185.954 56.4782C185.954 68.1487 176.493 77.6093 164.823 77.6093C153.153 77.6093 143.692 68.1487 143.692 56.4782C143.692 44.8077 153.153 35.347 164.823 35.347C176.493 35.347 185.954 44.8077 185.954 56.4782Z" fill="#5438A1"/>
<path d="M164.147 64.2623L160.144 57.2783V55.6324H161.478C162.012 55.6324 162.479 55.5583 162.88 55.41C163.295 55.2469 163.636 55.017 163.903 54.7205C164.184 54.4239 164.377 54.068 164.481 53.6529H160.144V52.0069H164.459C164.37 51.6214 164.214 51.2804 163.992 50.9838C163.784 50.6873 163.502 50.4574 163.146 50.2943C162.805 50.1164 162.39 50.0274 161.901 50.0274H160.144V48.3815H170.175V50.0274H166.683C166.935 50.3091 167.143 50.6131 167.306 50.9393C167.484 51.2655 167.602 51.6214 167.662 52.0069H170.175V53.6529H167.706C167.558 54.7501 167.135 55.6102 166.438 56.2329C165.741 56.8409 164.844 57.2561 163.747 57.4785L168.106 64.2623H164.147Z" fill="white"/>
</svg>
