<svg width="60" height="60" viewBox="0 0 60 60" fill="none" xmlns="http://www.w3.org/2000/svg">
<circle opacity="0.12" cx="30" cy="30" r="30" fill="#FFCD00"/>
<rect width="60" height="60" rx="8" fill="#872587"/>
<path d="M36 16H24C23.2044 16 22.4413 16.3161 21.8787 16.8787C21.3161 17.4413 21 18.2044 21 19V41C21 41.7956 21.3161 42.5587 21.8787 43.1213C22.4413 43.6839 23.2044 44 24 44H36C36.7956 44 37.5587 43.6839 38.1213 43.1213C38.6839 42.5587 39 41.7956 39 41V19C39 18.2044 38.6839 17.4413 38.1213 16.8787C37.5587 16.3161 36.7956 16 36 16ZM23 22H37V38H23V22ZM24 18H36C36.2652 18 36.5196 18.1054 36.7071 18.2929C36.8946 18.4804 37 18.7348 37 19V20H23V19C23 18.7348 23.1054 18.4804 23.2929 18.2929C23.4804 18.1054 23.7348 18 24 18ZM36 42H24C23.7348 42 23.4804 41.8946 23.2929 41.7071C23.1054 41.5196 23 41.2652 23 41V40H37V41C37 41.2652 36.8946 41.5196 36.7071 41.7071C36.5196 41.8946 36.2652 42 36 42Z" fill="white"/>
</svg>
