<svg width="68" height="68" viewBox="0 0 68 68" fill="none" xmlns="http://www.w3.org/2000/svg">
<rect width="68" height="68" rx="8" fill="#5F259F"/>
<path d="M29.6252 32.1922C29.8153 32.0825 29.9731 31.9246 30.0828 31.7345C30.1925 31.5445 30.2503 31.3288 30.2502 31.1094V19.8594C30.2491 19.6601 30.2004 19.464 30.108 19.2873C30.0157 19.1107 29.8825 18.9587 29.7195 18.844C29.5565 18.7294 29.3685 18.6553 29.1711 18.6281C28.9736 18.6009 28.7726 18.6212 28.5846 18.6875C24.9361 19.9788 21.8679 22.5291 19.9315 25.8801C17.9951 29.2311 17.3175 33.1629 18.0205 36.9688C18.057 37.1656 18.1402 37.3507 18.2631 37.5087C18.386 37.6667 18.545 37.7928 18.7268 37.8766C18.8906 37.9532 19.0694 37.9927 19.2502 37.9922C19.4696 37.9923 19.6852 37.9346 19.8752 37.825L29.6252 32.1922ZM27.7502 21.7531V30.3875L20.269 34.7047C20.2502 34.4688 20.2502 34.2313 20.2502 34C20.2524 31.4662 20.9538 28.9821 22.2771 26.8213C23.6004 24.6605 25.4943 22.9067 27.7502 21.7531ZM48.1159 25.9562C48.1018 25.9281 48.0877 25.8984 48.0705 25.8703C48.0534 25.8422 48.0393 25.8188 48.0221 25.7938C46.5894 23.3466 44.5415 21.3167 42.0817 19.9056C39.622 18.4946 36.836 17.7514 34.0002 17.75C33.6687 17.75 33.3508 17.8817 33.1163 18.1161C32.8819 18.3505 32.7502 18.6685 32.7502 19V33.3484L20.4362 40.5203C20.2933 40.6031 20.1682 40.7135 20.0682 40.8449C19.9682 40.9764 19.8952 41.1264 19.8535 41.2862C19.8118 41.446 19.8022 41.6125 19.8253 41.7761C19.8483 41.9396 19.9035 42.097 19.9877 42.2391C21.7944 45.3156 24.5634 47.712 27.8673 49.0586C31.1712 50.4051 34.8265 50.6268 38.269 49.6896C41.7115 48.7524 44.7498 46.7083 46.9152 43.8727C49.0805 41.0372 50.2525 37.5678 50.2502 34C50.2538 31.1783 49.5179 28.4049 48.1159 25.9562ZM35.2502 20.3063C37.2327 20.4887 39.152 21.0993 40.8755 22.0958C42.5991 23.0923 44.0858 24.451 45.233 26.0781L35.2502 31.8922V20.3063ZM34.0002 47.75C31.8181 47.7444 29.6682 47.2222 27.7267 46.226C25.7852 45.2298 24.1071 43.7881 22.8299 42.0188L34.6112 35.1578L34.6455 35.1359L46.4846 28.2406C47.4509 30.3355 47.8746 32.6399 47.7167 34.9416C47.5587 37.2432 46.8241 39.4681 45.5806 41.4113C44.3371 43.3545 42.6246 44.9536 40.6009 46.0614C38.5772 47.1691 36.3073 47.7498 34.0002 47.75Z" fill="white"/>
</svg>
