<svg width="68" height="68" viewBox="0 0 68 68" fill="none" xmlns="http://www.w3.org/2000/svg">
<rect width="68" height="68" rx="8.16" fill="#007C08"/>
<path d="M42.925 27.8753V26.9876C42.925 22.9905 36.8958 19.9751 28.9 19.9751C20.9042 19.9751 14.875 22.9905 14.875 26.9876V33.3626C14.875 36.6919 19.0586 39.3376 25.075 40.1297V41.0126C25.075 45.0097 31.1042 48.0251 39.1 48.0251C47.0958 48.0251 53.125 45.0097 53.125 41.0126V34.6376C53.125 31.3385 49.0737 28.6897 42.925 27.8753ZM50.575 34.6376C50.575 36.7445 45.6678 39.1001 39.1 39.1001C38.5055 39.1001 37.9158 39.0794 37.3341 39.0411C40.7718 37.7884 42.925 35.7532 42.925 33.3626V30.4524C47.6855 31.1616 50.575 33.0869 50.575 34.6376ZM25.075 37.5462V33.7547C26.3433 33.9199 27.621 34.0019 28.9 34.0001C30.179 34.0019 31.4567 33.9199 32.725 33.7547V37.5462C31.4586 37.7333 30.1801 37.8265 28.9 37.8251C27.6199 37.8265 26.3414 37.7333 25.075 37.5462ZM40.375 31.1202V33.3626C40.375 34.6998 38.3972 36.1357 35.275 37.0075V33.2829C37.3325 32.7841 39.0745 32.0414 40.375 31.1202ZM28.9 22.5251C35.4678 22.5251 40.375 24.8807 40.375 26.9876C40.375 29.0945 35.4678 31.4501 28.9 31.4501C22.3322 31.4501 17.425 29.0945 17.425 26.9876C17.425 24.8807 22.3322 22.5251 28.9 22.5251ZM17.425 33.3626V31.1202C18.7255 32.0414 20.4675 32.7841 22.525 33.2829V37.0075C19.4028 36.1357 17.425 34.6998 17.425 33.3626ZM27.625 41.0126V40.348C28.0442 40.3639 28.4681 40.3751 28.9 40.3751C29.5184 40.3751 30.1224 40.3544 30.7153 40.3193C31.3739 40.5551 32.0448 40.7551 32.725 40.9186V44.6575C29.6028 43.7857 27.625 42.3498 27.625 41.0126ZM35.275 45.1962V41.3951C36.5429 41.5655 37.8207 41.6507 39.1 41.6501C40.379 41.6519 41.6567 41.5699 42.925 41.4047V45.1962C40.3886 45.5681 37.8114 45.5681 35.275 45.1962ZM45.475 44.6575V40.9329C47.5325 40.4341 49.2745 39.6914 50.575 38.7702V41.0126C50.575 42.3498 48.5972 43.7857 45.475 44.6575Z" fill="white"/>
</svg>
