<svg width="108" height="109" viewBox="0 0 108 109" fill="none" xmlns="http://www.w3.org/2000/svg">
<g clip-path="url(#clip0_4301_6146)">
<rect y="0.65625" width="108" height="108" rx="13.7907" fill="#F6C28E"/>
<circle cx="53.9947" cy="54.6549" r="30.2994" stroke="white" stroke-width="5.49153" stroke-linejoin="round"/>
<path fill-rule="evenodd" clip-rule="evenodd" d="M61.0504 43.4788V47.1193H65.4916V50.5475H60.9198C60.5717 53.0875 59.4756 55.0071 57.632 56.3043C55.7885 57.6028 52.9794 58.2514 49.2061 58.2514V60.9182C49.2061 63.8537 50.4542 65.3207 52.9511 65.3207C54.1702 65.3207 55.0771 64.9541 55.6725 64.2196C56.2672 63.4864 56.5656 62.386 56.5656 60.9182H62.2695C62.1534 63.712 61.326 65.8921 59.7878 67.4579C58.2489 69.0243 56.0572 69.8071 53.2122 69.8071C50.0481 69.8071 47.6313 68.9961 45.9618 67.3733C44.2924 65.7511 43.458 63.3172 43.458 60.0716V54.3571C46.6222 54.3571 48.9885 54.2658 50.5557 54.0819C52.1236 53.8992 53.2481 53.5394 53.9305 53.0029C54.6123 52.4671 55.0412 51.648 55.2153 50.5475H42.5V47.1193H55.3023V43.4788H42.5V39.5H65.4916V43.4788H61.0504Z" fill="white"/>
</g>
<defs>
<clipPath id="clip0_4301_6146">
<rect width="108" height="108" fill="white" transform="translate(0 0.65625)"/>
</clipPath>
</defs>
</svg>
