<svg width="53" height="54" viewBox="0 0 53 54" fill="none" xmlns="http://www.w3.org/2000/svg">
<path d="M26.7044 2.1958L31.002 8.28715L37.517 4.66371L38.7461 12.0165L46.188 11.5786L44.1052 18.7365L51.0001 21.571L46.0178 27.1163L51.0001 32.6617L44.1052 35.4961L46.188 42.654L38.7461 42.2161L37.517 49.5689L31.002 45.9455L26.7044 52.0368L22.4068 45.9455L15.8918 49.5689L14.6627 42.2161L7.22075 42.654L9.30363 35.4961L2.40869 32.6617L7.391 27.1163L2.40869 21.571L9.30363 18.7365L7.22075 11.5786L14.6627 12.0165L15.8918 4.66371L22.4068 8.28715L26.7044 2.1958Z" stroke="url(#paint0_linear_2759_873)" stroke-width="3.88973" stroke-linecap="round" stroke-linejoin="round"/>
<path d="M19.7931 34.773L30.0614 19.7358H33.6918L23.4236 34.773H19.7931ZM21.2324 27.8989C20.4734 27.8989 19.7931 27.7413 19.1917 27.4263C18.5902 27.0969 18.1104 26.6171 17.7524 25.987C17.4087 25.3569 17.2368 24.5978 17.2368 23.7099C17.2368 22.822 17.4087 22.0702 17.7524 21.4544C18.1104 20.8242 18.5902 20.3445 19.1917 20.0151C19.7931 19.6857 20.4734 19.521 21.2324 19.521C21.9914 19.521 22.6717 19.6857 23.2732 20.0151C23.8747 20.3445 24.3473 20.8242 24.691 21.4544C25.049 22.0702 25.228 22.822 25.228 23.7099C25.228 24.5978 25.049 25.3569 24.691 25.987C24.3473 26.6171 23.8747 27.0969 23.2732 27.4263C22.6717 27.7413 21.9914 27.8989 21.2324 27.8989ZM21.2324 25.5788C21.4759 25.5788 21.6907 25.45 21.8769 25.1922C22.0774 24.9201 22.1776 24.426 22.1776 23.7099C22.1776 22.9939 22.0774 22.507 21.8769 22.2492C21.6907 21.9771 21.4759 21.841 21.2324 21.841C21.0033 21.841 20.7885 21.9771 20.588 22.2492C20.3875 22.507 20.2872 22.9939 20.2872 23.7099C20.2872 24.426 20.3875 24.9201 20.588 25.1922C20.7885 25.45 21.0033 25.5788 21.2324 25.5788ZM32.2526 34.9879C31.4935 34.9879 30.8133 34.8303 30.2118 34.5153C29.6103 34.1859 29.1305 33.7061 28.7725 33.076C28.4288 32.4459 28.257 31.6868 28.257 30.7989C28.257 29.911 28.4288 29.1591 28.7725 28.5433C29.1305 27.9132 29.6103 27.4334 30.2118 27.1041C30.8133 26.7747 31.4935 26.61 32.2526 26.61C33.0116 26.61 33.6918 26.7747 34.2933 27.1041C34.8948 27.4334 35.3674 27.9132 35.7111 28.5433C36.0692 29.1591 36.2482 29.911 36.2482 30.7989C36.2482 31.6868 36.0692 32.4459 35.7111 33.076C35.3674 33.7061 34.8948 34.1859 34.2933 34.5153C33.6918 34.8303 33.0116 34.9879 32.2526 34.9879ZM32.2526 32.6678C32.496 32.6678 32.7108 32.5389 32.897 32.2812C33.0975 32.0091 33.1978 31.515 33.1978 30.7989C33.1978 30.0829 33.0975 29.5959 32.897 29.3382C32.7108 29.0661 32.496 28.93 32.2526 28.93C32.0234 28.93 31.8086 29.0661 31.6081 29.3382C31.4076 29.5959 31.3074 30.0829 31.3074 30.7989C31.3074 31.515 31.4076 32.0091 31.6081 32.2812C31.8086 32.5389 32.0234 32.6678 32.2526 32.6678Z" fill="url(#paint1_linear_2759_873)"/>
<defs>
<linearGradient id="paint0_linear_2759_873" x1="11.8814" y1="-3.08486" x2="1.0668" y2="54.4282" gradientUnits="userSpaceOnUse">
<stop stop-color="#FCAB79"/>
<stop offset="1" stop-color="#F49299"/>
</linearGradient>
<linearGradient id="paint1_linear_2759_873" x1="20.8058" y1="1.08559" x2="2.89988" y2="46.0468" gradientUnits="userSpaceOnUse">
<stop stop-color="#FCAB79"/>
<stop offset="1" stop-color="#F49299"/>
</linearGradient>
</defs>
</svg>
