<svg width="312" height="104" viewBox="0 0 312 104" fill="none" xmlns="http://www.w3.org/2000/svg">
<rect x="120" y="31" width="192" height="42" rx="6" fill="#007C08"/>
<path d="M111 53.7321C109.667 52.9623 109.667 51.0377 111 50.2679L123 43.3397C124.333 42.5699 126 43.5322 126 45.0718L126 58.9282C126 60.4678 124.333 61.4301 123 60.6603L111 53.7321Z" fill="#007C08"/>
<rect width="104" height="104" rx="6" fill="#007C08"/>
<g clip-path="url(#clip0_3221_4653)">
<rect x="4" y="4" width="96" height="96" rx="4" fill="white"/>
<mask id="mask0_3221_4653" style="mask-type:luminance" maskUnits="userSpaceOnUse" x="4" y="4" width="96" height="96">
<path d="M100 4H4V100H100V4Z" fill="white"/>
</mask>
<g mask="url(#mask0_3221_4653)">
<g filter="url(#filter0_d_3221_4653)">
<path d="M12.5018 9.94727H9.95312V12.4959H12.5018V9.94727Z" fill="black"/>
<path d="M15.0487 9.94727H12.5V12.4959H15.0487V9.94727Z" fill="black"/>
<path d="M17.5955 9.94727H15.0469V12.4959H17.5955V9.94727Z" fill="black"/>
<path d="M20.1502 9.94727H17.6016V12.4959H20.1502V9.94727Z" fill="black"/>
<path d="M22.6971 9.94727H20.1484V12.4959H22.6971V9.94727Z" fill="black"/>
<path d="M25.244 9.94727H22.6953V12.4959H25.244V9.94727Z" fill="black"/>
<path d="M27.7909 9.94727H25.2422V12.4959H27.7909V9.94727Z" fill="black"/>
<path d="M32.8846 9.94727H30.3359V12.4959H32.8846V9.94727Z" fill="black"/>
<path d="M35.4471 9.94727H32.8984V12.4959H35.4471V9.94727Z" fill="black"/>
<path d="M37.9862 9.94727H35.4375V12.4959H37.9862V9.94727Z" fill="black"/>
<path d="M43.0877 9.94727H40.5391V12.4959H43.0877V9.94727Z" fill="black"/>
<path d="M48.1893 9.94727H45.6406V12.4959H48.1893V9.94727Z" fill="black"/>
<path d="M55.8299 9.94727H53.2812V12.4959H55.8299V9.94727Z" fill="black"/>
<path d="M58.3768 9.94727H55.8281V12.4959H58.3768V9.94727Z" fill="black"/>
<path d="M66.0252 9.94727H63.4766V12.4959H66.0252V9.94727Z" fill="black"/>
<path d="M71.119 9.94727H68.5703V12.4959H71.119V9.94727Z" fill="black"/>
<path d="M78.7674 9.94727H76.2188V12.4959H78.7674V9.94727Z" fill="black"/>
<path d="M81.3143 9.94727H78.7656V12.4959H81.3143V9.94727Z" fill="black"/>
<path d="M83.8612 9.94727H81.3125V12.4959H83.8612V9.94727Z" fill="black"/>
<path d="M86.408 9.94727H83.8594V12.4959H86.408V9.94727Z" fill="black"/>
<path d="M88.9627 9.94727H86.4141V12.4959H88.9627V9.94727Z" fill="black"/>
<path d="M91.5096 9.94727H88.9609V12.4959H91.5096V9.94727Z" fill="black"/>
<path d="M94.0565 9.94727H91.5078V12.4959H94.0565V9.94727Z" fill="black"/>
<path d="M12.5018 12.4951H9.95312V15.0438H12.5018V12.4951Z" fill="black"/>
<path d="M27.7909 12.4951H25.2422V15.0438H27.7909V12.4951Z" fill="black"/>
<path d="M32.8846 12.4951H30.3359V15.0438H32.8846V12.4951Z" fill="black"/>
<path d="M35.4471 12.4951H32.8984V15.0438H35.4471V12.4951Z" fill="black"/>
<path d="M37.9862 12.4951H35.4375V15.0438H37.9862V12.4951Z" fill="black"/>
<path d="M53.2752 12.4951H50.7266V15.0438H53.2752V12.4951Z" fill="black"/>
<path d="M58.3768 12.4951H55.8281V15.0438H58.3768V12.4951Z" fill="black"/>
<path d="M60.9315 12.4951H58.3828V15.0438H60.9315V12.4951Z" fill="black"/>
<path d="M68.5721 12.4951H66.0234V15.0438H68.5721V12.4951Z" fill="black"/>
<path d="M78.7674 12.4951H76.2188V15.0438H78.7674V12.4951Z" fill="black"/>
<path d="M94.0565 12.4951H91.5078V15.0438H94.0565V12.4951Z" fill="black"/>
<path d="M12.5018 15.0438H9.95312V17.5925H12.5018V15.0438Z" fill="black"/>
<path d="M17.5955 15.0439H15.0469V17.5926H17.5955V15.0439Z" fill="black"/>
<path d="M20.1502 15.0439H17.6016V17.5926H20.1502V15.0439Z" fill="black"/>
<path d="M22.6971 15.0439H20.1484V17.5926H22.6971V15.0439Z" fill="black"/>
<path d="M27.7909 15.0439H25.2422V17.5926H27.7909V15.0439Z" fill="black"/>
<path d="M32.8846 15.0439H30.3359V17.5926H32.8846V15.0439Z" fill="black"/>
<path d="M37.9862 15.0439H35.4375V17.5926H37.9862V15.0439Z" fill="black"/>
<path d="M40.5409 15.0439H37.9922V17.5926H40.5409V15.0439Z" fill="black"/>
<path d="M45.6268 15.0439H43.0781V17.5926H45.6268V15.0439Z" fill="black"/>
<path d="M50.7362 15.0439H48.1875V17.5926H50.7362V15.0439Z" fill="black"/>
<path d="M55.8299 15.0439H53.2812V17.5926H55.8299V15.0439Z" fill="black"/>
<path d="M58.3768 15.0439H55.8281V17.5926H58.3768V15.0439Z" fill="black"/>
<path d="M66.0252 15.0439H63.4766V17.5926H66.0252V15.0439Z" fill="black"/>
<path d="M68.5721 15.0439H66.0234V17.5926H68.5721V15.0439Z" fill="black"/>
<path d="M71.119 15.0439H68.5703V17.5926H71.119V15.0439Z" fill="black"/>
<path d="M73.6815 15.0439H71.1328V17.5926H73.6815V15.0439Z" fill="black"/>
<path d="M78.7674 15.0439H76.2188V17.5926H78.7674V15.0439Z" fill="black"/>
<path d="M83.8612 15.0439H81.3125V17.5926H83.8612V15.0439Z" fill="black"/>
<path d="M86.408 15.0439H83.8594V17.5926H86.408V15.0439Z" fill="black"/>
<path d="M88.9627 15.0439H86.4141V17.5926H88.9627V15.0439Z" fill="black"/>
<path d="M94.0565 15.0439H91.5078V17.5926H94.0565V15.0439Z" fill="black"/>
<path d="M12.5018 17.5947H9.95312V20.1434H12.5018V17.5947Z" fill="black"/>
<path d="M17.5955 17.5947H15.0469V20.1434H17.5955V17.5947Z" fill="black"/>
<path d="M20.1502 17.5947H17.6016V20.1434H20.1502V17.5947Z" fill="black"/>
<path d="M22.6971 17.5947H20.1484V20.1434H22.6971V17.5947Z" fill="black"/>
<path d="M27.7909 17.5947H25.2422V20.1434H27.7909V17.5947Z" fill="black"/>
<path d="M32.8846 17.5947H30.3359V20.1434H32.8846V17.5947Z" fill="black"/>
<path d="M35.4471 17.5947H32.8984V20.1434H35.4471V17.5947Z" fill="black"/>
<path d="M40.5409 17.5947H37.9922V20.1434H40.5409V17.5947Z" fill="black"/>
<path d="M48.1893 17.5947H45.6406V20.1434H48.1893V17.5947Z" fill="black"/>
<path d="M50.7362 17.5947H48.1875V20.1434H50.7362V17.5947Z" fill="black"/>
<path d="M53.2752 17.5947H50.7266V20.1434H53.2752V17.5947Z" fill="black"/>
<path d="M60.9315 17.5947H58.3828V20.1434H60.9315V17.5947Z" fill="black"/>
<path d="M63.4784 17.5947H60.9297V20.1434H63.4784V17.5947Z" fill="black"/>
<path d="M71.119 17.5947H68.5703V20.1434H71.119V17.5947Z" fill="black"/>
<path d="M78.7674 17.5947H76.2188V20.1434H78.7674V17.5947Z" fill="black"/>
<path d="M83.8612 17.5947H81.3125V20.1434H83.8612V17.5947Z" fill="black"/>
<path d="M86.408 17.5947H83.8594V20.1434H86.408V17.5947Z" fill="black"/>
<path d="M88.9627 17.5947H86.4141V20.1434H88.9627V17.5947Z" fill="black"/>
<path d="M94.0565 17.5947H91.5078V20.1434H94.0565V17.5947Z" fill="black"/>
<path d="M12.5018 20.1415H9.95312V22.6902H12.5018V20.1415Z" fill="black"/>
<path d="M17.5955 20.1416H15.0469V22.6903H17.5955V20.1416Z" fill="black"/>
<path d="M20.1502 20.1416H17.6016V22.6903H20.1502V20.1416Z" fill="black"/>
<path d="M22.6971 20.1416H20.1484V22.6903H22.6971V20.1416Z" fill="black"/>
<path d="M27.7909 20.1416H25.2422V22.6903H27.7909V20.1416Z" fill="black"/>
<path d="M45.6268 20.1416H43.0781V22.6903H45.6268V20.1416Z" fill="black"/>
<path d="M48.1893 20.1416H45.6406V22.6903H48.1893V20.1416Z" fill="black"/>
<path d="M50.7362 20.1416H48.1875V22.6903H50.7362V20.1416Z" fill="black"/>
<path d="M53.2752 20.1416H50.7266V22.6903H53.2752V20.1416Z" fill="black"/>
<path d="M55.8299 20.1416H53.2812V22.6903H55.8299V20.1416Z" fill="black"/>
<path d="M63.4784 20.1416H60.9297V22.6903H63.4784V20.1416Z" fill="black"/>
<path d="M66.0252 20.1416H63.4766V22.6903H66.0252V20.1416Z" fill="black"/>
<path d="M71.119 20.1416H68.5703V22.6903H71.119V20.1416Z" fill="black"/>
<path d="M78.7674 20.1416H76.2188V22.6903H78.7674V20.1416Z" fill="black"/>
<path d="M83.8612 20.1416H81.3125V22.6903H83.8612V20.1416Z" fill="black"/>
<path d="M86.408 20.1416H83.8594V22.6903H86.408V20.1416Z" fill="black"/>
<path d="M88.9627 20.1416H86.4141V22.6903H88.9627V20.1416Z" fill="black"/>
<path d="M94.0565 20.1416H91.5078V22.6903H94.0565V20.1416Z" fill="black"/>
<path d="M12.5018 22.6904H9.95312V25.2391H12.5018V22.6904Z" fill="black"/>
<path d="M27.7909 22.6904H25.2422V25.2391H27.7909V22.6904Z" fill="black"/>
<path d="M32.8846 22.6904H30.3359V25.2391H32.8846V22.6904Z" fill="black"/>
<path d="M40.5409 22.6904H37.9922V25.2391H40.5409V22.6904Z" fill="black"/>
<path d="M43.0877 22.6904H40.5391V25.2391H43.0877V22.6904Z" fill="black"/>
<path d="M45.6268 22.6904H43.0781V25.2391H45.6268V22.6904Z" fill="black"/>
<path d="M48.1893 22.6904H45.6406V25.2391H48.1893V22.6904Z" fill="black"/>
<path d="M53.2752 22.6904H50.7266V25.2391H53.2752V22.6904Z" fill="black"/>
<path d="M58.3768 22.6904H55.8281V25.2391H58.3768V22.6904Z" fill="black"/>
<path d="M60.9315 22.6904H58.3828V25.2391H60.9315V22.6904Z" fill="black"/>
<path d="M63.4784 22.6904H60.9297V25.2391H63.4784V22.6904Z" fill="black"/>
<path d="M73.6815 22.6904H71.1328V25.2391H73.6815V22.6904Z" fill="black"/>
<path d="M78.7674 22.6904H76.2188V25.2391H78.7674V22.6904Z" fill="black"/>
<path d="M94.0565 22.6904H91.5078V25.2391H94.0565V22.6904Z" fill="black"/>
<path d="M12.5018 25.2391H9.95312V27.7878H12.5018V25.2391Z" fill="black"/>
<path d="M15.0487 25.2393H12.5V27.7879H15.0487V25.2393Z" fill="black"/>
<path d="M17.5955 25.2393H15.0469V27.7879H17.5955V25.2393Z" fill="black"/>
<path d="M20.1502 25.2393H17.6016V27.7879H20.1502V25.2393Z" fill="black"/>
<path d="M22.6971 25.2393H20.1484V27.7879H22.6971V25.2393Z" fill="black"/>
<path d="M25.244 25.2393H22.6953V27.7879H25.244V25.2393Z" fill="black"/>
<path d="M27.7909 25.2393H25.2422V27.7879H27.7909V25.2393Z" fill="black"/>
<path d="M32.8846 25.2393H30.3359V27.7879H32.8846V25.2393Z" fill="black"/>
<path d="M37.9862 25.2393H35.4375V27.7879H37.9862V25.2393Z" fill="black"/>
<path d="M43.0877 25.2393H40.5391V27.7879H43.0877V25.2393Z" fill="black"/>
<path d="M48.1893 25.2393H45.6406V27.7879H48.1893V25.2393Z" fill="black"/>
<path d="M53.2752 25.2393H50.7266V27.7879H53.2752V25.2393Z" fill="black"/>
<path d="M58.3768 25.2393H55.8281V27.7879H58.3768V25.2393Z" fill="black"/>
<path d="M63.4784 25.2393H60.9297V27.7879H63.4784V25.2393Z" fill="black"/>
<path d="M68.5721 25.2393H66.0234V27.7879H68.5721V25.2393Z" fill="black"/>
<path d="M73.6815 25.2393H71.1328V27.7879H73.6815V25.2393Z" fill="black"/>
<path d="M78.7674 25.2393H76.2188V27.7879H78.7674V25.2393Z" fill="black"/>
<path d="M81.3143 25.2391H78.7656V27.7878H81.3143V25.2391Z" fill="black"/>
<path d="M83.8612 25.2393H81.3125V27.7879H83.8612V25.2393Z" fill="black"/>
<path d="M86.408 25.2393H83.8594V27.7879H86.408V25.2393Z" fill="black"/>
<path d="M88.9627 25.2393H86.4141V27.7879H88.9627V25.2393Z" fill="black"/>
<path d="M91.5096 25.2393H88.9609V27.7879H91.5096V25.2393Z" fill="black"/>
<path d="M94.0565 25.2393H91.5078V27.7879H94.0565V25.2393Z" fill="black"/>
<path d="M35.4471 27.7871H32.8984V30.3358H35.4471V27.7871Z" fill="black"/>
<path d="M43.0877 27.7871H40.5391V30.3358H43.0877V27.7871Z" fill="black"/>
<path d="M48.1893 27.7871H45.6406V30.3358H48.1893V27.7871Z" fill="black"/>
<path d="M50.7362 27.7871H48.1875V30.3358H50.7362V27.7871Z" fill="black"/>
<path d="M55.8299 27.7881H53.2812V30.3368H55.8299V27.7881Z" fill="black"/>
<path d="M58.3768 27.7871H55.8281V30.3358H58.3768V27.7871Z" fill="black"/>
<path d="M66.0252 27.7871H63.4766V30.3358H66.0252V27.7871Z" fill="black"/>
<path d="M73.6815 27.7871H71.1328V30.3358H73.6815V27.7871Z" fill="black"/>
<path d="M12.5018 30.3368H9.95312V32.8855H12.5018V30.3368Z" fill="black"/>
<path d="M15.0487 30.3369H12.5V32.8856H15.0487V30.3369Z" fill="black"/>
<path d="M22.6971 30.3369H20.1484V32.8856H22.6971V30.3369Z" fill="black"/>
<path d="M25.244 30.3369H22.6953V32.8856H25.244V30.3369Z" fill="black"/>
<path d="M27.7909 30.3369H25.2422V32.8856H27.7909V30.3369Z" fill="black"/>
<path d="M40.5409 30.3369H37.9922V32.8856H40.5409V30.3369Z" fill="black"/>
<path d="M45.6268 30.3369H43.0781V32.8856H45.6268V30.3369Z" fill="black"/>
<path d="M48.1893 30.3369H45.6406V32.8856H48.1893V30.3369Z" fill="black"/>
<path d="M53.2752 30.3369H50.7266V32.8856H53.2752V30.3369Z" fill="black"/>
<path d="M55.8299 30.3369H53.2812V32.8856H55.8299V30.3369Z" fill="black"/>
<path d="M63.4784 30.3369H60.9297V32.8856H63.4784V30.3369Z" fill="black"/>
<path d="M66.0252 30.3369H63.4766V32.8856H66.0252V30.3369Z" fill="black"/>
<path d="M68.5721 30.3369H66.0234V32.8856H68.5721V30.3369Z" fill="black"/>
<path d="M71.119 30.3369H68.5703V32.8856H71.119V30.3369Z" fill="black"/>
<path d="M73.6815 30.3369H71.1328V32.8856H73.6815V30.3369Z" fill="black"/>
<path d="M81.3143 30.3368H78.7656V32.8855H81.3143V30.3368Z" fill="black"/>
<path d="M86.408 30.3369H83.8594V32.8856H86.408V30.3369Z" fill="black"/>
<path d="M88.9627 30.3369H86.4141V32.8856H88.9627V30.3369Z" fill="black"/>
<path d="M91.5096 30.3369H88.9609V32.8856H91.5096V30.3369Z" fill="black"/>
<path d="M94.0565 30.3369H91.5078V32.8856H94.0565V30.3369Z" fill="black"/>
<path d="M12.5018 32.8857H9.95312V35.4344H12.5018V32.8857Z" fill="black"/>
<path d="M17.5955 32.8848H15.0469V35.4334H17.5955V32.8848Z" fill="black"/>
<path d="M20.1502 32.8848H17.6016V35.4334H20.1502V32.8848Z" fill="black"/>
<path d="M22.6971 32.8848H20.1484V35.4334H22.6971V32.8848Z" fill="black"/>
<path d="M25.244 32.8848H22.6953V35.4334H25.244V32.8848Z" fill="black"/>
<path d="M35.4471 32.8848H32.8984V35.4334H35.4471V32.8848Z" fill="black"/>
<path d="M37.9862 32.8848H35.4375V35.4334H37.9862V32.8848Z" fill="black"/>
<path d="M43.0877 32.8848H40.5391V35.4334H43.0877V32.8848Z" fill="black"/>
<path d="M50.7362 32.8848H48.1875V35.4334H50.7362V32.8848Z" fill="black"/>
<path d="M53.2752 32.8848H50.7266V35.4334H53.2752V32.8848Z" fill="black"/>
<path d="M55.8299 32.8848H53.2812V35.4334H55.8299V32.8848Z" fill="black"/>
<path d="M66.0252 32.8848H63.4766V35.4334H66.0252V32.8848Z" fill="black"/>
<path d="M71.119 32.8848H68.5703V35.4334H71.119V32.8848Z" fill="black"/>
<path d="M76.2205 32.8848H73.6719V35.4334H76.2205V32.8848Z" fill="black"/>
<path d="M81.3143 32.8857H78.7656V35.4344H81.3143V32.8857Z" fill="black"/>
<path d="M88.9627 32.8848H86.4141V35.4334H88.9627V32.8848Z" fill="black"/>
<path d="M12.5018 35.4344H9.95312V37.9831H12.5018V35.4344Z" fill="black"/>
<path d="M15.0487 35.4346H12.5V37.9832H15.0487V35.4346Z" fill="black"/>
<path d="M20.1502 35.4346H17.6016V37.9832H20.1502V35.4346Z" fill="black"/>
<path d="M25.244 35.4346H22.6953V37.9832H25.244V35.4346Z" fill="black"/>
<path d="M27.7909 35.4346H25.2422V37.9832H27.7909V35.4346Z" fill="black"/>
<path d="M40.5409 35.4346H37.9922V37.9832H40.5409V35.4346Z" fill="black"/>
<path d="M43.0877 35.4346H40.5391V37.9832H43.0877V35.4346Z" fill="black"/>
<path d="M45.6268 35.4346H43.0781V37.9832H45.6268V35.4346Z" fill="black"/>
<path d="M48.1893 35.4346H45.6406V37.9832H48.1893V35.4346Z" fill="black"/>
<path d="M50.7362 35.4346H48.1875V37.9832H50.7362V35.4346Z" fill="black"/>
<path d="M53.2752 35.4346H50.7266V37.9832H53.2752V35.4346Z" fill="black"/>
<path d="M55.8299 35.4346H53.2812V37.9832H55.8299V35.4346Z" fill="black"/>
<path d="M71.119 35.4346H68.5703V37.9832H71.119V35.4346Z" fill="black"/>
<path d="M73.6815 35.4346H71.1328V37.9832H73.6815V35.4346Z" fill="black"/>
<path d="M83.8612 35.4346H81.3125V37.9832H83.8612V35.4346Z" fill="black"/>
<path d="M88.9627 35.4346H86.4141V37.9832H88.9627V35.4346Z" fill="black"/>
<path d="M91.5096 35.4346H88.9609V37.9832H91.5096V35.4346Z" fill="black"/>
<path d="M12.5018 37.9834H9.95312V40.5321H12.5018V37.9834Z" fill="black"/>
<path d="M17.5955 37.9824H15.0469V40.5311H17.5955V37.9824Z" fill="black"/>
<path d="M22.6971 37.9824H20.1484V40.5311H22.6971V37.9824Z" fill="black"/>
<path d="M30.3377 37.9824H27.7891V40.5311H30.3377V37.9824Z" fill="black"/>
<path d="M32.8846 37.9824H30.3359V40.5311H32.8846V37.9824Z" fill="black"/>
<path d="M37.9862 37.9824H35.4375V40.5311H37.9862V37.9824Z" fill="black"/>
<path d="M40.5409 37.9824H37.9922V40.5311H40.5409V37.9824Z" fill="black"/>
<path d="M45.6268 37.9824H43.0781V40.5311H45.6268V37.9824Z" fill="black"/>
<path d="M53.2752 37.9824H50.7266V40.5311H53.2752V37.9824Z" fill="black"/>
<path d="M55.8299 37.9824H53.2812V40.5311H55.8299V37.9824Z" fill="black"/>
<path d="M58.3768 37.9824H55.8281V40.5311H58.3768V37.9824Z" fill="black"/>
<path d="M60.9315 37.9824H58.3828V40.5311H60.9315V37.9824Z" fill="black"/>
<path d="M66.0252 37.9824H63.4766V40.5311H66.0252V37.9824Z" fill="black"/>
<path d="M68.5721 37.9824H66.0234V40.5311H68.5721V37.9824Z" fill="black"/>
<path d="M73.6815 37.9824H71.1328V40.5311H73.6815V37.9824Z" fill="black"/>
<path d="M78.7674 37.9824H76.2188V40.5311H78.7674V37.9824Z" fill="black"/>
<path d="M83.8612 37.9824H81.3125V40.5311H83.8612V37.9824Z" fill="black"/>
<path d="M86.408 37.9824H83.8594V40.5311H86.408V37.9824Z" fill="black"/>
<path d="M12.5018 40.531H9.95312V43.0797H12.5018V40.531Z" fill="black"/>
<path d="M15.0487 40.5312H12.5V43.0799H15.0487V40.5312Z" fill="black"/>
<path d="M17.5955 40.5312H15.0469V43.0799H17.5955V40.5312Z" fill="black"/>
<path d="M20.1502 40.5312H17.6016V43.0799H20.1502V40.5312Z" fill="black"/>
<path d="M22.6971 40.5312H20.1484V43.0799H22.6971V40.5312Z" fill="black"/>
<path d="M27.7909 40.5312H25.2422V43.0799H27.7909V40.5312Z" fill="black"/>
<path d="M32.8846 40.5312H30.3359V43.0799H32.8846V40.5312Z" fill="black"/>
<path d="M37.9862 40.5312H35.4375V43.0799H37.9862V40.5312Z" fill="black"/>
<path d="M43.0877 40.5312H40.5391V43.0799H43.0877V40.5312Z" fill="black"/>
<path d="M45.6268 40.5312H43.0781V43.0799H45.6268V40.5312Z" fill="black"/>
<path d="M53.2752 40.5312H50.7266V43.0799H53.2752V40.5312Z" fill="black"/>
<path d="M55.8299 40.5312H53.2812V43.0799H55.8299V40.5312Z" fill="black"/>
<path d="M60.9315 40.5312H58.3828V43.0799H60.9315V40.5312Z" fill="black"/>
<path d="M63.4784 40.5312H60.9297V43.0799H63.4784V40.5312Z" fill="black"/>
<path d="M66.0252 40.5312H63.4766V43.0799H66.0252V40.5312Z" fill="black"/>
<path d="M68.5721 40.5312H66.0234V43.0799H68.5721V40.5312Z" fill="black"/>
<path d="M71.119 40.5312H68.5703V43.0799H71.119V40.5312Z" fill="black"/>
<path d="M73.6815 40.5312H71.1328V43.0799H73.6815V40.5312Z" fill="black"/>
<path d="M78.7674 40.5312H76.2188V43.0799H78.7674V40.5312Z" fill="black"/>
<path d="M83.8612 40.5312H81.3125V43.0799H83.8612V40.5312Z" fill="black"/>
<path d="M86.408 40.5312H83.8594V43.0799H86.408V40.5312Z" fill="black"/>
<path d="M91.5096 40.5312H88.9609V43.0799H91.5096V40.5312Z" fill="black"/>
<path d="M94.0565 40.5312H91.5078V43.0799H94.0565V40.5312Z" fill="black"/>
<path d="M12.5018 43.0791H9.95312V45.6278H12.5018V43.0791Z" fill="black"/>
<path d="M15.0487 43.0791H12.5V45.6278H15.0487V43.0791Z" fill="black"/>
<path d="M17.5955 43.0791H15.0469V45.6278H17.5955V43.0791Z" fill="black"/>
<path d="M20.1502 43.0791H17.6016V45.6278H20.1502V43.0791Z" fill="black"/>
<path d="M25.244 43.0791H22.6953V45.6278H25.244V43.0791Z" fill="black"/>
<path d="M32.8846 43.0791H30.3359V45.6278H32.8846V43.0791Z" fill="black"/>
<path d="M35.4471 43.0791H32.8984V45.6278H35.4471V43.0791Z" fill="black"/>
<path d="M45.6268 43.0791H43.0781V45.6278H45.6268V43.0791Z" fill="black"/>
<path d="M48.1893 43.0791H45.6406V45.6278H48.1893V43.0791Z" fill="black"/>
<path d="M50.7362 43.0791H48.1875V45.6278H50.7362V43.0791Z" fill="black"/>
<path d="M53.2752 43.0791H50.7266V45.6278H53.2752V43.0791Z" fill="black"/>
<path d="M66.0252 43.0791H63.4766V45.6278H66.0252V43.0791Z" fill="black"/>
<path d="M71.119 43.0791H68.5703V45.6278H71.119V43.0791Z" fill="black"/>
<path d="M81.3143 43.0791H78.7656V45.6278H81.3143V43.0791Z" fill="black"/>
<path d="M17.5955 45.6289H15.0469V48.1776H17.5955V45.6289Z" fill="black"/>
<path d="M25.244 45.6289H22.6953V48.1776H25.244V45.6289Z" fill="black"/>
<path d="M27.7909 45.6289H25.2422V48.1776H27.7909V45.6289Z" fill="black"/>
<path d="M32.8846 45.6289H30.3359V48.1776H32.8846V45.6289Z" fill="black"/>
<path d="M35.4471 45.6289H32.8984V48.1776H35.4471V45.6289Z" fill="black"/>
<path d="M37.9862 45.6289H35.4375V48.1776H37.9862V45.6289Z" fill="black"/>
<path d="M50.7362 45.6289H48.1875V48.1776H50.7362V45.6289Z" fill="black"/>
<path d="M53.2752 45.6289H50.7266V48.1776H53.2752V45.6289Z" fill="black"/>
<path d="M58.3768 45.6289H55.8281V48.1776H58.3768V45.6289Z" fill="black"/>
<path d="M63.4784 45.6289H60.9297V48.1776H63.4784V45.6289Z" fill="black"/>
<path d="M68.5721 45.6289H66.0234V48.1776H68.5721V45.6289Z" fill="black"/>
<path d="M71.119 45.6289H68.5703V48.1776H71.119V45.6289Z" fill="black"/>
<path d="M76.2205 45.6289H73.6719V48.1776H76.2205V45.6289Z" fill="black"/>
<path d="M81.3143 45.6289H78.7656V48.1776H81.3143V45.6289Z" fill="black"/>
<path d="M83.8612 45.6289H81.3125V48.1776H83.8612V45.6289Z" fill="black"/>
<path d="M86.408 45.6289H83.8594V48.1776H86.408V45.6289Z" fill="black"/>
<path d="M88.9627 45.6289H86.4141V48.1776H88.9627V45.6289Z" fill="black"/>
<path d="M91.5096 45.6289H88.9609V48.1776H91.5096V45.6289Z" fill="black"/>
<path d="M12.5018 48.1768H9.95312V50.7254H12.5018V48.1768Z" fill="black"/>
<path d="M17.5955 48.1768H15.0469V50.7254H17.5955V48.1768Z" fill="black"/>
<path d="M20.1502 48.1768H17.6016V50.7254H20.1502V48.1768Z" fill="black"/>
<path d="M22.6971 48.1768H20.1484V50.7254H22.6971V48.1768Z" fill="black"/>
<path d="M30.3377 48.1768H27.7891V50.7254H30.3377V48.1768Z" fill="black"/>
<path d="M35.4471 48.1768H32.8984V50.7254H35.4471V48.1768Z" fill="black"/>
<path d="M37.9862 48.1768H35.4375V50.7254H37.9862V48.1768Z" fill="black"/>
<path d="M43.0877 48.1768H40.5391V50.7254H43.0877V48.1768Z" fill="black"/>
<path d="M48.1893 48.1768H45.6406V50.7254H48.1893V48.1768Z" fill="black"/>
<path d="M50.7362 48.1768H48.1875V50.7254H50.7362V48.1768Z" fill="black"/>
<path d="M55.8299 48.1768H53.2812V50.7254H55.8299V48.1768Z" fill="black"/>
<path d="M58.3768 48.1768H55.8281V50.7254H58.3768V48.1768Z" fill="black"/>
<path d="M60.9315 48.1768H58.3828V50.7254H60.9315V48.1768Z" fill="black"/>
<path d="M63.4784 48.1768H60.9297V50.7254H63.4784V48.1768Z" fill="black"/>
<path d="M66.0252 48.1768H63.4766V50.7254H66.0252V48.1768Z" fill="black"/>
<path d="M73.6815 48.1768H71.1328V50.7254H73.6815V48.1768Z" fill="black"/>
<path d="M76.2205 48.1768H73.6719V50.7254H76.2205V48.1768Z" fill="black"/>
<path d="M81.3143 48.1768H78.7656V50.7254H81.3143V48.1768Z" fill="black"/>
<path d="M83.8612 48.1768H81.3125V50.7254H83.8612V48.1768Z" fill="black"/>
<path d="M86.408 48.1768H83.8594V50.7254H86.408V48.1768Z" fill="black"/>
<path d="M20.1502 50.7266H17.6016V53.2752H20.1502V50.7266Z" fill="black"/>
<path d="M25.244 50.7266H22.6953V53.2752H25.244V50.7266Z" fill="black"/>
<path d="M27.7909 50.7266H25.2422V53.2752H27.7909V50.7266Z" fill="black"/>
<path d="M35.4471 50.7266H32.8984V53.2752H35.4471V50.7266Z" fill="black"/>
<path d="M37.9862 50.7266H35.4375V53.2752H37.9862V50.7266Z" fill="black"/>
<path d="M40.5409 50.7266H37.9922V53.2752H40.5409V50.7266Z" fill="black"/>
<path d="M45.6268 50.7266H43.0781V53.2752H45.6268V50.7266Z" fill="black"/>
<path d="M48.1893 50.7266H45.6406V53.2752H48.1893V50.7266Z" fill="black"/>
<path d="M53.2752 50.7266H50.7266V53.2752H53.2752V50.7266Z" fill="black"/>
<path d="M55.8299 50.7266H53.2812V53.2752H55.8299V50.7266Z" fill="black"/>
<path d="M58.3768 50.7266H55.8281V53.2752H58.3768V50.7266Z" fill="black"/>
<path d="M63.4784 50.7266H60.9297V53.2752H63.4784V50.7266Z" fill="black"/>
<path d="M66.0252 50.7266H63.4766V53.2752H66.0252V50.7266Z" fill="black"/>
<path d="M71.119 50.7266H68.5703V53.2752H71.119V50.7266Z" fill="black"/>
<path d="M73.6815 50.7266H71.1328V53.2752H73.6815V50.7266Z" fill="black"/>
<path d="M78.7674 50.7266H76.2188V53.2752H78.7674V50.7266Z" fill="black"/>
<path d="M81.3143 50.7266H78.7656V53.2752H81.3143V50.7266Z" fill="black"/>
<path d="M83.8612 50.7266H81.3125V53.2752H83.8612V50.7266Z" fill="black"/>
<path d="M94.0565 50.7266H91.5078V53.2752H94.0565V50.7266Z" fill="black"/>
<path d="M17.5955 53.2744H15.0469V55.8231H17.5955V53.2744Z" fill="black"/>
<path d="M22.6971 53.2744H20.1484V55.8231H22.6971V53.2744Z" fill="black"/>
<path d="M32.8846 53.2744H30.3359V55.8231H32.8846V53.2744Z" fill="black"/>
<path d="M43.0877 53.2744H40.5391V55.8231H43.0877V53.2744Z" fill="black"/>
<path d="M50.7362 53.2744H48.1875V55.8231H50.7362V53.2744Z" fill="black"/>
<path d="M53.2752 53.2744H50.7266V55.8231H53.2752V53.2744Z" fill="black"/>
<path d="M63.4784 53.2744H60.9297V55.8231H63.4784V53.2744Z" fill="black"/>
<path d="M66.0252 53.2744H63.4766V55.8231H66.0252V53.2744Z" fill="black"/>
<path d="M71.119 53.2744H68.5703V55.8231H71.119V53.2744Z" fill="black"/>
<path d="M73.6815 53.2744H71.1328V55.8231H73.6815V53.2744Z" fill="black"/>
<path d="M81.3143 53.2744H78.7656V55.8231H81.3143V53.2744Z" fill="black"/>
<path d="M86.408 53.2744H83.8594V55.8231H86.408V53.2744Z" fill="black"/>
<path d="M20.1502 55.8232H17.6016V58.3719H20.1502V55.8232Z" fill="black"/>
<path d="M22.6971 55.8232H20.1484V58.3719H22.6971V55.8232Z" fill="black"/>
<path d="M25.244 55.8232H22.6953V58.3719H25.244V55.8232Z" fill="black"/>
<path d="M27.7909 55.8232H25.2422V58.3719H27.7909V55.8232Z" fill="black"/>
<path d="M30.3377 55.8232H27.7891V58.3719H30.3377V55.8232Z" fill="black"/>
<path d="M37.9862 55.8232H35.4375V58.3719H37.9862V55.8232Z" fill="black"/>
<path d="M40.5409 55.8232H37.9922V58.3719H40.5409V55.8232Z" fill="black"/>
<path d="M43.0877 55.8232H40.5391V58.3719H43.0877V55.8232Z" fill="black"/>
<path d="M45.6268 55.8232H43.0781V58.3719H45.6268V55.8232Z" fill="black"/>
<path d="M48.1893 55.8232H45.6406V58.3719H48.1893V55.8232Z" fill="black"/>
<path d="M50.7362 55.8232H48.1875V58.3719H50.7362V55.8232Z" fill="black"/>
<path d="M55.8299 55.8232H53.2812V58.3719H55.8299V55.8232Z" fill="black"/>
<path d="M58.3768 55.8232H55.8281V58.3719H58.3768V55.8232Z" fill="black"/>
<path d="M63.4784 55.8232H60.9297V58.3719H63.4784V55.8232Z" fill="black"/>
<path d="M71.119 55.8232H68.5703V58.3719H71.119V55.8232Z" fill="black"/>
<path d="M73.6815 55.8232H71.1328V58.3719H73.6815V55.8232Z" fill="black"/>
<path d="M83.8612 55.8232H81.3125V58.3719H83.8612V55.8232Z" fill="black"/>
<path d="M88.9627 55.8232H86.4141V58.3719H88.9627V55.8232Z" fill="black"/>
<path d="M91.5096 55.8232H88.9609V58.3719H91.5096V55.8232Z" fill="black"/>
<path d="M17.5955 58.3721H15.0469V60.9207H17.5955V58.3721Z" fill="black"/>
<path d="M20.1502 58.3721H17.6016V60.9207H20.1502V58.3721Z" fill="black"/>
<path d="M25.244 58.3721H22.6953V60.9207H25.244V58.3721Z" fill="black"/>
<path d="M32.8846 58.3721H30.3359V60.9207H32.8846V58.3721Z" fill="black"/>
<path d="M40.5409 58.3721H37.9922V60.9207H40.5409V58.3721Z" fill="black"/>
<path d="M45.6268 58.3721H43.0781V60.9207H45.6268V58.3721Z" fill="black"/>
<path d="M50.7362 58.3721H48.1875V60.9207H50.7362V58.3721Z" fill="black"/>
<path d="M55.8299 58.3721H53.2812V60.9207H55.8299V58.3721Z" fill="black"/>
<path d="M66.0252 58.3721H63.4766V60.9207H66.0252V58.3721Z" fill="black"/>
<path d="M68.5721 58.3721H66.0234V60.9207H68.5721V58.3721Z" fill="black"/>
<path d="M76.2205 58.3721H73.6719V60.9207H76.2205V58.3721Z" fill="black"/>
<path d="M78.7674 58.3721H76.2188V60.9207H78.7674V58.3721Z" fill="black"/>
<path d="M83.8612 58.3721H81.3125V60.9207H83.8612V58.3721Z" fill="black"/>
<path d="M86.408 58.3721H83.8594V60.9207H86.408V58.3721Z" fill="black"/>
<path d="M12.5018 60.9209H9.95312V63.4696H12.5018V60.9209Z" fill="black"/>
<path d="M15.0487 60.9209H12.5V63.4696H15.0487V60.9209Z" fill="black"/>
<path d="M25.244 60.9209H22.6953V63.4696H25.244V60.9209Z" fill="black"/>
<path d="M27.7909 60.9209H25.2422V63.4696H27.7909V60.9209Z" fill="black"/>
<path d="M35.4471 60.9209H32.8984V63.4696H35.4471V60.9209Z" fill="black"/>
<path d="M37.9862 60.9209H35.4375V63.4696H37.9862V60.9209Z" fill="black"/>
<path d="M43.0877 60.9209H40.5391V63.4696H43.0877V60.9209Z" fill="black"/>
<path d="M45.6268 60.9209H43.0781V63.4696H45.6268V60.9209Z" fill="black"/>
<path d="M50.7362 60.9209H48.1875V63.4696H50.7362V60.9209Z" fill="black"/>
<path d="M53.2752 60.9209H50.7266V63.4696H53.2752V60.9209Z" fill="black"/>
<path d="M55.8299 60.9209H53.2812V63.4696H55.8299V60.9209Z" fill="black"/>
<path d="M58.3768 60.9209H55.8281V63.4696H58.3768V60.9209Z" fill="black"/>
<path d="M60.9315 60.9209H58.3828V63.4696H60.9315V60.9209Z" fill="black"/>
<path d="M66.0252 60.9209H63.4766V63.4696H66.0252V60.9209Z" fill="black"/>
<path d="M68.5721 60.9209H66.0234V63.4696H68.5721V60.9209Z" fill="black"/>
<path d="M78.7674 60.9209H76.2188V63.4696H78.7674V60.9209Z" fill="black"/>
<path d="M83.8612 60.9209H81.3125V63.4696H83.8612V60.9209Z" fill="black"/>
<path d="M94.0565 60.9209H91.5078V63.4696H94.0565V60.9209Z" fill="black"/>
<path d="M12.5018 63.4697H9.95312V66.0184H12.5018V63.4697Z" fill="black"/>
<path d="M20.1502 63.4697H17.6016V66.0184H20.1502V63.4697Z" fill="black"/>
<path d="M22.6971 63.4697H20.1484V66.0184H22.6971V63.4697Z" fill="black"/>
<path d="M30.3377 63.4697H27.7891V66.0184H30.3377V63.4697Z" fill="black"/>
<path d="M37.9862 63.4697H35.4375V66.0184H37.9862V63.4697Z" fill="black"/>
<path d="M45.6268 63.4697H43.0781V66.0184H45.6268V63.4697Z" fill="black"/>
<path d="M48.1893 63.4697H45.6406V66.0184H48.1893V63.4697Z" fill="black"/>
<path d="M50.7362 63.4697H48.1875V66.0184H50.7362V63.4697Z" fill="black"/>
<path d="M55.8299 63.4697H53.2812V66.0184H55.8299V63.4697Z" fill="black"/>
<path d="M66.0252 63.4697H63.4766V66.0184H66.0252V63.4697Z" fill="black"/>
<path d="M71.119 63.4697H68.5703V66.0184H71.119V63.4697Z" fill="black"/>
<path d="M76.2205 63.4697H73.6719V66.0184H76.2205V63.4697Z" fill="black"/>
<path d="M81.3143 63.4697H78.7656V66.0184H81.3143V63.4697Z" fill="black"/>
<path d="M86.408 63.4697H83.8594V66.0184H86.408V63.4697Z" fill="black"/>
<path d="M17.5955 66.0186H15.0469V68.5672H17.5955V66.0186Z" fill="black"/>
<path d="M20.1502 66.0186H17.6016V68.5672H20.1502V66.0186Z" fill="black"/>
<path d="M22.6971 66.0186H20.1484V68.5672H22.6971V66.0186Z" fill="black"/>
<path d="M25.244 66.0186H22.6953V68.5672H25.244V66.0186Z" fill="black"/>
<path d="M27.7909 66.0186H25.2422V68.5672H27.7909V66.0186Z" fill="black"/>
<path d="M32.8846 66.0186H30.3359V68.5672H32.8846V66.0186Z" fill="black"/>
<path d="M50.7362 66.0186H48.1875V68.5672H50.7362V66.0186Z" fill="black"/>
<path d="M53.2752 66.0186H50.7266V68.5672H53.2752V66.0186Z" fill="black"/>
<path d="M58.3768 66.0186H55.8281V68.5672H58.3768V66.0186Z" fill="black"/>
<path d="M66.0252 66.0186H63.4766V68.5672H66.0252V66.0186Z" fill="black"/>
<path d="M71.119 66.0186H68.5703V68.5672H71.119V66.0186Z" fill="black"/>
<path d="M73.6815 66.0186H71.1328V68.5672H73.6815V66.0186Z" fill="black"/>
<path d="M78.7674 66.0186H76.2188V68.5672H78.7674V66.0186Z" fill="black"/>
<path d="M81.3143 66.0186H78.7656V68.5672H81.3143V66.0186Z" fill="black"/>
<path d="M88.9627 66.0186H86.4141V68.5672H88.9627V66.0186Z" fill="black"/>
<path d="M91.5096 66.0186H88.9609V68.5672H91.5096V66.0186Z" fill="black"/>
<path d="M32.8846 68.5664H30.3359V71.1151H32.8846V68.5664Z" fill="black"/>
<path d="M35.4471 68.5664H32.8984V71.1151H35.4471V68.5664Z" fill="black"/>
<path d="M37.9862 68.5664H35.4375V71.1151H37.9862V68.5664Z" fill="black"/>
<path d="M43.0877 68.5664H40.5391V71.1151H43.0877V68.5664Z" fill="black"/>
<path d="M48.1893 68.5664H45.6406V71.1151H48.1893V68.5664Z" fill="black"/>
<path d="M53.2752 68.5664H50.7266V71.1151H53.2752V68.5664Z" fill="black"/>
<path d="M55.8299 68.5664H53.2812V71.1151H55.8299V68.5664Z" fill="black"/>
<path d="M58.3768 68.5664H55.8281V71.1151H58.3768V68.5664Z" fill="black"/>
<path d="M60.9315 68.5664H58.3828V71.1151H60.9315V68.5664Z" fill="black"/>
<path d="M63.4784 68.5664H60.9297V71.1151H63.4784V68.5664Z" fill="black"/>
<path d="M66.0252 68.5664H63.4766V71.1151H66.0252V68.5664Z" fill="black"/>
<path d="M76.2205 68.5664H73.6719V71.1151H76.2205V68.5664Z" fill="black"/>
<path d="M12.5018 71.1162H9.95312V73.6649H12.5018V71.1162Z" fill="black"/>
<path d="M15.0487 71.1162H12.5V73.6649H15.0487V71.1162Z" fill="black"/>
<path d="M17.5955 71.1162H15.0469V73.6649H17.5955V71.1162Z" fill="black"/>
<path d="M27.7909 71.1162H25.2422V73.6649H27.7909V71.1162Z" fill="black"/>
<path d="M35.4471 71.1162H32.8984V73.6649H35.4471V71.1162Z" fill="black"/>
<path d="M37.9862 71.1162H35.4375V73.6649H37.9862V71.1162Z" fill="black"/>
<path d="M40.5409 71.1162H37.9922V73.6649H40.5409V71.1162Z" fill="black"/>
<path d="M45.6268 71.1162H43.0781V73.6649H45.6268V71.1162Z" fill="black"/>
<path d="M48.1893 71.1162H45.6406V73.6649H48.1893V71.1162Z" fill="black"/>
<path d="M53.2752 71.1162H50.7266V73.6649H53.2752V71.1162Z" fill="black"/>
<path d="M55.8299 71.1162H53.2812V73.6649H55.8299V71.1162Z" fill="black"/>
<path d="M60.9315 71.1162H58.3828V73.6649H60.9315V71.1162Z" fill="black"/>
<path d="M63.4784 71.1162H60.9297V73.6649H63.4784V71.1162Z" fill="black"/>
<path d="M66.0252 71.1162H63.4766V73.6649H66.0252V71.1162Z" fill="black"/>
<path d="M68.5721 71.1162H66.0234V73.6649H68.5721V71.1162Z" fill="black"/>
<path d="M73.6815 71.1162H71.1328V73.6649H73.6815V71.1162Z" fill="black"/>
<path d="M76.2205 71.1162H73.6719V73.6649H76.2205V71.1162Z" fill="black"/>
<path d="M78.7674 71.1162H76.2188V73.6649H78.7674V71.1162Z" fill="black"/>
<path d="M81.3143 71.1162H78.7656V73.6649H81.3143V71.1162Z" fill="black"/>
<path d="M83.8612 71.1162H81.3125V73.6649H83.8612V71.1162Z" fill="black"/>
<path d="M86.408 71.1162H83.8594V73.6649H86.408V71.1162Z" fill="black"/>
<path d="M91.5096 71.1162H88.9609V73.6649H91.5096V71.1162Z" fill="black"/>
<path d="M32.8846 73.6641H30.3359V76.2127H32.8846V73.6641Z" fill="black"/>
<path d="M43.0877 73.6641H40.5391V76.2127H43.0877V73.6641Z" fill="black"/>
<path d="M50.7362 73.6641H48.1875V76.2127H50.7362V73.6641Z" fill="black"/>
<path d="M53.2752 73.6641H50.7266V76.2127H53.2752V73.6641Z" fill="black"/>
<path d="M58.3768 73.6641H55.8281V76.2127H58.3768V73.6641Z" fill="black"/>
<path d="M60.9315 73.6641H58.3828V76.2127H60.9315V73.6641Z" fill="black"/>
<path d="M71.119 73.6641H68.5703V76.2127H71.119V73.6641Z" fill="black"/>
<path d="M73.6815 73.6641H71.1328V76.2127H73.6815V73.6641Z" fill="black"/>
<path d="M83.8612 73.6641H81.3125V76.2127H83.8612V73.6641Z" fill="black"/>
<path d="M88.9627 73.6641H86.4141V76.2127H88.9627V73.6641Z" fill="black"/>
<path d="M91.5096 73.6641H88.9609V76.2127H91.5096V73.6641Z" fill="black"/>
<path d="M12.5018 76.2129H9.95312V78.7616H12.5018V76.2129Z" fill="black"/>
<path d="M15.0487 76.2129H12.5V78.7616H15.0487V76.2129Z" fill="black"/>
<path d="M17.5955 76.2129H15.0469V78.7616H17.5955V76.2129Z" fill="black"/>
<path d="M20.1502 76.2129H17.6016V78.7616H20.1502V76.2129Z" fill="black"/>
<path d="M22.6971 76.2129H20.1484V78.7616H22.6971V76.2129Z" fill="black"/>
<path d="M25.244 76.2129H22.6953V78.7616H25.244V76.2129Z" fill="black"/>
<path d="M27.7909 76.2129H25.2422V78.7616H27.7909V76.2129Z" fill="black"/>
<path d="M35.4471 76.2129H32.8984V78.7616H35.4471V76.2129Z" fill="black"/>
<path d="M40.5409 76.2129H37.9922V78.7616H40.5409V76.2129Z" fill="black"/>
<path d="M43.0877 76.2129H40.5391V78.7616H43.0877V76.2129Z" fill="black"/>
<path d="M45.6268 76.2129H43.0781V78.7616H45.6268V76.2129Z" fill="black"/>
<path d="M48.1893 76.2129H45.6406V78.7616H48.1893V76.2129Z" fill="black"/>
<path d="M50.7362 76.2129H48.1875V78.7616H50.7362V76.2129Z" fill="black"/>
<path d="M55.8299 76.2129H53.2812V78.7616H55.8299V76.2129Z" fill="black"/>
<path d="M63.4784 76.2129H60.9297V78.7616H63.4784V76.2129Z" fill="black"/>
<path d="M66.0252 76.2129H63.4766V78.7616H66.0252V76.2129Z" fill="black"/>
<path d="M73.6815 76.2129H71.1328V78.7616H73.6815V76.2129Z" fill="black"/>
<path d="M78.7674 76.2129H76.2188V78.7616H78.7674V76.2129Z" fill="black"/>
<path d="M83.8612 76.2129H81.3125V78.7616H83.8612V76.2129Z" fill="black"/>
<path d="M86.408 76.2129H83.8594V78.7616H86.408V76.2129Z" fill="black"/>
<path d="M91.5096 76.2129H88.9609V78.7616H91.5096V76.2129Z" fill="black"/>
<path d="M12.5018 78.7617H9.95312V81.3104H12.5018V78.7617Z" fill="black"/>
<path d="M27.7909 78.7617H25.2422V81.3104H27.7909V78.7617Z" fill="black"/>
<path d="M32.8846 78.7617H30.3359V81.3104H32.8846V78.7617Z" fill="black"/>
<path d="M40.5409 78.7617H37.9922V81.3104H40.5409V78.7617Z" fill="black"/>
<path d="M45.6268 78.7617H43.0781V81.3104H45.6268V78.7617Z" fill="black"/>
<path d="M50.7362 78.7617H48.1875V81.3104H50.7362V78.7617Z" fill="black"/>
<path d="M53.2752 78.7617H50.7266V81.3104H53.2752V78.7617Z" fill="black"/>
<path d="M55.8299 78.7617H53.2812V81.3104H55.8299V78.7617Z" fill="black"/>
<path d="M58.3768 78.7617H55.8281V81.3104H58.3768V78.7617Z" fill="black"/>
<path d="M60.9315 78.7617H58.3828V81.3104H60.9315V78.7617Z" fill="black"/>
<path d="M66.0252 78.7617H63.4766V81.3104H66.0252V78.7617Z" fill="black"/>
<path d="M73.6815 78.7617H71.1328V81.3104H73.6815V78.7617Z" fill="black"/>
<path d="M83.8612 78.7617H81.3125V81.3104H83.8612V78.7617Z" fill="black"/>
<path d="M91.5096 78.7617H88.9609V81.3104H91.5096V78.7617Z" fill="black"/>
<path d="M94.0565 78.7617H91.5078V81.3104H94.0565V78.7617Z" fill="black"/>
<path d="M12.5018 81.3105H9.95312V83.8592H12.5018V81.3105Z" fill="black"/>
<path d="M17.5955 81.3105H15.0469V83.8592H17.5955V81.3105Z" fill="black"/>
<path d="M20.1502 81.3105H17.6016V83.8592H20.1502V81.3105Z" fill="black"/>
<path d="M22.6971 81.3105H20.1484V83.8592H22.6971V81.3105Z" fill="black"/>
<path d="M27.7909 81.3105H25.2422V83.8592H27.7909V81.3105Z" fill="black"/>
<path d="M32.8846 81.3105H30.3359V83.8592H32.8846V81.3105Z" fill="black"/>
<path d="M43.0877 81.3105H40.5391V83.8592H43.0877V81.3105Z" fill="black"/>
<path d="M45.6268 81.3105H43.0781V83.8592H45.6268V81.3105Z" fill="black"/>
<path d="M53.2752 81.3105H50.7266V83.8592H53.2752V81.3105Z" fill="black"/>
<path d="M55.8299 81.3105H53.2812V83.8592H55.8299V81.3105Z" fill="black"/>
<path d="M60.9315 81.3105H58.3828V83.8592H60.9315V81.3105Z" fill="black"/>
<path d="M66.0252 81.3105H63.4766V83.8592H66.0252V81.3105Z" fill="black"/>
<path d="M73.6815 81.3105H71.1328V83.8592H73.6815V81.3105Z" fill="black"/>
<path d="M76.2205 81.3105H73.6719V83.8592H76.2205V81.3105Z" fill="black"/>
<path d="M78.7674 81.3105H76.2188V83.8592H78.7674V81.3105Z" fill="black"/>
<path d="M81.3143 81.3105H78.7656V83.8592H81.3143V81.3105Z" fill="black"/>
<path d="M83.8612 81.3105H81.3125V83.8592H83.8612V81.3105Z" fill="black"/>
<path d="M91.5096 81.3105H88.9609V83.8592H91.5096V81.3105Z" fill="black"/>
<path d="M12.5018 83.8585H9.95312V86.4072H12.5018V83.8585Z" fill="black"/>
<path d="M17.5955 83.8584H15.0469V86.4071H17.5955V83.8584Z" fill="black"/>
<path d="M20.1502 83.8584H17.6016V86.4071H20.1502V83.8584Z" fill="black"/>
<path d="M22.6971 83.8584H20.1484V86.4071H22.6971V83.8584Z" fill="black"/>
<path d="M27.7909 83.8584H25.2422V86.4071H27.7909V83.8584Z" fill="black"/>
<path d="M35.4471 83.8584H32.8984V86.4071H35.4471V83.8584Z" fill="black"/>
<path d="M37.9862 83.8584H35.4375V86.4071H37.9862V83.8584Z" fill="black"/>
<path d="M45.6268 83.8584H43.0781V86.4071H45.6268V83.8584Z" fill="black"/>
<path d="M48.1893 83.8584H45.6406V86.4071H48.1893V83.8584Z" fill="black"/>
<path d="M50.7362 83.8584H48.1875V86.4071H50.7362V83.8584Z" fill="black"/>
<path d="M53.2752 83.8584H50.7266V86.4071H53.2752V83.8584Z" fill="black"/>
<path d="M58.3768 83.8584H55.8281V86.4071H58.3768V83.8584Z" fill="black"/>
<path d="M60.9315 83.8584H58.3828V86.4071H60.9315V83.8584Z" fill="black"/>
<path d="M66.0252 83.8584H63.4766V86.4071H66.0252V83.8584Z" fill="black"/>
<path d="M71.119 83.8584H68.5703V86.4071H71.119V83.8584Z" fill="black"/>
<path d="M73.6815 83.8584H71.1328V86.4071H73.6815V83.8584Z" fill="black"/>
<path d="M78.7674 83.8584H76.2188V86.4071H78.7674V83.8584Z" fill="black"/>
<path d="M83.8612 83.8584H81.3125V86.4071H83.8612V83.8584Z" fill="black"/>
<path d="M12.5018 86.4082H9.95312V88.9569H12.5018V86.4082Z" fill="black"/>
<path d="M17.5955 86.4082H15.0469V88.9569H17.5955V86.4082Z" fill="black"/>
<path d="M20.1502 86.4082H17.6016V88.9569H20.1502V86.4082Z" fill="black"/>
<path d="M22.6971 86.4082H20.1484V88.9569H22.6971V86.4082Z" fill="black"/>
<path d="M27.7909 86.4082H25.2422V88.9569H27.7909V86.4082Z" fill="black"/>
<path d="M37.9862 86.4082H35.4375V88.9569H37.9862V86.4082Z" fill="black"/>
<path d="M50.7362 86.4082H48.1875V88.9569H50.7362V86.4082Z" fill="black"/>
<path d="M58.3768 86.4082H55.8281V88.9569H58.3768V86.4082Z" fill="black"/>
<path d="M78.7674 86.4082H76.2188V88.9569H78.7674V86.4082Z" fill="black"/>
<path d="M83.8612 86.4082H81.3125V88.9569H83.8612V86.4082Z" fill="black"/>
<path d="M86.408 86.4082H83.8594V88.9569H86.408V86.4082Z" fill="black"/>
<path d="M12.5018 88.9562H9.95312V91.5048H12.5018V88.9562Z" fill="black"/>
<path d="M27.7909 88.9561H25.2422V91.5047H27.7909V88.9561Z" fill="black"/>
<path d="M32.8846 88.9561H30.3359V91.5047H32.8846V88.9561Z" fill="black"/>
<path d="M37.9862 88.9561H35.4375V91.5047H37.9862V88.9561Z" fill="black"/>
<path d="M43.0877 88.9561H40.5391V91.5047H43.0877V88.9561Z" fill="black"/>
<path d="M48.1893 88.9561H45.6406V91.5047H48.1893V88.9561Z" fill="black"/>
<path d="M55.8299 88.9561H53.2812V91.5047H55.8299V88.9561Z" fill="black"/>
<path d="M63.4784 88.9561H60.9297V91.5047H63.4784V88.9561Z" fill="black"/>
<path d="M66.0252 88.9561H63.4766V91.5047H66.0252V88.9561Z" fill="black"/>
<path d="M71.119 88.9561H68.5703V91.5047H71.119V88.9561Z" fill="black"/>
<path d="M73.6815 88.9561H71.1328V91.5047H73.6815V88.9561Z" fill="black"/>
<path d="M76.2205 88.9561H73.6719V91.5047H76.2205V88.9561Z" fill="black"/>
<path d="M78.7674 88.9561H76.2188V91.5047H78.7674V88.9561Z" fill="black"/>
<path d="M12.5018 91.5049H9.95312V94.0536H12.5018V91.5049Z" fill="black"/>
<path d="M15.0487 91.5049H12.5V94.0536H15.0487V91.5049Z" fill="black"/>
<path d="M17.5955 91.5049H15.0469V94.0536H17.5955V91.5049Z" fill="black"/>
<path d="M20.1502 91.5049H17.6016V94.0536H20.1502V91.5049Z" fill="black"/>
<path d="M22.6971 91.5049H20.1484V94.0536H22.6971V91.5049Z" fill="black"/>
<path d="M25.244 91.5049H22.6953V94.0536H25.244V91.5049Z" fill="black"/>
<path d="M27.7909 91.5049H25.2422V94.0536H27.7909V91.5049Z" fill="black"/>
<path d="M32.8846 91.5049H30.3359V94.0536H32.8846V91.5049Z" fill="black"/>
<path d="M35.4471 91.5049H32.8984V94.0536H35.4471V91.5049Z" fill="black"/>
<path d="M40.5409 91.5049H37.9922V94.0536H40.5409V91.5049Z" fill="black"/>
<path d="M45.6268 91.5049H43.0781V94.0536H45.6268V91.5049Z" fill="black"/>
<path d="M48.1893 91.5049H45.6406V94.0536H48.1893V91.5049Z" fill="black"/>
<path d="M50.7362 91.5049H48.1875V94.0536H50.7362V91.5049Z" fill="black"/>
<path d="M53.2752 91.5049H50.7266V94.0536H53.2752V91.5049Z" fill="black"/>
<path d="M63.4784 91.5049H60.9297V94.0536H63.4784V91.5049Z" fill="black"/>
<path d="M68.5721 91.5049H66.0234V94.0536H68.5721V91.5049Z" fill="black"/>
<path d="M71.119 91.5049H68.5703V94.0536H71.119V91.5049Z" fill="black"/>
<path d="M73.6815 91.5049H71.1328V94.0536H73.6815V91.5049Z" fill="black"/>
<path d="M76.2205 91.5049H73.6719V94.0536H76.2205V91.5049Z" fill="black"/>
<path d="M81.3143 91.5049H78.7656V94.0536H81.3143V91.5049Z" fill="black"/>
<path d="M83.8612 91.5049H81.3125V94.0536H83.8612V91.5049Z" fill="black"/>
<path d="M94.0565 91.5049H91.5078V94.0536H94.0565V91.5049Z" fill="black"/>
<mask id="mask1_3221_4653" style="mask-type:luminance" maskUnits="userSpaceOnUse" x="45" y="45" width="14" height="14">
<path d="M58.7498 45.292H45.3047V58.7371H58.7498V45.292Z" fill="white"/>
</mask>
<g mask="url(#mask1_3221_4653)">
<path d="M52.0272 58.7371C55.74 58.7371 58.7498 55.7273 58.7498 52.0145C58.7498 48.3018 55.74 45.292 52.0272 45.292C48.3145 45.292 45.3047 48.3018 45.3047 52.0145C45.3047 55.7273 48.3145 58.7371 52.0272 58.7371Z" fill="#017C07"/>
<path d="M55.0656 50.2509C55.0656 49.9901 54.8541 49.7794 54.5941 49.7794H53.6978L51.6317 47.3955C51.4397 47.1746 51.1373 47.0863 50.8561 47.1695L50.139 47.3828C50.0295 47.4151 49.9955 47.5544 50.0787 47.6334L52.3283 49.7794H48.8902C48.7908 49.7794 48.7109 49.8592 48.7109 49.9586V50.3469C48.7109 50.6077 48.9225 50.8184 49.1824 50.8184H49.7083V52.6331C49.7083 53.9872 50.4304 54.796 51.6394 54.796C52.0064 54.796 52.3233 54.7527 52.6852 54.6117V55.8214C52.6852 56.1494 52.9511 56.4153 53.279 56.4153H53.8006C53.9247 56.4153 54.0249 56.315 54.0249 56.191V50.8184H54.8872C54.9866 50.8184 55.0665 50.7385 55.0665 50.6391V50.2509H55.0656ZM52.6843 53.4818C52.4728 53.5769 52.1652 53.6304 51.9376 53.6304C51.3216 53.6304 51.0472 53.3229 51.0472 52.6339V50.8192H52.6843V53.4818Z" fill="white"/>
</g>
</g>
</g>
</g>
<path d="M143.896 44.86C147.748 44.86 150.664 47.686 150.664 51.448C150.664 55.21 147.748 58 143.896 58H139.576V44.86H143.896ZM141.988 55.822H143.896C146.326 55.822 148.072 54.112 148.072 51.448C148.072 48.766 146.326 47.056 143.896 47.056H141.988V55.822ZM156.898 58.18C154.18 58.18 152.056 56.2 152.056 53.23C152.056 50.26 154.18 48.334 156.898 48.334C159.616 48.334 161.74 50.26 161.74 53.23C161.74 56.2 159.616 58.18 156.898 58.18ZM156.898 50.332C155.494 50.332 154.396 51.394 154.396 53.23C154.396 55.084 155.494 56.182 156.898 56.182C158.302 56.182 159.418 55.084 159.418 53.23C159.418 51.394 158.302 50.332 156.898 50.332ZM173.597 58H171.257L170.231 54.436C169.907 53.338 169.619 52.006 169.367 50.638C169.133 52.006 168.827 53.338 168.521 54.436L167.477 58H165.137L162.419 48.514H164.741L165.605 51.736C165.893 52.852 166.217 54.724 166.379 55.858C166.577 54.724 166.991 52.798 167.315 51.682L168.269 48.514H170.501L171.455 51.7C171.797 52.798 172.175 54.724 172.391 55.858C172.553 54.724 172.877 52.852 173.165 51.754L174.029 48.514H176.333L173.597 58ZM182.845 48.352C184.771 48.352 186.085 49.594 186.085 51.898V58H183.817V52.078C183.817 50.89 183.115 50.35 182.233 50.35C181.387 50.35 180.649 50.782 180.073 51.268V58H177.805V48.514H179.911V49.504C180.667 48.82 181.711 48.352 182.845 48.352ZM188.352 44.86H190.62V58H188.352V44.86ZM197.31 58.18C194.592 58.18 192.468 56.2 192.468 53.23C192.468 50.26 194.592 48.334 197.31 48.334C200.028 48.334 202.152 50.26 202.152 53.23C202.152 56.2 200.028 58.18 197.31 58.18ZM197.31 50.332C195.906 50.332 194.808 51.394 194.808 53.23C194.808 55.084 195.906 56.182 197.31 56.182C198.714 56.182 199.83 55.084 199.83 53.23C199.83 51.394 198.714 50.332 197.31 50.332ZM207.2 48.334C209.27 48.334 211.106 49.18 211.106 51.862V58H208.964V57.37C208.28 57.838 207.452 58.18 206.48 58.18C204.554 58.18 203.438 57.082 203.438 55.264C203.438 53.374 204.95 52.276 207.092 52.276H208.838V52.006C208.838 50.854 208.046 50.332 206.768 50.332C205.634 50.332 204.644 50.728 203.942 51.106V49.036C204.752 48.604 205.958 48.334 207.2 48.334ZM205.652 55.228C205.652 56.056 206.3 56.47 207.164 56.47C207.776 56.47 208.388 56.29 208.838 56.02V53.896H207.47C206.408 53.896 205.652 54.292 205.652 55.228ZM219.199 48.676V44.86H221.467V57.478C220.297 57.928 219.019 58.18 217.831 58.18C215.131 58.18 212.683 56.614 212.683 53.212C212.683 50.26 214.771 48.334 217.471 48.334C218.119 48.334 218.677 48.46 219.199 48.676ZM217.597 56.182C218.173 56.182 218.713 56.092 219.199 55.966V50.62C218.713 50.44 218.209 50.332 217.705 50.332C216.265 50.332 215.023 51.232 215.023 53.212C215.023 55.066 216.139 56.182 217.597 56.182ZM234.278 48.514V50.404H231.65V54.85C231.65 55.642 232.046 56.182 233.054 56.182C233.396 56.182 233.792 56.128 234.278 56.002V57.982C233.81 58.108 233.342 58.18 232.928 58.18C230.39 58.18 229.382 56.83 229.382 55.03V50.404H227.636V48.514H229.382V46.138H231.65V48.514H234.278ZM241.042 48.334C243.076 48.334 244.462 49.594 244.462 51.88V58H242.194V52.06C242.194 50.89 241.474 50.332 240.538 50.332C239.728 50.332 239.008 50.692 238.45 51.124V58H236.182V44.86H238.45V49.216C239.134 48.676 240.07 48.334 241.042 48.334ZM254.721 52.492C254.721 53.176 254.325 53.536 253.713 53.536H248.259C248.385 55.444 249.771 56.236 251.445 56.236C252.525 56.236 253.443 55.948 253.983 55.714V57.694C253.353 57.928 252.435 58.18 251.229 58.18C248.475 58.18 246.099 56.56 246.099 53.158C246.099 49.882 248.385 48.334 250.635 48.334C252.831 48.334 254.721 49.81 254.721 52.492ZM250.599 50.08C249.483 50.08 248.655 50.782 248.367 52.06H252.651C252.561 50.8 251.679 50.08 250.599 50.08ZM272.339 58H269.657L268.415 54.31H263.933L262.691 58H260.099L264.689 44.86H267.749L272.339 58ZM265.085 50.872L264.653 52.15H267.695L267.263 50.872C266.867 49.702 266.525 48.514 266.165 47.344C265.805 48.514 265.463 49.702 265.085 50.872ZM277.4 48.334C280.1 48.334 282.548 49.864 282.548 53.23C282.548 56.236 280.46 58.18 277.778 58.18C277.13 58.18 276.554 58.054 276.032 57.838V61.6H273.764V49.036C274.934 48.586 276.212 48.334 277.4 48.334ZM277.526 56.182C278.984 56.182 280.208 55.264 280.208 53.23C280.208 51.43 279.11 50.332 277.652 50.332C277.058 50.332 276.518 50.422 276.032 50.548V55.894C276.518 56.074 277.022 56.182 277.526 56.182ZM288.035 48.334C290.735 48.334 293.183 49.864 293.183 53.23C293.183 56.236 291.095 58.18 288.413 58.18C287.765 58.18 287.189 58.054 286.667 57.838V61.6H284.399V49.036C285.569 48.586 286.847 48.334 288.035 48.334ZM288.161 56.182C289.619 56.182 290.843 55.264 290.843 53.23C290.843 51.43 289.745 50.332 288.287 50.332C287.693 50.332 287.153 50.422 286.667 50.548V55.894C287.153 56.074 287.657 56.182 288.161 56.182Z" fill="white"/>
<defs>
<filter id="filter0_d_3221_4653" x="9.6133" y="9.94727" width="84.783" height="84.786" filterUnits="userSpaceOnUse" color-interpolation-filters="sRGB">
<feFlood flood-opacity="0" result="BackgroundImageFix"/>
<feColorMatrix in="SourceAlpha" type="matrix" values="0 0 0 0 0 0 0 0 0 0 0 0 0 0 0 0 0 0 127 0" result="hardAlpha"/>
<feOffset dy="0.339823"/>
<feGaussianBlur stdDeviation="0.169912"/>
<feComposite in2="hardAlpha" operator="out"/>
<feColorMatrix type="matrix" values="0 0 0 0 0 0 0 0 0 0 0 0 0 0 0 0 0 0 0.25 0"/>
<feBlend mode="normal" in2="BackgroundImageFix" result="effect1_dropShadow_3221_4653"/>
<feBlend mode="normal" in="SourceGraphic" in2="effect1_dropShadow_3221_4653" result="shape"/>
</filter>
<clipPath id="clip0_3221_4653">
<rect x="4" y="4" width="96" height="96" rx="4" fill="white"/>
</clipPath>
</defs>
</svg>
