<svg width="312" height="104" viewBox="0 0 312 104" fill="none" xmlns="http://www.w3.org/2000/svg">
<rect x="120" y="31" width="192" height="42" rx="6" fill="#7F44B1"/>
<path d="M111 53.7321C109.667 52.9623 109.667 51.0377 111 50.2679L123 43.3397C124.333 42.5699 126 43.5322 126 45.0718L126 58.9282C126 60.4678 124.333 61.4301 123 60.6603L111 53.7321Z" fill="#7F44B1"/>
<rect width="104" height="104" rx="6" fill="#7F44B1"/>
<rect x="4" y="4" width="96" height="96" rx="4" fill="white"/>
<path d="M12.8675 9.87891H9.96875V12.7806H12.8675V9.87891Z" fill="black"/>
<path d="M15.7659 9.87891H12.8672V12.7806H15.7659V9.87891Z" fill="black"/>
<path d="M18.6566 9.87891H15.7578V12.7806H18.6566V9.87891Z" fill="black"/>
<path d="M21.555 9.87891H18.6562V12.7806H21.555V9.87891Z" fill="black"/>
<path d="M24.4534 9.87891H21.5547V12.7806H24.4534V9.87891Z" fill="black"/>
<path d="M27.3597 9.87891H24.4609V12.7806H27.3597V9.87891Z" fill="black"/>
<path d="M30.2581 9.87891H27.3594V12.7806H30.2581V9.87891Z" fill="black"/>
<path d="M36.0628 9.87891H33.1641V12.7806H36.0628V9.87891Z" fill="black"/>
<path d="M38.9613 9.87891H36.0625V12.7806H38.9613V9.87891Z" fill="black"/>
<path d="M50.555 9.87891H47.6562V12.7806H50.555V9.87891Z" fill="black"/>
<path d="M53.4534 9.87891H50.5547V12.7806H53.4534V9.87891Z" fill="black"/>
<path d="M62.1409 9.87891H59.2422V12.7806H62.1409V9.87891Z" fill="black"/>
<path d="M65.0472 9.87891H62.1484V12.7806H65.0472V9.87891Z" fill="black"/>
<path d="M67.9456 9.87891H65.0469V12.7806H67.9456V9.87891Z" fill="black"/>
<path d="M76.6409 9.87891H73.7422V12.7806H76.6409V9.87891Z" fill="black"/>
<path d="M79.5394 9.87891H76.6406V12.7806H79.5394V9.87891Z" fill="black"/>
<path d="M82.4378 9.87891H79.5391V12.7806H82.4378V9.87891Z" fill="black"/>
<path d="M85.3441 9.87891H82.4453V12.7806H85.3441V9.87891Z" fill="black"/>
<path d="M88.2425 9.87891H85.3438V12.7806H88.2425V9.87891Z" fill="black"/>
<path d="M91.1409 9.87891H88.2422V12.7806H91.1409V9.87891Z" fill="black"/>
<path d="M94.0316 9.87891H91.1328V12.7806H94.0316V9.87891Z" fill="black"/>
<path d="M12.8675 12.7793H9.96875V15.681H12.8675V12.7793Z" fill="black"/>
<path d="M30.2581 12.7793H27.3594V15.681H30.2581V12.7793Z" fill="black"/>
<path d="M50.555 12.7793H47.6562V15.681H50.555V12.7793Z" fill="black"/>
<path d="M65.0472 12.7793H62.1484V15.681H65.0472V12.7793Z" fill="black"/>
<path d="M76.6409 12.7793H73.7422V15.681H76.6409V12.7793Z" fill="black"/>
<path d="M94.0316 12.7793H91.1328V15.681H94.0316V12.7793Z" fill="black"/>
<path d="M12.8675 15.6816H9.96875V18.5833H12.8675V15.6816Z" fill="black"/>
<path d="M18.6566 15.6816H15.7578V18.5833H18.6566V15.6816Z" fill="black"/>
<path d="M21.555 15.6816H18.6562V18.5833H21.555V15.6816Z" fill="black"/>
<path d="M24.4534 15.6816H21.5547V18.5833H24.4534V15.6816Z" fill="black"/>
<path d="M30.2581 15.6816H27.3594V18.5833H30.2581V15.6816Z" fill="black"/>
<path d="M36.0628 15.6816H33.1641V18.5833H36.0628V15.6816Z" fill="black"/>
<path d="M44.7503 15.6816H41.8516V18.5833H44.7503V15.6816Z" fill="black"/>
<path d="M47.6566 15.6816H44.7578V18.5833H47.6566V15.6816Z" fill="black"/>
<path d="M50.555 15.6816H47.6562V18.5833H50.555V15.6816Z" fill="black"/>
<path d="M53.4534 15.6816H50.5547V18.5833H53.4534V15.6816Z" fill="black"/>
<path d="M59.2425 15.6816H56.3438V18.5833H59.2425V15.6816Z" fill="black"/>
<path d="M65.0472 15.6816H62.1484V18.5833H65.0472V15.6816Z" fill="black"/>
<path d="M67.9456 15.6816H65.0469V18.5833H67.9456V15.6816Z" fill="black"/>
<path d="M70.8363 15.6816H67.9375V18.5833H70.8363V15.6816Z" fill="black"/>
<path d="M76.6409 15.6816H73.7422V18.5833H76.6409V15.6816Z" fill="black"/>
<path d="M82.4378 15.6816H79.5391V18.5833H82.4378V15.6816Z" fill="black"/>
<path d="M85.3441 15.6816H82.4453V18.5833H85.3441V15.6816Z" fill="black"/>
<path d="M88.2425 15.6816H85.3438V18.5833H88.2425V15.6816Z" fill="black"/>
<path d="M94.0316 15.6816H91.1328V18.5833H94.0316V15.6816Z" fill="black"/>
<path d="M12.8675 18.582H9.96875V21.4837H12.8675V18.582Z" fill="black"/>
<path d="M18.6566 18.582H15.7578V21.4837H18.6566V18.582Z" fill="black"/>
<path d="M21.555 18.582H18.6562V21.4837H21.555V18.582Z" fill="black"/>
<path d="M24.4534 18.582H21.5547V21.4837H24.4534V18.582Z" fill="black"/>
<path d="M30.2581 18.582H27.3594V21.4837H30.2581V18.582Z" fill="black"/>
<path d="M36.0628 18.582H33.1641V21.4837H36.0628V18.582Z" fill="black"/>
<path d="M38.9613 18.582H36.0625V21.4837H38.9613V18.582Z" fill="black"/>
<path d="M44.7503 18.582H41.8516V21.4837H44.7503V18.582Z" fill="black"/>
<path d="M50.555 18.582H47.6562V21.4837H50.555V18.582Z" fill="black"/>
<path d="M53.4534 18.582H50.5547V21.4837H53.4534V18.582Z" fill="black"/>
<path d="M59.2425 18.582H56.3438V21.4837H59.2425V18.582Z" fill="black"/>
<path d="M62.1409 18.582H59.2422V21.4837H62.1409V18.582Z" fill="black"/>
<path d="M76.6409 18.582H73.7422V21.4837H76.6409V18.582Z" fill="black"/>
<path d="M82.4378 18.582H79.5391V21.4837H82.4378V18.582Z" fill="black"/>
<path d="M85.3441 18.582H82.4453V21.4837H85.3441V18.582Z" fill="black"/>
<path d="M88.2425 18.582H85.3438V21.4837H88.2425V18.582Z" fill="black"/>
<path d="M94.0316 18.582H91.1328V21.4837H94.0316V18.582Z" fill="black"/>
<path d="M12.8675 21.4844H9.96875V24.386H12.8675V21.4844Z" fill="black"/>
<path d="M18.6566 21.4844H15.7578V24.386H18.6566V21.4844Z" fill="black"/>
<path d="M21.555 21.4844H18.6562V24.386H21.555V21.4844Z" fill="black"/>
<path d="M24.4534 21.4844H21.5547V24.386H24.4534V21.4844Z" fill="black"/>
<path d="M30.2581 21.4844H27.3594V24.386H30.2581V21.4844Z" fill="black"/>
<path d="M36.0628 21.4844H33.1641V24.386H36.0628V21.4844Z" fill="black"/>
<path d="M38.9613 21.4844H36.0625V24.386H38.9613V21.4844Z" fill="black"/>
<path d="M41.8519 21.4844H38.9531V24.386H41.8519V21.4844Z" fill="black"/>
<path d="M44.7503 21.4844H41.8516V24.386H44.7503V21.4844Z" fill="black"/>
<path d="M53.4534 21.4844H50.5547V24.386H53.4534V21.4844Z" fill="black"/>
<path d="M56.3441 21.4844H53.4453V24.386H56.3441V21.4844Z" fill="black"/>
<path d="M59.2425 21.4844H56.3438V24.386H59.2425V21.4844Z" fill="black"/>
<path d="M62.1409 21.4844H59.2422V24.386H62.1409V21.4844Z" fill="black"/>
<path d="M65.0472 21.4844H62.1484V24.386H65.0472V21.4844Z" fill="black"/>
<path d="M67.9456 21.4844H65.0469V24.386H67.9456V21.4844Z" fill="black"/>
<path d="M76.6409 21.4844H73.7422V24.386H76.6409V21.4844Z" fill="black"/>
<path d="M82.4378 21.4844H79.5391V24.386H82.4378V21.4844Z" fill="black"/>
<path d="M85.3441 21.4844H82.4453V24.386H85.3441V21.4844Z" fill="black"/>
<path d="M88.2425 21.4844H85.3438V24.386H88.2425V21.4844Z" fill="black"/>
<path d="M94.0316 21.4844H91.1328V24.386H94.0316V21.4844Z" fill="black"/>
<path d="M12.8675 24.3867H9.96875V27.2884H12.8675V24.3867Z" fill="black"/>
<path d="M30.2581 24.3867H27.3594V27.2884H30.2581V24.3867Z" fill="black"/>
<path d="M38.9613 24.3867H36.0625V27.2884H38.9613V24.3867Z" fill="black"/>
<path d="M47.6566 24.3867H44.7578V27.2884H47.6566V24.3867Z" fill="black"/>
<path d="M50.555 24.3867H47.6562V27.2884H50.555V24.3867Z" fill="black"/>
<path d="M59.2425 24.3867H56.3438V27.2884H59.2425V24.3867Z" fill="black"/>
<path d="M62.1409 24.3867H59.2422V27.2884H62.1409V24.3867Z" fill="black"/>
<path d="M67.9456 24.3867H65.0469V27.2884H67.9456V24.3867Z" fill="black"/>
<path d="M70.8363 24.3867H67.9375V27.2884H70.8363V24.3867Z" fill="black"/>
<path d="M76.6409 24.3867H73.7422V27.2884H76.6409V24.3867Z" fill="black"/>
<path d="M94.0316 24.3867H91.1328V27.2884H94.0316V24.3867Z" fill="black"/>
<path d="M12.8675 27.2871H9.96875V30.1888H12.8675V27.2871Z" fill="black"/>
<path d="M15.7659 27.2871H12.8672V30.1888H15.7659V27.2871Z" fill="black"/>
<path d="M18.6566 27.2871H15.7578V30.1888H18.6566V27.2871Z" fill="black"/>
<path d="M21.555 27.2871H18.6562V30.1888H21.555V27.2871Z" fill="black"/>
<path d="M24.4534 27.2871H21.5547V30.1888H24.4534V27.2871Z" fill="black"/>
<path d="M27.3597 27.2871H24.4609V30.1888H27.3597V27.2871Z" fill="black"/>
<path d="M30.2581 27.2871H27.3594V30.1888H30.2581V27.2871Z" fill="black"/>
<path d="M36.0628 27.2871H33.1641V30.1888H36.0628V27.2871Z" fill="black"/>
<path d="M41.8519 27.2871H38.9531V30.1888H41.8519V27.2871Z" fill="black"/>
<path d="M47.6566 27.2871H44.7578V30.1888H47.6566V27.2871Z" fill="black"/>
<path d="M53.4534 27.2871H50.5547V30.1888H53.4534V27.2871Z" fill="black"/>
<path d="M59.2425 27.2871H56.3438V30.1888H59.2425V27.2871Z" fill="black"/>
<path d="M65.0472 27.2871H62.1484V30.1888H65.0472V27.2871Z" fill="black"/>
<path d="M70.8363 27.2871H67.9375V30.1888H70.8363V27.2871Z" fill="black"/>
<path d="M76.6409 27.2871H73.7422V30.1888H76.6409V27.2871Z" fill="black"/>
<path d="M79.5394 27.2871H76.6406V30.1888H79.5394V27.2871Z" fill="black"/>
<path d="M82.4378 27.2871H79.5391V30.1888H82.4378V27.2871Z" fill="black"/>
<path d="M85.3441 27.2871H82.4453V30.1888H85.3441V27.2871Z" fill="black"/>
<path d="M88.2425 27.2871H85.3438V30.1888H88.2425V27.2871Z" fill="black"/>
<path d="M91.1409 27.2871H88.2422V30.1888H91.1409V27.2871Z" fill="black"/>
<path d="M94.0316 27.2871H91.1328V30.1888H94.0316V27.2871Z" fill="black"/>
<path d="M38.9613 30.1895H36.0625V33.0911H38.9613V30.1895Z" fill="black"/>
<path d="M44.7503 30.1895H41.8516V33.0911H44.7503V30.1895Z" fill="black"/>
<path d="M62.1409 30.1895H59.2422V33.0911H62.1409V30.1895Z" fill="black"/>
<path d="M12.8675 33.0898H9.96875V35.9915H12.8675V33.0898Z" fill="black"/>
<path d="M15.7659 33.0898H12.8672V35.9915H15.7659V33.0898Z" fill="black"/>
<path d="M18.6566 33.0898H15.7578V35.9915H18.6566V33.0898Z" fill="black"/>
<path d="M21.555 33.0898H18.6562V35.9915H21.555V33.0898Z" fill="black"/>
<path d="M30.2581 33.0898H27.3594V35.9915H30.2581V33.0898Z" fill="black"/>
<path d="M36.0628 33.0898H33.1641V35.9915H36.0628V33.0898Z" fill="black"/>
<path d="M53.4534 33.0898H50.5547V35.9915H53.4534V33.0898Z" fill="black"/>
<path d="M56.3441 33.0898H53.4453V35.9915H56.3441V33.0898Z" fill="black"/>
<path d="M65.0472 33.0898H62.1484V35.9915H65.0472V33.0898Z" fill="black"/>
<path d="M73.7347 33.0898H70.8359V35.9915H73.7347V33.0898Z" fill="black"/>
<path d="M82.4378 33.0898H79.5391V35.9915H82.4378V33.0898Z" fill="black"/>
<path d="M85.3441 33.0898H82.4453V35.9915H85.3441V33.0898Z" fill="black"/>
<path d="M88.2425 33.0898H85.3438V35.9915H88.2425V33.0898Z" fill="black"/>
<path d="M94.0316 33.0898H91.1328V35.9915H94.0316V33.0898Z" fill="black"/>
<path d="M12.8675 35.9922H9.96875V38.8939H12.8675V35.9922Z" fill="black"/>
<path d="M15.7659 35.9922H12.8672V38.8939H15.7659V35.9922Z" fill="black"/>
<path d="M18.6566 35.9922H15.7578V38.8939H18.6566V35.9922Z" fill="black"/>
<path d="M21.555 35.9922H18.6562V38.8939H21.555V35.9922Z" fill="black"/>
<path d="M24.4534 35.9922H21.5547V38.8939H24.4534V35.9922Z" fill="black"/>
<path d="M36.0628 35.9922H33.1641V38.8939H36.0628V35.9922Z" fill="black"/>
<path d="M38.9613 35.9922H36.0625V38.8939H38.9613V35.9922Z" fill="black"/>
<path d="M59.2425 35.9922H56.3438V38.8939H59.2425V35.9922Z" fill="black"/>
<path d="M67.9456 35.9922H65.0469V38.8939H67.9456V35.9922Z" fill="black"/>
<path d="M70.8363 35.9922H67.9375V38.8939H70.8363V35.9922Z" fill="black"/>
<path d="M73.7347 35.9922H70.8359V38.8939H73.7347V35.9922Z" fill="black"/>
<path d="M76.6409 35.9922H73.7422V38.8939H76.6409V35.9922Z" fill="black"/>
<path d="M79.5394 35.9922H76.6406V38.8939H79.5394V35.9922Z" fill="black"/>
<path d="M82.4378 35.9922H79.5391V38.8939H82.4378V35.9922Z" fill="black"/>
<path d="M94.0316 35.9922H91.1328V38.8939H94.0316V35.9922Z" fill="black"/>
<path d="M15.7659 38.8945H12.8672V41.7962H15.7659V38.8945Z" fill="black"/>
<path d="M30.2581 38.8945H27.3594V41.7962H30.2581V38.8945Z" fill="black"/>
<path d="M33.1566 38.8945H30.2578V41.7962H33.1566V38.8945Z" fill="black"/>
<path d="M50.555 38.8945H47.6562V41.7962H50.555V38.8945Z" fill="black"/>
<path d="M59.2425 38.8945H56.3438V41.7962H59.2425V38.8945Z" fill="black"/>
<path d="M62.1409 38.8945H59.2422V41.7962H62.1409V38.8945Z" fill="black"/>
<path d="M70.8363 38.8945H67.9375V41.7962H70.8363V38.8945Z" fill="black"/>
<path d="M73.7347 38.8945H70.8359V41.7962H73.7347V38.8945Z" fill="black"/>
<path d="M76.6409 38.8945H73.7422V41.7962H76.6409V38.8945Z" fill="black"/>
<path d="M79.5394 38.8945H76.6406V41.7962H79.5394V38.8945Z" fill="black"/>
<path d="M82.4378 38.8945H79.5391V41.7962H82.4378V38.8945Z" fill="black"/>
<path d="M88.2425 38.8945H85.3438V41.7962H88.2425V38.8945Z" fill="black"/>
<path d="M91.1409 38.8945H88.2422V41.7962H91.1409V38.8945Z" fill="black"/>
<path d="M12.8675 41.7949H9.96875V44.6966H12.8675V41.7949Z" fill="black"/>
<path d="M21.555 41.7949H18.6562V44.6966H21.555V41.7949Z" fill="black"/>
<path d="M33.1566 41.7949H30.2578V44.6966H33.1566V41.7949Z" fill="black"/>
<path d="M44.7503 41.7949H41.8516V44.6966H44.7503V41.7949Z" fill="black"/>
<path d="M47.6566 41.7949H44.7578V44.6966H47.6566V41.7949Z" fill="black"/>
<path d="M50.555 41.7949H47.6562V44.6966H50.555V41.7949Z" fill="black"/>
<path d="M59.2425 41.7949H56.3438V44.6966H59.2425V41.7949Z" fill="black"/>
<path d="M70.8363 41.7949H67.9375V44.6966H70.8363V41.7949Z" fill="black"/>
<path d="M73.7347 41.7949H70.8359V44.6966H73.7347V41.7949Z" fill="black"/>
<path d="M79.5394 41.7949H76.6406V44.6966H79.5394V41.7949Z" fill="black"/>
<path d="M82.4378 41.7949H79.5391V44.6966H82.4378V41.7949Z" fill="black"/>
<path d="M94.0316 41.7949H91.1328V44.6966H94.0316V41.7949Z" fill="black"/>
<path d="M18.6566 44.6973H15.7578V47.5989H18.6566V44.6973Z" fill="black"/>
<path d="M30.2581 44.6973H27.3594V47.5989H30.2581V44.6973Z" fill="black"/>
<path d="M33.1566 44.6973H30.2578V47.5989H33.1566V44.6973Z" fill="black"/>
<path d="M38.9613 44.6973H36.0625V47.5989H38.9613V44.6973Z" fill="black"/>
<path d="M44.7503 44.6973H41.8516V47.5989H44.7503V44.6973Z" fill="black"/>
<path d="M47.6566 44.6973H44.7578V47.5989H47.6566V44.6973Z" fill="black"/>
<path d="M53.4534 44.6973H50.5547V47.5989H53.4534V44.6973Z" fill="black"/>
<path d="M56.3441 44.6973H53.4453V47.5989H56.3441V44.6973Z" fill="black"/>
<path d="M62.1409 44.6973H59.2422V47.5989H62.1409V44.6973Z" fill="black"/>
<path d="M67.9456 44.6973H65.0469V47.5989H67.9456V44.6973Z" fill="black"/>
<path d="M85.3441 44.6973H82.4453V47.5989H85.3441V44.6973Z" fill="black"/>
<path d="M88.2425 44.6973H85.3438V47.5989H88.2425V44.6973Z" fill="black"/>
<path d="M12.8675 47.6006H9.96875V50.5023H12.8675V47.6006Z" fill="black"/>
<path d="M18.6566 47.6006H15.7578V50.5023H18.6566V47.6006Z" fill="black"/>
<path d="M21.555 47.6006H18.6562V50.5023H21.555V47.6006Z" fill="black"/>
<path d="M38.9613 47.6006H36.0625V50.5023H38.9613V47.6006Z" fill="black"/>
<path d="M41.8519 47.6006H38.9531V50.5023H41.8519V47.6006Z" fill="black"/>
<path d="M44.7503 47.6006H41.8516V50.5023H44.7503V47.6006Z" fill="black"/>
<path d="M50.555 47.6006H47.6562V50.5023H50.555V47.6006Z" fill="black"/>
<path d="M56.3441 47.6006H53.4453V50.5023H56.3441V47.6006Z" fill="black"/>
<path d="M59.2425 47.6006H56.3438V50.5023H59.2425V47.6006Z" fill="black"/>
<path d="M67.9456 47.6006H65.0469V50.5023H67.9456V47.6006Z" fill="black"/>
<path d="M70.8363 47.6006H67.9375V50.5023H70.8363V47.6006Z" fill="black"/>
<path d="M76.6409 47.6006H73.7422V50.5023H76.6409V47.6006Z" fill="black"/>
<path d="M79.5394 47.6006H76.6406V50.5023H79.5394V47.6006Z" fill="black"/>
<path d="M88.2425 47.6006H85.3438V50.5023H88.2425V47.6006Z" fill="black"/>
<path d="M91.1409 47.6006H88.2422V50.5023H91.1409V47.6006Z" fill="black"/>
<path d="M94.0316 47.6006H91.1328V50.5023H94.0316V47.6006Z" fill="black"/>
<path d="M12.8675 50.501H9.96875V53.4026H12.8675V50.501Z" fill="black"/>
<path d="M18.6566 50.501H15.7578V53.4026H18.6566V50.501Z" fill="black"/>
<path d="M30.2581 50.501H27.3594V53.4026H30.2581V50.501Z" fill="black"/>
<path d="M41.8519 50.501H38.9531V53.4026H41.8519V50.501Z" fill="black"/>
<path d="M47.6566 50.501H44.7578V53.4026H47.6566V50.501Z" fill="black"/>
<path d="M53.4534 50.501H50.5547V53.4026H53.4534V50.501Z" fill="black"/>
<path d="M59.2425 50.501H56.3438V53.4026H59.2425V50.501Z" fill="black"/>
<path d="M62.1409 50.501H59.2422V53.4026H62.1409V50.501Z" fill="black"/>
<path d="M67.9456 50.501H65.0469V53.4026H67.9456V50.501Z" fill="black"/>
<path d="M70.8363 50.5011H67.9375V53.4028H70.8363V50.5011Z" fill="black"/>
<path d="M73.7347 50.501H70.8359V53.4026H73.7347V50.501Z" fill="black"/>
<path d="M79.5394 50.501H76.6406V53.4026H79.5394V50.501Z" fill="black"/>
<path d="M88.2425 50.501H85.3438V53.4026H88.2425V50.501Z" fill="black"/>
<path d="M91.1409 50.501H88.2422V53.4026H91.1409V50.501Z" fill="black"/>
<path d="M94.0316 50.501H91.1328V53.4026H94.0316V50.501Z" fill="black"/>
<path d="M24.4534 53.4033H21.5547V56.305H24.4534V53.4033Z" fill="black"/>
<path d="M27.3597 53.4033H24.4609V56.305H27.3597V53.4033Z" fill="black"/>
<path d="M53.4534 53.4033H50.5547V56.305H53.4534V53.4033Z" fill="black"/>
<path d="M65.0472 53.4033H62.1484V56.305H65.0472V53.4033Z" fill="black"/>
<path d="M67.9456 53.4033H65.0469V56.305H67.9456V53.4033Z" fill="black"/>
<path d="M73.7347 53.4033H70.8359V56.305H73.7347V53.4033Z" fill="black"/>
<path d="M76.6409 53.4033H73.7422V56.305H76.6409V53.4033Z" fill="black"/>
<path d="M79.5394 53.4033H76.6406V56.305H79.5394V53.4033Z" fill="black"/>
<path d="M82.4378 53.4033H79.5391V56.305H82.4378V53.4033Z" fill="black"/>
<path d="M91.1409 53.4033H88.2422V56.305H91.1409V53.4033Z" fill="black"/>
<path d="M15.7659 56.3037H12.8672V59.2054H15.7659V56.3037Z" fill="black"/>
<path d="M18.6566 56.3037H15.7578V59.2054H18.6566V56.3037Z" fill="black"/>
<path d="M24.4534 56.3037H21.5547V59.2054H24.4534V56.3037Z" fill="black"/>
<path d="M30.2581 56.3037H27.3594V59.2054H30.2581V56.3037Z" fill="black"/>
<path d="M36.0628 56.3037H33.1641V59.2054H36.0628V56.3037Z" fill="black"/>
<path d="M44.7503 56.3037H41.8516V59.2054H44.7503V56.3037Z" fill="black"/>
<path d="M50.555 56.3037H47.6562V59.2054H50.555V56.3037Z" fill="black"/>
<path d="M59.2425 56.3037H56.3438V59.2054H59.2425V56.3037Z" fill="black"/>
<path d="M65.0472 56.3037H62.1484V59.2054H65.0472V56.3037Z" fill="black"/>
<path d="M67.9456 56.3037H65.0469V59.2054H67.9456V56.3037Z" fill="black"/>
<path d="M70.8363 56.3037H67.9375V59.2054H70.8363V56.3037Z" fill="black"/>
<path d="M73.7347 56.3037H70.8359V59.2054H73.7347V56.3037Z" fill="black"/>
<path d="M79.5394 56.3037H76.6406V59.2054H79.5394V56.3037Z" fill="black"/>
<path d="M82.4378 56.3037H79.5391V59.2054H82.4378V56.3037Z" fill="black"/>
<path d="M85.3441 56.3037H82.4453V59.2054H85.3441V56.3037Z" fill="black"/>
<path d="M91.1409 56.3037H88.2422V59.2054H91.1409V56.3037Z" fill="black"/>
<path d="M15.7659 59.2061H12.8672V62.1077H15.7659V59.2061Z" fill="black"/>
<path d="M21.555 59.2061H18.6562V62.1077H21.555V59.2061Z" fill="black"/>
<path d="M24.4534 59.2061H21.5547V62.1077H24.4534V59.2061Z" fill="black"/>
<path d="M27.3597 59.2061H24.4609V62.1077H27.3597V59.2061Z" fill="black"/>
<path d="M36.0628 59.2061H33.1641V62.1077H36.0628V59.2061Z" fill="black"/>
<path d="M38.9613 59.2059H36.0625V62.1076H38.9613V59.2059Z" fill="black"/>
<path d="M44.7503 59.2061H41.8516V62.1077H44.7503V59.2061Z" fill="black"/>
<path d="M47.6566 59.2061H44.7578V62.1077H47.6566V59.2061Z" fill="black"/>
<path d="M50.555 59.2061H47.6562V62.1077H50.555V59.2061Z" fill="black"/>
<path d="M53.4534 59.2061H50.5547V62.1077H53.4534V59.2061Z" fill="black"/>
<path d="M56.3441 59.2061H53.4453V62.1077H56.3441V59.2061Z" fill="black"/>
<path d="M65.0472 59.2061H62.1484V62.1077H65.0472V59.2061Z" fill="black"/>
<path d="M70.8363 59.2059H67.9375V62.1076H70.8363V59.2059Z" fill="black"/>
<path d="M79.5394 59.2061H76.6406V62.1077H79.5394V59.2061Z" fill="black"/>
<path d="M85.3441 59.2061H82.4453V62.1077H85.3441V59.2061Z" fill="black"/>
<path d="M88.2425 59.2061H85.3438V62.1077H88.2425V59.2061Z" fill="black"/>
<path d="M91.1409 59.2061H88.2422V62.1077H91.1409V59.2061Z" fill="black"/>
<path d="M12.8675 62.1084H9.96875V65.0101H12.8675V62.1084Z" fill="black"/>
<path d="M21.555 62.1084H18.6562V65.0101H21.555V62.1084Z" fill="black"/>
<path d="M24.4534 62.1084H21.5547V65.0101H24.4534V62.1084Z" fill="black"/>
<path d="M30.2581 62.1084H27.3594V65.0101H30.2581V62.1084Z" fill="black"/>
<path d="M33.1566 62.1084H30.2578V65.0101H33.1566V62.1084Z" fill="black"/>
<path d="M36.0628 62.1084H33.1641V65.0101H36.0628V62.1084Z" fill="black"/>
<path d="M38.9613 62.1084H36.0625V65.0101H38.9613V62.1084Z" fill="black"/>
<path d="M56.3441 62.1084H53.4453V65.0101H56.3441V62.1084Z" fill="black"/>
<path d="M59.2425 62.1084H56.3438V65.0101H59.2425V62.1084Z" fill="black"/>
<path d="M65.0472 62.1084H62.1484V65.0101H65.0472V62.1084Z" fill="black"/>
<path d="M82.4378 62.1084H79.5391V65.0101H82.4378V62.1084Z" fill="black"/>
<path d="M88.2425 62.1084H85.3438V65.0101H88.2425V62.1084Z" fill="black"/>
<path d="M33.1566 65.0088H30.2578V67.9105H33.1566V65.0088Z" fill="black"/>
<path d="M38.9613 65.0089H36.0625V67.9106H38.9613V65.0089Z" fill="black"/>
<path d="M44.7503 65.0088H41.8516V67.9105H44.7503V65.0088Z" fill="black"/>
<path d="M47.6566 65.0088H44.7578V67.9105H47.6566V65.0088Z" fill="black"/>
<path d="M56.3441 65.0088H53.4453V67.9105H56.3441V65.0088Z" fill="black"/>
<path d="M62.1409 65.0088H59.2422V67.9105H62.1409V65.0088Z" fill="black"/>
<path d="M67.9456 65.0088H65.0469V67.9105H67.9456V65.0088Z" fill="black"/>
<path d="M73.7347 65.0088H70.8359V67.9105H73.7347V65.0088Z" fill="black"/>
<path d="M79.5394 65.0088H76.6406V67.9105H79.5394V65.0088Z" fill="black"/>
<path d="M88.2425 65.0088H85.3438V67.9105H88.2425V65.0088Z" fill="black"/>
<path d="M15.7659 67.9111H12.8672V70.8128H15.7659V67.9111Z" fill="black"/>
<path d="M18.6566 67.9111H15.7578V70.8128H18.6566V67.9111Z" fill="black"/>
<path d="M30.2581 67.9111H27.3594V70.8128H30.2581V67.9111Z" fill="black"/>
<path d="M36.0628 67.9111H33.1641V70.8128H36.0628V67.9111Z" fill="black"/>
<path d="M47.6566 67.9111H44.7578V70.8128H47.6566V67.9111Z" fill="black"/>
<path d="M53.4534 67.9111H50.5547V70.8128H53.4534V67.9111Z" fill="black"/>
<path d="M62.1409 67.9111H59.2422V70.8128H62.1409V67.9111Z" fill="black"/>
<path d="M70.8363 67.9111H67.9375V70.8128H70.8363V67.9111Z" fill="black"/>
<path d="M73.7347 67.9111H70.8359V70.8128H73.7347V67.9111Z" fill="black"/>
<path d="M76.6409 67.9111H73.7422V70.8128H76.6409V67.9111Z" fill="black"/>
<path d="M79.5394 67.9111H76.6406V70.8128H79.5394V67.9111Z" fill="black"/>
<path d="M82.4378 67.9111H79.5391V70.8128H82.4378V67.9111Z" fill="black"/>
<path d="M85.3441 67.9111H82.4453V70.8128H85.3441V67.9111Z" fill="black"/>
<path d="M88.2425 67.9111H85.3438V70.8128H88.2425V67.9111Z" fill="black"/>
<path d="M36.0628 70.8115H33.1641V73.7132H36.0628V70.8115Z" fill="black"/>
<path d="M38.9613 70.8115H36.0625V73.7132H38.9613V70.8115Z" fill="black"/>
<path d="M41.8519 70.8115H38.9531V73.7132H41.8519V70.8115Z" fill="black"/>
<path d="M44.7503 70.8115H41.8516V73.7132H44.7503V70.8115Z" fill="black"/>
<path d="M53.4534 70.8115H50.5547V73.7132H53.4534V70.8115Z" fill="black"/>
<path d="M59.2425 70.8115H56.3438V73.7132H59.2425V70.8115Z" fill="black"/>
<path d="M62.1409 70.8115H59.2422V73.7132H62.1409V70.8115Z" fill="black"/>
<path d="M65.0472 70.8115H62.1484V73.7132H65.0472V70.8115Z" fill="black"/>
<path d="M70.8363 70.8115H67.9375V73.7132H70.8363V70.8115Z" fill="black"/>
<path d="M82.4378 70.8115H79.5391V73.7132H82.4378V70.8115Z" fill="black"/>
<path d="M85.3441 70.8115H82.4453V73.7132H85.3441V70.8115Z" fill="black"/>
<path d="M88.2425 70.8115H85.3438V73.7132H88.2425V70.8115Z" fill="black"/>
<path d="M91.1409 70.8115H88.2422V73.7132H91.1409V70.8115Z" fill="black"/>
<path d="M94.0316 70.8115H91.1328V73.7132H94.0316V70.8115Z" fill="black"/>
<path d="M12.8675 73.7139H9.96875V76.6155H12.8675V73.7139Z" fill="black"/>
<path d="M15.7659 73.7139H12.8672V76.6155H15.7659V73.7139Z" fill="black"/>
<path d="M18.6566 73.7139H15.7578V76.6155H18.6566V73.7139Z" fill="black"/>
<path d="M21.555 73.7139H18.6562V76.6155H21.555V73.7139Z" fill="black"/>
<path d="M24.4534 73.7139H21.5547V76.6155H24.4534V73.7139Z" fill="black"/>
<path d="M27.3597 73.7139H24.4609V76.6155H27.3597V73.7139Z" fill="black"/>
<path d="M30.2581 73.7139H27.3594V76.6155H30.2581V73.7139Z" fill="black"/>
<path d="M41.8519 73.7139H38.9531V76.6155H41.8519V73.7139Z" fill="black"/>
<path d="M44.7503 73.7139H41.8516V76.6155H44.7503V73.7139Z" fill="black"/>
<path d="M50.555 73.7139H47.6562V76.6155H50.555V73.7139Z" fill="black"/>
<path d="M53.4534 73.7139H50.5547V76.6155H53.4534V73.7139Z" fill="black"/>
<path d="M65.0472 73.7139H62.1484V76.6155H65.0472V73.7139Z" fill="black"/>
<path d="M67.9456 73.7139H65.0469V76.6155H67.9456V73.7139Z" fill="black"/>
<path d="M70.8363 73.7137H67.9375V76.6154H70.8363V73.7137Z" fill="black"/>
<path d="M76.6409 73.7139H73.7422V76.6155H76.6409V73.7139Z" fill="black"/>
<path d="M82.4378 73.7139H79.5391V76.6155H82.4378V73.7139Z" fill="black"/>
<path d="M85.3441 73.7139H82.4453V76.6155H85.3441V73.7139Z" fill="black"/>
<path d="M91.1409 73.7139H88.2422V76.6155H91.1409V73.7139Z" fill="black"/>
<path d="M12.8675 76.6162H9.96875V79.5179H12.8675V76.6162Z" fill="black"/>
<path d="M30.2581 76.6162H27.3594V79.5179H30.2581V76.6162Z" fill="black"/>
<path d="M44.7503 76.6162H41.8516V79.5179H44.7503V76.6162Z" fill="black"/>
<path d="M50.555 76.6162H47.6562V79.5179H50.555V76.6162Z" fill="black"/>
<path d="M56.3441 76.6162H53.4453V79.5179H56.3441V76.6162Z" fill="black"/>
<path d="M59.2425 76.6162H56.3438V79.5179H59.2425V76.6162Z" fill="black"/>
<path d="M65.0472 76.6162H62.1484V79.5179H65.0472V76.6162Z" fill="black"/>
<path d="M70.8363 76.6162H67.9375V79.5179H70.8363V76.6162Z" fill="black"/>
<path d="M82.4378 76.6162H79.5391V79.5179H82.4378V76.6162Z" fill="black"/>
<path d="M85.3441 76.6162H82.4453V79.5179H85.3441V76.6162Z" fill="black"/>
<path d="M91.1409 76.6162H88.2422V79.5179H91.1409V76.6162Z" fill="black"/>
<path d="M12.8675 79.5166H9.96875V82.4183H12.8675V79.5166Z" fill="black"/>
<path d="M18.6566 79.5166H15.7578V82.4183H18.6566V79.5166Z" fill="black"/>
<path d="M21.555 79.5166H18.6562V82.4183H21.555V79.5166Z" fill="black"/>
<path d="M24.4534 79.5166H21.5547V82.4183H24.4534V79.5166Z" fill="black"/>
<path d="M30.2581 79.5166H27.3594V82.4183H30.2581V79.5166Z" fill="black"/>
<path d="M50.555 79.5166H47.6562V82.4183H50.555V79.5166Z" fill="black"/>
<path d="M56.3441 79.5166H53.4453V82.4183H56.3441V79.5166Z" fill="black"/>
<path d="M59.2425 79.5166H56.3438V82.4183H59.2425V79.5166Z" fill="black"/>
<path d="M62.1409 79.5166H59.2422V82.4183H62.1409V79.5166Z" fill="black"/>
<path d="M70.8363 79.5167H67.9375V82.4184H70.8363V79.5167Z" fill="black"/>
<path d="M73.7347 79.5166H70.8359V82.4183H73.7347V79.5166Z" fill="black"/>
<path d="M76.6409 79.5166H73.7422V82.4183H76.6409V79.5166Z" fill="black"/>
<path d="M79.5394 79.5166H76.6406V82.4183H79.5394V79.5166Z" fill="black"/>
<path d="M82.4378 79.5166H79.5391V82.4183H82.4378V79.5166Z" fill="black"/>
<path d="M88.2425 79.5166H85.3438V82.4183H88.2425V79.5166Z" fill="black"/>
<path d="M94.0316 79.5166H91.1328V82.4183H94.0316V79.5166Z" fill="black"/>
<path d="M12.8675 82.4189H9.96875V85.3206H12.8675V82.4189Z" fill="black"/>
<path d="M18.6566 82.4189H15.7578V85.3206H18.6566V82.4189Z" fill="black"/>
<path d="M21.555 82.4189H18.6562V85.3206H21.555V82.4189Z" fill="black"/>
<path d="M24.4534 82.4189H21.5547V85.3206H24.4534V82.4189Z" fill="black"/>
<path d="M30.2581 82.4189H27.3594V85.3206H30.2581V82.4189Z" fill="black"/>
<path d="M36.0628 82.4189H33.1641V85.3206H36.0628V82.4189Z" fill="black"/>
<path d="M41.8519 82.4189H38.9531V85.3206H41.8519V82.4189Z" fill="black"/>
<path d="M47.6566 82.4189H44.7578V85.3206H47.6566V82.4189Z" fill="black"/>
<path d="M50.555 82.4189H47.6562V85.3206H50.555V82.4189Z" fill="black"/>
<path d="M56.3441 82.4189H53.4453V85.3206H56.3441V82.4189Z" fill="black"/>
<path d="M65.0472 82.4189H62.1484V85.3206H65.0472V82.4189Z" fill="black"/>
<path d="M67.9456 82.4189H65.0469V85.3206H67.9456V82.4189Z" fill="black"/>
<path d="M70.8363 82.4189H67.9375V85.3206H70.8363V82.4189Z" fill="black"/>
<path d="M73.7347 82.4189H70.8359V85.3206H73.7347V82.4189Z" fill="black"/>
<path d="M82.4378 82.4189H79.5391V85.3206H82.4378V82.4189Z" fill="black"/>
<path d="M85.3441 82.4189H82.4453V85.3206H85.3441V82.4189Z" fill="black"/>
<path d="M94.0316 82.4189H91.1328V85.3206H94.0316V82.4189Z" fill="black"/>
<path d="M12.8675 85.3193H9.96875V88.221H12.8675V85.3193Z" fill="black"/>
<path d="M18.6566 85.3193H15.7578V88.221H18.6566V85.3193Z" fill="black"/>
<path d="M21.555 85.3193H18.6562V88.221H21.555V85.3193Z" fill="black"/>
<path d="M24.4534 85.3193H21.5547V88.221H24.4534V85.3193Z" fill="black"/>
<path d="M30.2581 85.3193H27.3594V88.221H30.2581V85.3193Z" fill="black"/>
<path d="M36.0628 85.3193H33.1641V88.221H36.0628V85.3193Z" fill="black"/>
<path d="M41.8519 85.3193H38.9531V88.221H41.8519V85.3193Z" fill="black"/>
<path d="M50.555 85.3193H47.6562V88.221H50.555V85.3193Z" fill="black"/>
<path d="M53.4534 85.3193H50.5547V88.221H53.4534V85.3193Z" fill="black"/>
<path d="M62.1409 85.3193H59.2422V88.221H62.1409V85.3193Z" fill="black"/>
<path d="M67.9456 85.3193H65.0469V88.221H67.9456V85.3193Z" fill="black"/>
<path d="M70.8363 85.3193H67.9375V88.221H70.8363V85.3193Z" fill="black"/>
<path d="M79.5394 85.3193H76.6406V88.221H79.5394V85.3193Z" fill="black"/>
<path d="M88.2425 85.3193H85.3438V88.221H88.2425V85.3193Z" fill="black"/>
<path d="M94.0316 85.3193H91.1328V88.221H94.0316V85.3193Z" fill="black"/>
<path d="M12.8675 88.2217H9.96875V91.1233H12.8675V88.2217Z" fill="black"/>
<path d="M30.2581 88.2217H27.3594V91.1233H30.2581V88.2217Z" fill="black"/>
<path d="M36.0628 88.2217H33.1641V91.1233H36.0628V88.2217Z" fill="black"/>
<path d="M38.9613 88.2216H36.0625V91.1232H38.9613V88.2216Z" fill="black"/>
<path d="M53.4534 88.2217H50.5547V91.1233H53.4534V88.2217Z" fill="black"/>
<path d="M56.3441 88.2217H53.4453V91.1233H56.3441V88.2217Z" fill="black"/>
<path d="M59.2425 88.2217H56.3438V91.1233H59.2425V88.2217Z" fill="black"/>
<path d="M65.0472 88.2217H62.1484V91.1233H65.0472V88.2217Z" fill="black"/>
<path d="M70.8363 88.2216H67.9375V91.1232H70.8363V88.2216Z" fill="black"/>
<path d="M76.6409 88.2217H73.7422V91.1233H76.6409V88.2217Z" fill="black"/>
<path d="M82.4378 88.2217H79.5391V91.1233H82.4378V88.2217Z" fill="black"/>
<path d="M85.3441 88.2217H82.4453V91.1233H85.3441V88.2217Z" fill="black"/>
<path d="M91.1409 88.2217H88.2422V91.1233H91.1409V88.2217Z" fill="black"/>
<path d="M12.8675 91.126H9.96875V94.0276H12.8675V91.126Z" fill="black"/>
<path d="M15.7659 91.126H12.8672V94.0276H15.7659V91.126Z" fill="black"/>
<path d="M18.6566 91.126H15.7578V94.0276H18.6566V91.126Z" fill="black"/>
<path d="M21.555 91.126H18.6562V94.0276H21.555V91.126Z" fill="black"/>
<path d="M24.4534 91.126H21.5547V94.0276H24.4534V91.126Z" fill="black"/>
<path d="M27.3597 91.126H24.4609V94.0276H27.3597V91.126Z" fill="black"/>
<path d="M30.2581 91.126H27.3594V94.0276H30.2581V91.126Z" fill="black"/>
<path d="M36.0628 91.126H33.1641V94.0276H36.0628V91.126Z" fill="black"/>
<path d="M41.8519 91.126H38.9531V94.0276H41.8519V91.126Z" fill="black"/>
<path d="M44.7503 91.126H41.8516V94.0276H44.7503V91.126Z" fill="black"/>
<path d="M47.6566 91.126H44.7578V94.0276H47.6566V91.126Z" fill="black"/>
<path d="M50.555 91.126H47.6562V94.0276H50.555V91.126Z" fill="black"/>
<path d="M59.2425 91.126H56.3438V94.0276H59.2425V91.126Z" fill="black"/>
<path d="M67.9456 91.126H65.0469V94.0276H67.9456V91.126Z" fill="black"/>
<path d="M70.8363 91.126H67.9375V94.0276H70.8363V91.126Z" fill="black"/>
<path d="M79.5394 91.126H76.6406V94.0276H79.5394V91.126Z" fill="black"/>
<path d="M85.3441 91.126H82.4453V94.0276H85.3441V91.126Z" fill="black"/>
<path d="M91.1409 91.126H88.2422V94.0276H91.1409V91.126Z" fill="black"/>
<mask id="mask0_3221_6088" style="mask-type:luminance" maskUnits="userSpaceOnUse" x="45" y="45" width="14" height="14">
<path d="M58.5788 45.21H45.0859V58.7164H58.5788V45.21Z" fill="white"/>
</mask>
<g mask="url(#mask0_3221_6088)">
<path d="M51.8324 58.7164C55.5583 58.7164 58.5788 55.6928 58.5788 51.9632C58.5788 48.2335 55.5583 45.21 51.8324 45.21C48.1064 45.21 45.0859 48.2335 45.0859 51.9632C45.0859 55.6928 48.1064 58.7164 51.8324 58.7164Z" fill="white"/>
<path d="M54.8929 50.1909C54.8929 49.9289 54.6806 49.7172 54.4197 49.7172H53.5202L51.4468 47.3225C51.2541 47.1006 50.9506 47.0118 50.6684 47.0955L49.9488 47.3097C49.8388 47.3421 49.8047 47.4821 49.8883 47.5614L52.1459 49.7172H48.6955C48.5958 49.7172 48.5156 49.7974 48.5156 49.8973V50.2873C48.5156 50.5493 48.7279 50.761 48.9888 50.761H49.5165V52.5839C49.5165 53.9443 50.2412 54.7567 51.4545 54.7567C51.8228 54.7567 52.1408 54.7132 52.504 54.5715V55.7868C52.504 56.1163 52.7708 56.3834 53.0999 56.3834H53.6234C53.7479 56.3834 53.8485 56.2827 53.8485 56.1581V50.761H54.7138C54.8136 50.761 54.8937 50.6807 54.8937 50.5809V50.1909H54.8929ZM52.5031 53.4365C52.2908 53.5321 51.9822 53.5858 51.7537 53.5858C51.1356 53.5858 50.8602 53.2769 50.8602 52.5847V50.7618H52.5031V53.4365Z" fill="#5F259F"/>
</g>
<path d="M143.896 44.86C147.748 44.86 150.664 47.686 150.664 51.448C150.664 55.21 147.748 58 143.896 58H139.576V44.86H143.896ZM141.988 55.822H143.896C146.326 55.822 148.072 54.112 148.072 51.448C148.072 48.766 146.326 47.056 143.896 47.056H141.988V55.822ZM156.898 58.18C154.18 58.18 152.056 56.2 152.056 53.23C152.056 50.26 154.18 48.334 156.898 48.334C159.616 48.334 161.74 50.26 161.74 53.23C161.74 56.2 159.616 58.18 156.898 58.18ZM156.898 50.332C155.494 50.332 154.396 51.394 154.396 53.23C154.396 55.084 155.494 56.182 156.898 56.182C158.302 56.182 159.418 55.084 159.418 53.23C159.418 51.394 158.302 50.332 156.898 50.332ZM173.597 58H171.257L170.231 54.436C169.907 53.338 169.619 52.006 169.367 50.638C169.133 52.006 168.827 53.338 168.521 54.436L167.477 58H165.137L162.419 48.514H164.741L165.605 51.736C165.893 52.852 166.217 54.724 166.379 55.858C166.577 54.724 166.991 52.798 167.315 51.682L168.269 48.514H170.501L171.455 51.7C171.797 52.798 172.175 54.724 172.391 55.858C172.553 54.724 172.877 52.852 173.165 51.754L174.029 48.514H176.333L173.597 58ZM182.845 48.352C184.771 48.352 186.085 49.594 186.085 51.898V58H183.817V52.078C183.817 50.89 183.115 50.35 182.233 50.35C181.387 50.35 180.649 50.782 180.073 51.268V58H177.805V48.514H179.911V49.504C180.667 48.82 181.711 48.352 182.845 48.352ZM188.352 44.86H190.62V58H188.352V44.86ZM197.31 58.18C194.592 58.18 192.468 56.2 192.468 53.23C192.468 50.26 194.592 48.334 197.31 48.334C200.028 48.334 202.152 50.26 202.152 53.23C202.152 56.2 200.028 58.18 197.31 58.18ZM197.31 50.332C195.906 50.332 194.808 51.394 194.808 53.23C194.808 55.084 195.906 56.182 197.31 56.182C198.714 56.182 199.83 55.084 199.83 53.23C199.83 51.394 198.714 50.332 197.31 50.332ZM207.2 48.334C209.27 48.334 211.106 49.18 211.106 51.862V58H208.964V57.37C208.28 57.838 207.452 58.18 206.48 58.18C204.554 58.18 203.438 57.082 203.438 55.264C203.438 53.374 204.95 52.276 207.092 52.276H208.838V52.006C208.838 50.854 208.046 50.332 206.768 50.332C205.634 50.332 204.644 50.728 203.942 51.106V49.036C204.752 48.604 205.958 48.334 207.2 48.334ZM205.652 55.228C205.652 56.056 206.3 56.47 207.164 56.47C207.776 56.47 208.388 56.29 208.838 56.02V53.896H207.47C206.408 53.896 205.652 54.292 205.652 55.228ZM219.199 48.676V44.86H221.467V57.478C220.297 57.928 219.019 58.18 217.831 58.18C215.131 58.18 212.683 56.614 212.683 53.212C212.683 50.26 214.771 48.334 217.471 48.334C218.119 48.334 218.677 48.46 219.199 48.676ZM217.597 56.182C218.173 56.182 218.713 56.092 219.199 55.966V50.62C218.713 50.44 218.209 50.332 217.705 50.332C216.265 50.332 215.023 51.232 215.023 53.212C215.023 55.066 216.139 56.182 217.597 56.182ZM234.278 48.514V50.404H231.65V54.85C231.65 55.642 232.046 56.182 233.054 56.182C233.396 56.182 233.792 56.128 234.278 56.002V57.982C233.81 58.108 233.342 58.18 232.928 58.18C230.39 58.18 229.382 56.83 229.382 55.03V50.404H227.636V48.514H229.382V46.138H231.65V48.514H234.278ZM241.042 48.334C243.076 48.334 244.462 49.594 244.462 51.88V58H242.194V52.06C242.194 50.89 241.474 50.332 240.538 50.332C239.728 50.332 239.008 50.692 238.45 51.124V58H236.182V44.86H238.45V49.216C239.134 48.676 240.07 48.334 241.042 48.334ZM254.721 52.492C254.721 53.176 254.325 53.536 253.713 53.536H248.259C248.385 55.444 249.771 56.236 251.445 56.236C252.525 56.236 253.443 55.948 253.983 55.714V57.694C253.353 57.928 252.435 58.18 251.229 58.18C248.475 58.18 246.099 56.56 246.099 53.158C246.099 49.882 248.385 48.334 250.635 48.334C252.831 48.334 254.721 49.81 254.721 52.492ZM250.599 50.08C249.483 50.08 248.655 50.782 248.367 52.06H252.651C252.561 50.8 251.679 50.08 250.599 50.08ZM272.339 58H269.657L268.415 54.31H263.933L262.691 58H260.099L264.689 44.86H267.749L272.339 58ZM265.085 50.872L264.653 52.15H267.695L267.263 50.872C266.867 49.702 266.525 48.514 266.165 47.344C265.805 48.514 265.463 49.702 265.085 50.872ZM277.4 48.334C280.1 48.334 282.548 49.864 282.548 53.23C282.548 56.236 280.46 58.18 277.778 58.18C277.13 58.18 276.554 58.054 276.032 57.838V61.6H273.764V49.036C274.934 48.586 276.212 48.334 277.4 48.334ZM277.526 56.182C278.984 56.182 280.208 55.264 280.208 53.23C280.208 51.43 279.11 50.332 277.652 50.332C277.058 50.332 276.518 50.422 276.032 50.548V55.894C276.518 56.074 277.022 56.182 277.526 56.182ZM288.035 48.334C290.735 48.334 293.183 49.864 293.183 53.23C293.183 56.236 291.095 58.18 288.413 58.18C287.765 58.18 287.189 58.054 286.667 57.838V61.6H284.399V49.036C285.569 48.586 286.847 48.334 288.035 48.334ZM288.161 56.182C289.619 56.182 290.843 55.264 290.843 53.23C290.843 51.43 289.745 50.332 288.287 50.332C287.693 50.332 287.153 50.422 286.667 50.548V55.894C287.153 56.074 287.657 56.182 288.161 56.182Z" fill="white"/>
</svg>
