<svg width="68" height="68" viewBox="0 0 68 68" fill="none" xmlns="http://www.w3.org/2000/svg">
<rect width="68" height="68" rx="8" fill="#FF6900"/>
<path d="M50.25 46.5C50.25 46.8315 50.1183 47.1495 49.8839 47.3839C49.6495 47.6183 49.3315 47.75 49 47.75H19C18.6685 47.75 18.3505 47.6183 18.1161 47.3839C17.8817 47.1495 17.75 46.8315 17.75 46.5V21.5C17.75 21.1685 17.8817 20.8505 18.1161 20.6161C18.3505 20.3817 18.6685 20.25 19 20.25C19.3315 20.25 19.6495 20.3817 19.8839 20.6161C20.1183 20.8505 20.25 21.1685 20.25 21.5V38.4828L28.1156 30.6156C28.2317 30.4994 28.3696 30.4072 28.5213 30.3443C28.6731 30.2814 28.8357 30.249 29 30.249C29.1643 30.249 29.3269 30.2814 29.4787 30.3443C29.6304 30.4072 29.7683 30.4994 29.8844 30.6156L34 34.7328L42.2328 26.5H39C38.6685 26.5 38.3505 26.3683 38.1161 26.1339C37.8817 25.8995 37.75 25.5815 37.75 25.25C37.75 24.9185 37.8817 24.6005 38.1161 24.3661C38.3505 24.1317 38.6685 24 39 24H45.25C45.5815 24 45.8995 24.1317 46.1339 24.3661C46.3683 24.6005 46.5 24.9185 46.5 25.25V31.5C46.5 31.8315 46.3683 32.1495 46.1339 32.3839C45.8995 32.6183 45.5815 32.75 45.25 32.75C44.9185 32.75 44.6005 32.6183 44.3661 32.3839C44.1317 32.1495 44 31.8315 44 31.5V28.2672L34.8844 37.3844C34.7683 37.5006 34.6304 37.5928 34.4787 37.6557C34.3269 37.7186 34.1643 37.751 34 37.751C33.8357 37.751 33.6731 37.7186 33.5213 37.6557C33.3696 37.5928 33.2317 37.5006 33.1156 37.3844L29 33.2672L20.25 42.0172V45.25H49C49.3315 45.25 49.6495 45.3817 49.8839 45.6161C50.1183 45.8505 50.25 46.1685 50.25 46.5Z" fill="white"/>
</svg>
