<svg width="72" height="72" viewBox="0 0 72 72" fill="none" xmlns="http://www.w3.org/2000/svg">
<rect width="72" height="72" rx="8.64" fill="#5F259F"/>
<path d="M43.5 33H52.5C53.2957 33 54.0587 32.6839 54.6213 32.1213C55.1839 31.5587 55.5 30.7956 55.5 30V21C55.5 20.2044 55.1839 19.4413 54.6213 18.8787C54.0587 18.3161 53.2957 18 52.5 18H43.5C42.7044 18 41.9413 18.3161 41.3787 18.8787C40.8161 19.4413 40.5 20.2044 40.5 21V24H39C37.4087 24 35.8826 24.6321 34.7574 25.7574C33.6321 26.8826 33 28.4087 33 30V34.5H27V33C27 32.2044 26.6839 31.4413 26.1213 30.8787C25.5587 30.3161 24.7956 30 24 30H18C17.2044 30 16.4413 30.3161 15.8787 30.8787C15.3161 31.4413 15 32.2044 15 33V39C15 39.7956 15.3161 40.5587 15.8787 41.1213C16.4413 41.6839 17.2044 42 18 42H24C24.7956 42 25.5587 41.6839 26.1213 41.1213C26.6839 40.5587 27 39.7956 27 39V37.5H33V42C33 43.5913 33.6321 45.1174 34.7574 46.2426C35.8826 47.3679 37.4087 48 39 48H40.5V51C40.5 51.7957 40.8161 52.5587 41.3787 53.1213C41.9413 53.6839 42.7044 54 43.5 54H52.5C53.2957 54 54.0587 53.6839 54.6213 53.1213C55.1839 52.5587 55.5 51.7957 55.5 51V42C55.5 41.2044 55.1839 40.4413 54.6213 39.8787C54.0587 39.3161 53.2957 39 52.5 39H43.5C42.7044 39 41.9413 39.3161 41.3787 39.8787C40.8161 40.4413 40.5 41.2044 40.5 42V45H39C38.2044 45 37.4413 44.6839 36.8787 44.1213C36.3161 43.5587 36 42.7956 36 42V30C36 29.2044 36.3161 28.4413 36.8787 27.8787C37.4413 27.3161 38.2044 27 39 27H40.5V30C40.5 30.7956 40.8161 31.5587 41.3787 32.1213C41.9413 32.6839 42.7044 33 43.5 33ZM24 39H18V33H24V39ZM43.5 42H52.5V51H43.5V42ZM43.5 21H52.5V30H43.5V21Z" fill="white"/>
</svg>
