<svg width="60" height="60" viewBox="0 0 60 60" fill="none" xmlns="http://www.w3.org/2000/svg">
<circle opacity="0.2" cx="30" cy="30" r="30" fill="#00843D"/>
<rect width="60" height="60" rx="8" fill="#00843D"/>
<path d="M40 19H20C19.4696 19 18.9609 19.2107 18.5858 19.5858C18.2107 19.9609 18 20.4696 18 21V28.3475C18 39.5487 27.4775 43.265 29.375 43.8962C29.7803 44.0341 30.2197 44.0341 30.625 43.8962C32.525 43.265 42 39.5487 42 28.3475V21C42 20.4696 41.7893 19.9609 41.4142 19.5858C41.0391 19.2107 40.5304 19 40 19ZM40 28.3488C40 38.1512 31.7063 41.4263 30 41.9963C28.3088 41.4325 20 38.16 20 28.3488V21H40V28.3488ZM24.2925 31.7075C24.1049 31.5199 23.9994 31.2654 23.9994 31C23.9994 30.7346 24.1049 30.4801 24.2925 30.2925C24.4801 30.1049 24.7346 29.9994 25 29.9994C25.2654 29.9994 25.5199 30.1049 25.7075 30.2925L28 32.585L34.2925 26.2925C34.3854 26.1996 34.4957 26.1259 34.6171 26.0756C34.7385 26.0253 34.8686 25.9994 35 25.9994C35.1314 25.9994 35.2615 26.0253 35.3829 26.0756C35.5043 26.1259 35.6146 26.1996 35.7075 26.2925C35.8004 26.3854 35.8741 26.4957 35.9244 26.6171C35.9747 26.7385 36.0006 26.8686 36.0006 27C36.0006 27.1314 35.9747 27.2615 35.9244 27.3829C35.8741 27.5043 35.8004 27.6146 35.7075 27.7075L28.7075 34.7075C28.6146 34.8005 28.5043 34.8742 28.3829 34.9246C28.2615 34.9749 28.1314 35.0008 28 35.0008C27.8686 35.0008 27.7385 34.9749 27.6171 34.9246C27.4957 34.8742 27.3854 34.8005 27.2925 34.7075L24.2925 31.7075Z" fill="white"/>
</svg>
