<svg width="25" height="37" xmlns="http://www.w3.org/2000/svg"><defs><linearGradient x1="50%" y1="0%" x2="50%" y2="100%" id="a"><stop stop-color="#E565E0" offset="0%"/><stop stop-color="#EF81B4" offset="100%"/></linearGradient></defs><g fill="none" fill-rule="evenodd"><path d="M9.5 36C4.262 36 0 31.913 0 26.889v-.667c0-.043.001-.087.005-.131l.007-.092v-5.688c0-1.038.876-1.88 1.96-1.88h5.101c3.411 0 6.186-2.662 6.186-5.933V1.879C13.26.841 14.137 0 15.22 0c1.082 0 1.96.841 1.96 1.88v10.618c0 5.344-4.534 9.692-10.106 9.692H3.931v3.875c0 .043-.002.087-.005.131l-.007.092v.601c0 2.95 2.504 5.352 5.581 5.352 3.077 0 5.58-2.401 5.58-5.352v-.3c0-1.039.878-1.88 1.96-1.88 1.083 0 1.96.841 1.96 1.88v.3C19 31.913 14.738 36 9.5 36" fill="url(#a)" transform="translate(1 1)"/><path stroke="#A55DE5" stroke-width="4" stroke-linecap="round" stroke-linejoin="round" d="M2 2.5h21"/><path stroke="#E667DF" stroke-width="4" stroke-linecap="round" stroke-linejoin="round" d="M2 11.5h21"/></g></svg>