<svg width="60" height="58" xmlns="http://www.w3.org/2000/svg"><g fill="none" fill-rule="evenodd"><rect width="60" height="58" rx="29" fill="#BB89CD" transform="matrix(1 0 0 -1 0 58)"/><path d="M36.173 39.875H23.87c-1.2 0-2.173-.964-2.173-2.152V20.278c0-1.19.972-2.153 2.173-2.153h12.302c1.2 0 2.172.964 2.172 2.153v17.445a2.162 2.162 0 0 1-2.172 2.152Z" stroke="#FFF" stroke-width="2.735" stroke-linecap="round" stroke-linejoin="round"/><path d="M38.496 35.685h7.153c.767 0 1.388-.617 1.388-1.375V23.295c0-.759-.62-1.375-1.388-1.375h-7.153v13.765ZM21.712 21.92H14.56c-.767 0-1.388.617-1.388 1.375V34.31c0 .76.62 1.376 1.388 1.376h7.153V21.92Z" stroke="#FFF" stroke-width="2.834" stroke-linecap="round" stroke-linejoin="round"/><path stroke="#FFF" stroke-width="2.735" stroke-linecap="round" stroke-linejoin="round" d="M26.576 25.894h6.768M26.576 30.969h6.768"/></g></svg>