<svg width="252" height="178" xmlns="http://www.w3.org/2000/svg" xmlns:xlink="http://www.w3.org/1999/xlink"><defs><path id="a" d="M0 0h233.471v20.359H0z"/><path id="c" d="M0 0h251.976v170.077H0z"/></defs><g fill="none" fill-rule="evenodd"><g transform="translate(18.53 157.64)"><mask id="b" fill="#fff"><use xlink:href="#a"/></mask><path d="M233.47 10.18c0 5.621-52.263 10.18-116.735 10.18C52.265 20.36 0 15.8 0 10.18 0 4.558 52.264 0 116.735 0c64.472 0 116.736 4.558 116.736 10.18" fill="#D8D8D8" mask="url(#b)"/></g><path d="M235.69 137.947a5.316 5.316 0 0 1-5.313-5.317 5.316 5.316 0 0 1 5.314-5.318c.067 0 .132.008.198.01v-30H81.152v29.994a5.314 5.314 0 0 1 0 10.627v30.847h154.737v-30.853c-.066.002-.131.01-.198.01" fill="#792C56"/><path d="M228.261 137.947a5.316 5.316 0 0 1-5.313-5.317 5.316 5.316 0 0 1 5.313-5.318c.067 0 .133.008.2.01v-24.39a5.607 5.607 0 0 0-5.606-5.61H79.327a5.607 5.607 0 0 0-5.605 5.61v24.384a5.314 5.314 0 0 1 0 10.627v25.238a5.607 5.607 0 0 0 5.605 5.61h143.528a5.607 5.607 0 0 0 5.605-5.61v-25.244c-.066.002-.132.01-.199.01" fill="#FBE6C5"/><path fill="#2EBCD2" d="M73.734 111.906h154.802V97.433H73.734zM73.815 160.038h154.803v7.403c0 .728-.59 1.317-1.317 1.317H78.721a4.907 4.907 0 0 1-4.906-4.908v-3.812Z"/><path stroke="#38256D" stroke-width="1.404" d="M182.696 97.641v2.807"/><path stroke="#38256D" stroke-width="1.404" stroke-dasharray="5.99415635071624,5.99415635071624" d="M182.696 106.439v56.91"/><path stroke="#38256D" stroke-width="1.404" d="M182.696 166.344v2.807"/><path fill="#792C56" d="M37.919 168.772h115.776V19.125H37.919z"/><path fill="#EE6285" d="M32.047 168.772H139.4V19.125H32.047z"/><path fill="#FBE6C5" d="M56.568 135.658h55.584v-7.395H56.568zM56.568 152.89h55.584v-7.395H56.568z"/><path d="M116.417 79.88c0 17.296-14.012 31.317-31.295 31.317-17.284 0-31.295-14.02-31.295-31.316s14.011-31.317 31.295-31.317c17.283 0 31.295 14.02 31.295 31.317ZM53.827 79.881h62.59" stroke="#FBE6C5" stroke-width="6.187"/><path d="M85.122 48.564s-28.136 34.478 0 62.634M85.122 48.564s28.136 34.478 0 62.634" stroke="#FBE6C5" stroke-width="6.187"/><path fill="#FFF4D9" d="M154.752 152.927h20.596v-10.6h-20.596zM154.752 132.376h20.596v-4.01h-20.596zM154.752 125.361h20.596v-4.01h-20.596z"/><path fill="#FCB66D" d="M191.579 152.785h15.839v-14.34h-15.839z"/><path fill="#FFF4D9" d="M191.519 131.54h24.28v-11.301h-24.28z"/></g></svg>