<svg width="68" height="68" viewBox="0 0 68 68" fill="none" xmlns="http://www.w3.org/2000/svg">
<rect width="68" height="68" rx="8" fill="#00843D"/>
<path d="M47.75 20.25H35.25V17.75C35.25 17.4185 35.1183 17.1005 34.8839 16.8661C34.6495 16.6317 34.3315 16.5 34 16.5C33.6685 16.5 33.3505 16.6317 33.1161 16.8661C32.8817 17.1005 32.75 17.4185 32.75 17.75V20.25H20.25C19.587 20.25 18.9511 20.5134 18.4822 20.9822C18.0134 21.4511 17.75 22.087 17.75 22.75V41.5C17.75 42.163 18.0134 42.7989 18.4822 43.2678C18.9511 43.7366 19.587 44 20.25 44H26.4L23.0234 48.2188C22.8162 48.4778 22.7204 48.8085 22.757 49.1381C22.7937 49.4678 22.9597 49.7694 23.2188 49.9766C23.4778 50.1838 23.8085 50.2796 24.1381 50.243C24.4678 50.2063 24.7694 50.0402 24.9766 49.7812L29.6 44H38.4L43.0234 49.7812C43.126 49.9095 43.2529 50.0163 43.3967 50.0955C43.5406 50.1747 43.6987 50.2248 43.8619 50.243C44.0251 50.2611 44.1903 50.2469 44.3481 50.2012C44.5058 50.1555 44.653 50.0792 44.7812 49.9766C44.9095 49.874 45.0163 49.7471 45.0955 49.6033C45.1747 49.4594 45.2248 49.3013 45.243 49.1381C45.2611 48.9749 45.2469 48.8097 45.2012 48.6519C45.1555 48.4942 45.0792 48.347 44.9766 48.2188L41.6 44H47.75C48.413 44 49.0489 43.7366 49.5178 43.2678C49.9866 42.7989 50.25 42.163 50.25 41.5V22.75C50.25 22.087 49.9866 21.4511 49.5178 20.9822C49.0489 20.5134 48.413 20.25 47.75 20.25ZM47.75 41.5H20.25V22.75H47.75V41.5ZM30.25 32.75V36.5C30.25 36.8315 30.1183 37.1495 29.8839 37.3839C29.6495 37.6183 29.3315 37.75 29 37.75C28.6685 37.75 28.3505 37.6183 28.1161 37.3839C27.8817 37.1495 27.75 36.8315 27.75 36.5V32.75C27.75 32.4185 27.8817 32.1005 28.1161 31.8661C28.3505 31.6317 28.6685 31.5 29 31.5C29.3315 31.5 29.6495 31.6317 29.8839 31.8661C30.1183 32.1005 30.25 32.4185 30.25 32.75ZM35.25 30.25V36.5C35.25 36.8315 35.1183 37.1495 34.8839 37.3839C34.6495 37.6183 34.3315 37.75 34 37.75C33.6685 37.75 33.3505 37.6183 33.1161 37.3839C32.8817 37.1495 32.75 36.8315 32.75 36.5V30.25C32.75 29.9185 32.8817 29.6005 33.1161 29.3661C33.3505 29.1317 33.6685 29 34 29C34.3315 29 34.6495 29.1317 34.8839 29.3661C35.1183 29.6005 35.25 29.9185 35.25 30.25ZM40.25 27.75V36.5C40.25 36.8315 40.1183 37.1495 39.8839 37.3839C39.6495 37.6183 39.3315 37.75 39 37.75C38.6685 37.75 38.3505 37.6183 38.1161 37.3839C37.8817 37.1495 37.75 36.8315 37.75 36.5V27.75C37.75 27.4185 37.8817 27.1005 38.1161 26.8661C38.3505 26.6317 38.6685 26.5 39 26.5C39.3315 26.5 39.6495 26.6317 39.8839 26.8661C40.1183 27.1005 40.25 27.4185 40.25 27.75Z" fill="white"/>
</svg>
